<?xml version="1.0" encoding="utf-8"?>
<svg viewBox="1800.174 2842 24223.826 23242" xmlns="http://www.w3.org/2000/svg">
  <defs>
    <style type="text/css">
   
    .fil15 {fill:#3399ff;fill-rule:nonzero}
    .fil20 {fill:#007efa;fill-rule:nonzero}
    .fil4 {fill:#0B2D4E;fill-rule:nonzero}
    .fil14 {fill:#007efa;fill-rule:nonzero}
    .fil28 {fill:#293030;fill-rule:nonzero}
    .fil39 {fill:#321C6E;fill-rule:nonzero}
    .fil10 {fill:#361F71;fill-rule:nonzero}
    .fil18 {fill:#0b2d4e;fill-rule:nonzero}
    .fil6 {fill:#0b2d4e;fill-rule:nonzero}
    .fil24 {fill:#3A4552;fill-rule:nonzero}
    .fil46 {fill:#3C433A;fill-rule:nonzero}
    .fil12 {fill:#5cadff;fill-rule:nonzero}
    .fil37 {fill:#51666F;fill-rule:nonzero}
    .fil25 {fill:#646169;fill-rule:nonzero}
    .fil41 {fill:#0052a3;fill-rule:nonzero}
    .fil16 {fill:#85c2ff;fill-rule:nonzero}
    .fil40 {fill:#0052a3;fill-rule:nonzero}
    .fil45 {fill:#73B8D4;fill-rule:nonzero}
    .fil26 {fill:#757881;fill-rule:nonzero}
    .fil42 {fill:#0052a3;fill-rule:nonzero}
    .fil19 {fill:#33ff92;fill-rule:nonzero}
    .fil33 {fill:#7BD0D5;fill-rule:nonzero}
    .fil22 {fill:#0052a3;fill-rule:nonzero}
    .fil5 {fill: #0aff7c;fill-rule:nonzero}
    .fil3 {fill:#005cb8;fill-rule:nonzero}
    .fil32 {fill:#005cb8;fill-rule:nonzero}
    .fil2 {fill:#0066cc;fill-rule:nonzero}
    .fil23 {fill:#d6ebff;fill-rule:nonzero}
    .fil38 {fill:#D8584E;fill-rule:nonzero}
    .fil30 {fill:#DAB691;fill-rule:nonzero}
    .fil21 {fill:#DBCDFE;fill-rule:nonzero}
    .fil31 {fill:#DCDCE4;fill-rule:nonzero}
    .fil29 {fill:#DEDFE0;fill-rule:nonzero}
    .fil8 {fill:#DFDBDA;fill-rule:nonzero}
    .fil9 {fill:#E0DFE7;fill-rule:nonzero}
    .fil44 {fill:#E5785C;fill-rule:nonzero}
    .fil17 {fill:#E6AF3A;fill-rule:nonzero}
    .fil11 {fill:#E9E8E8;fill-rule:nonzero}
    .fil1 {fill:#F3CBA1;fill-rule:nonzero}
    .fil0 {fill:#F5F5FE;fill-rule:nonzero}
    .fil27 {fill:#F7F8F9;fill-rule:nonzero}
    .fil43 {fill:#F8A17A;fill-rule:nonzero}
    .fil34 {fill:#F8F8FE;fill-rule:nonzero}
    .fil13 {fill:#FFC73C;fill-rule:nonzero}
    .fil35 {fill:#FFD877;fill-rule:nonzero}
    .fil36 {fill:#FFE9CC;fill-rule:nonzero}
    .fil7 {fill:white;fill-rule:nonzero}
    .fil48 {fill:#00B856;fill-rule:nonzero}
   
  </style>
  </defs>
  <g id="Layer_x0020_1">
    <polygon class="fil1" points="15565,5799 24304,5799 24304,5207 15565,5207 "/>
    <polygon class="fil2" points="16536,5207 18359,5207 18359,3384 16536,3384 "/>
    <polygon class="fil2" points="16364,3853 18530,3853 18530,3254 16364,3254 "/>
    <polygon class="fil3" points="16536,4452 18359,4452 18359,3853 16536,3853 "/>
    <polygon class="fil4" points="17005,4195 17890,4195 17890,3853 17005,3853 "/>
    <path class="fil5" d="M20002 4618l3295 0c274,0 496,-173 496,-386l0 -99c0,-213 -222,-386 -496,-386l-3295 0 0 119 3066 0c105,0 191,67 191,149l0 337c0,82 -85,148 -191,148l-3066 0 0 119z"/>
    <path class="fil6" d="M19620 4618l3295 0c274,0 496,-173 496,-386l0 -99c0,-213 -222,-386 -496,-386l-3295 0 0 119 3295 0c190,0 343,120 343,267l0 99c0,148 -154,267 -343,267l-3295 0 0 119z"/>
    <path class="fil7" d="M19709 4499l3242 0c175,0 317,-142 317,-317 0,-175 -142,-317 -317,-317l-3242 0 0 634z"/>
    <path class="fil8" d="M23090 4138c-246,-7 -493,-12 -739,-14 -247,-3 -493,-4 -740,-4 -246,0 -493,1 -739,4 -247,2 -493,7 -740,14 246,7 493,12 740,14 247,3 493,4 739,4 247,0 493,-1 740,-4 246,-2 493,-7 739,-14z"/>
    <path class="fil8" d="M22692 4335c-247,-7 -493,-12 -739,-14 -247,-3 -493,-4 -740,-4 -246,0 -493,1 -739,4 -246,2 -493,7 -739,14 246,7 493,12 739,14 247,3 493,4 739,4 247,0 493,-1 740,-4 246,-2 493,-7 739,-14z"/>
    <path class="fil9" d="M19703 4065l0 -199 6 0 0 199 -6 0zm3532 -23c-15,-31 -35,-59 -60,-83 6,6 13,12 18,18 16,19 30,40 44,65l-3 0z"/>
    <path class="fil10" d="M23194 3976c-6,-6 -12,-12 -18,-18 -57,-57 -137,-93 -224,-93 71,0 165,18 243,111z"/>
    <path class="fil11" d="M19709 4065l0 -199 3242 0 0 0c88,0 167,36 224,93 24,24 44,52 60,83l-3526 23z"/>
    <polygon class="fil12" points="19340,5206 23513,5206 23513,4618 19340,4618 "/>
    <polygon class="fil13" points="19717,5116 19874,5116 19874,4709 19717,4709 "/>
    <polygon class="fil13" points="20499,5116 20657,5116 20657,4709 20499,4709 "/>
    <polygon class="fil13" points="19970,5206 20413,5206 20413,4618 19970,4618 "/>
    <polygon class="fil13" points="19374,3754 23547,3754 23547,2842 19374,2842 "/>
    <polygon class="fil14" points="19751,3589 19908,3589 19908,2983 19751,2983 "/>
    <polygon class="fil14" points="23116,3589 23273,3589 23273,2983 23116,2983 "/>
    <polygon class="fil14" points="22833,3589 22990,3589 22990,2983 22833,2983 "/>
    <path class="fil14" d="M20662 3286c0,168 -136,303 -303,303 -168,0 -303,-136 -303,-303 0,-167 136,-303 303,-303 167,0 303,136 303,303z"/>
    <path class="fil15" d="M5218 15222l1299 0c33,0 58,-28 56,-60l276 -3918c-2,-29 -27,-52 -56,-52l-1282 0 -293 4030z"/>
    <path class="fil16" d="M5221 15222l-552 -56c0,0 285,-3806 302,-4030 335,-4 552,56 552,56l-302 4030z"/>
    <path class="fil48" d="M6448 15172l1420 0c36,0 65,-31 62,-67l-331 -4368c-2,-32 -30,-58 -62,-58l-1430 0 341 4492z"/>
    <path class="fil5" d="M5833 15234l615 -62c0,0 -318,-4243 -337,-4492 -374,-4 -615,62 -615,62l337 4492z"/>
    <polygon class="fil5" points="7512,11777 6344,11777 6311,11311 7479,11311 "/>
    <polygon class="fil5" points="7487,11158 6319,11158 6309,11056 7476,11056 "/>
    <path class="fil2" d="M7398 11158c0,0 -56,-218 -101,-331 55,-7 249,-29 314,-36 27,96 46,367 46,367l-259 0z"/>
    <path class="fil17" d="M7613 15166l1274 0c33,0 58,-28 56,-60l-297 -3918c-2,-29 -27,-52 -56,-52l-1282 0 306 4030z"/>
    <path class="fil13" d="M7061 15222l552 -56c0,0 -285,-3806 -302,-4030 -335,-4 -552,56 -552,56l302 4030z"/>
    <polygon class="fil13" points="8610,12786 7594,12786 7569,12468 8585,12468 "/>
    <polygon class="fil20" points="5821,15097 5662,15097 5528,11192 "/>
    <path class="fil15" d="M6095 10680c0,0 -69,-266 -123,-403 66,-8 303,-35 382,-44 33,116 56,447 56,447l-316 0z"/>
    <polygon class="fil15" points="5097,11410 4846,14880 5097,14905 5331,11431 "/>
    <path class="fil21" d="M9313 13939l9511 0c84,0 152,-68 152,-152l0 -840 -9815 0 0 840c0,84 68,152 152,152z"/>
    <polygon class="fil22" points="13042,14807 15056,14807 15056,13939 13042,13939 "/>
    <path class="fil6" d="M9161 12964l9815 0 0 -5595c0,-77 -63,-140 -140,-140l-9534 0c-78,0 -140,63 -140,140l0 5595z"/>
    <polygon class="fil23" points="9533,12610 18612,12610 18612,7641 9533,7641 "/>
    <polygon class="fil7" points="9854,12610 18291,12610 18291,7900 9854,7900 "/>
    <path class="fil2" d="M13847 13399c0,122 99,222 222,222 122,0 222,-99 222,-222 0,-122 -99,-222 -222,-222 -122,0 -222,99 -222,222z"/>
    <path class="fil21" d="M12180 15097l3774 0c0,-160 -130,-291 -290,-291l-3193 0c-160,0 -290,130 -290,291z"/>
    <polygon class="fil2" points="9533,7900 18612,7900 18612,7641 9533,7641 "/>
    <path class="fil7" d="M18383 7764c0,32 26,58 58,58 32,0 58,-26 58,-58 0,-32 -26,-58 -58,-58 -32,0 -58,26 -58,58z"/>
    <path class="fil7" d="M18176 7764c0,32 26,58 58,58 32,0 58,-26 58,-58 0,-32 -26,-58 -58,-58 -32,0 -58,26 -58,58z"/>
    <path class="fil7" d="M17968 7764c0,32 26,58 58,58 32,0 58,-26 58,-58 0,-32 -26,-58 -58,-58 -32,0 -58,26 -58,58z"/>
    <polygon class="fil24" points="10010,12610 18110,12610 18110,7895 10010,7895 "/>
    <polygon class="fil15" points="10010,8683 10798,8683 10798,7895 10010,7895 "/>
    <polygon class="fil25" points="10010,12610 10798,12610 10798,8683 10010,8683 "/>
    <polygon class="fil26" points="10798,8683 18110,8683 18110,7895 10798,7895 "/>
    <polygon class="fil25" points="16801,12610 18110,12610 18110,8683 16801,8683 "/>
    <polygon class="fil27" points="11012,12385 16591,12385 16591,8863 11012,8863 "/>
    <polygon class="fil26" points="16968,9508 17943,9508 17943,8863 16968,8863 "/>
    <polygon class="fil26" points="16968,10289 17943,10289 17943,9643 16968,9643 "/>
    <polygon class="fil26" points="16968,11069 17943,11069 17943,10424 16968,10424 "/>
    <polygon class="fil26" points="10181,9282 10599,9282 10599,8863 10181,8863 "/>
    <polygon class="fil26" points="10181,9880 10599,9880 10599,9462 10181,9462 "/>
    <polygon class="fil26" points="10181,10479 10599,10479 10599,10061 10181,10061 "/>
    <polygon class="fil26" points="10181,11078 10599,11078 10599,10659 10181,10659 "/>
    <polygon class="fil26" points="10181,11676 10599,11676 10599,11258 10181,11258 "/>
    <polygon class="fil25" points="11012,8498 11430,8498 11430,8080 11012,8080 "/>
    <polygon class="fil25" points="11610,8498 12028,8498 12028,8080 11610,8080 "/>
    <polygon class="fil25" points="12209,8498 12627,8498 12627,8080 12209,8080 "/>
    <polygon class="fil25" points="12808,8498 13226,8498 13226,8080 12808,8080 "/>
    <polygon class="fil25" points="13406,8498 13824,8498 13824,8080 13406,8080 "/>
    <polygon class="fil28" points="10010,12610 18110,12610 18110,12385 10010,12385 "/>
    <polygon class="fil15" points="11221,10015 15006,10015 15006,9072 11221,9072 "/>
    <polygon class="fil29" points="11221,11020 13017,11020 13017,10157 11221,10157 "/>
    <polygon class="fil22" points="11221,12024 13017,12024 13017,11162 11221,11162 "/>
    <polygon class="fil29" points="13210,12024 15006,12024 15006,10157 13210,10157 "/>
    <polygon class="fil29" points="15185,12024 16400,12024 16400,9072 15185,9072 "/>
    <polygon class="fil13" points="15185,11020 16400,11020 16400,10157 15185,10157 "/>
    <polygon class="fil1" points="2461,15931 25936,15931 25936,15097 2461,15097 "/>
    <polygon class="fil30" points="2461,15931 25936,15931 25936,15514 2461,15514 "/>
    <polygon class="fil1" points="4649,26028 4095,26021 5279,16473 5818,16597 "/>
    <path class="fil30" d="M5383 18999c-138,0 -277,-2 -417,-6l296 -2387 554 0 -297 2392c-46,0 -91,1 -137,1z"/>
    <polygon class="fil1" points="8951,26028 9506,26028 8321,16473 7782,16597 "/>
    <path class="fil31" d="M8080 18999c-1,0 -3,0 -4,0l-297 -2392 4 0 297 2392z"/>
    <path class="fil30" d="M8212 18999c-44,0 -88,0 -132,-1l-297 -2392 550 0 296 2387c-139,4 -278,6 -417,6z"/>
    <polygon class="fil1" points="4728,16606 8868,16606 8868,15931 4728,15931 "/>
    <polygon class="fil1" points="4728,21684 8868,21684 8868,21009 4728,21009 "/>
    <polygon class="fil30" points="8868,16606 4728,16606 4728,15931 8868,15931 "/>
    <polygon class="fil1" points="19462,26028 18908,26028 20092,16473 20631,16597 "/>
    <path class="fil31" d="M20333 18999l297 -2392 -297 2392 0 0zm-554 -5l0 0 296 -2387 -296 2387z"/>
    <path class="fil30" d="M20197 18999c-139,0 -277,-2 -417,-6l296 -2387 554 0 -297 2392c-46,0 -91,1 -137,1z"/>
    <polygon class="fil1" points="23765,26028 24319,26028 23135,16473 22596,16597 "/>
    <path class="fil31" d="M22893 18999c-2,0 -3,0 -4,0l-297 -2392 4 0 297 2392z"/>
    <path class="fil30" d="M23026 18999c-44,0 -88,0 -133,-1l-297 -2392 550 0 296 2387c-140,4 -278,6 -417,6z"/>
    <polygon class="fil1" points="19541,16606 23681,16606 23681,15931 19541,15931 "/>
    <polygon class="fil1" points="19541,21684 23681,21684 23681,21009 19541,21009 "/>
    <polygon class="fil30" points="23681,16606 19541,16606 19541,15931 23681,15931 "/>
    <path class="fil21" d="M18385 14452l-482 0c-356,0 -645,289 -645,645l1773 0c0,-357 -289,-645 -645,-645z"/>
    <path class="fil2" d="M19030 15097l-887 0 0 -645 241 0c356,0 645,289 645,645z"/>
    <polygon class="fil2" points="22597,11750 23017,11750 23017,11330 22597,11330 "/>
    <path class="fil2" d="M21806 12569l2002 0c0,-452 -367,-819 -819,-819l-364 0c-452,0 -819,367 -819,819z"/>
    <polygon class="fil32" points="22598,11750 22808,11750 22808,11330 22598,11330 "/>
    <path class="fil32" d="M22808 12569l-1001 0c0,-452 367,-819 819,-819l-1 0 183 0 0 819z"/>
    <path class="fil22" d="M21734 6985c66,145 132,290 199,435 160,350 320,700 480,1050 193,422 385,843 578,1265 166,365 333,730 500,1094 55,121 110,242 166,363 26,57 48,118 79,172 2,2 2,5 4,7 44,97 188,13 144,-84 -66,-145 -132,-290 -199,-435 -160,-350 -320,-700 -480,-1050 -192,-422 -385,-843 -578,-1265 -167,-365 -333,-730 -500,-1094 -55,-121 -110,-242 -166,-363 -26,-57 -48,-118 -79,-172 -1,-2 -2,-5 -3,-7 -44,-98 -188,-13 -144,84z"/>
    <path class="fil2" d="M21978 6993c-886,409 -1526,1320 -1477,2313 24,483 212,946 528,1312 313,361 744,614 1207,729 558,138 1145,75 1668,-162 98,-44 13,-188 -84,-144 -849,383 -1900,239 -2567,-427 -315,-314 -524,-731 -575,-1174 -50,-433 43,-874 250,-1256 251,-465 655,-826 1134,-1046 97,-45 13,-189 -84,-144z"/>
    <path class="fil14" d="M20827 9134c0,1094 887,1980 1980,1980 1094,0 1980,-887 1980,-1980 0,-1094 -886,-1980 -1980,-1980 -1094,0 -1980,886 -1980,1980z"/>
    <path class="fil13" d="M23346 7302c1,6 2,12 1,18 -4,25 -32,37 -49,57 -16,19 -21,46 -18,70 3,25 14,48 26,70 5,10 11,21 9,32 -3,18 -23,27 -40,32 -56,14 -207,59 -153,150 25,42 84,39 133,45 116,14 215,116 226,232 1,15 1,31 -7,43 -13,19 -39,23 -61,22 -106,-6 -194,-79 -274,-149 -44,26 -45,90 -27,138 18,48 50,91 54,142 -52,26 -117,26 -169,0 -28,-14 -61,-35 -89,-21 -24,13 -29,44 -43,68 -43,71 -148,49 -229,66 -61,13 -113,51 -163,89 -109,82 -218,164 -327,246 -11,8 -22,17 -29,28 -18,30 -1,70 26,93 27,22 62,33 92,49 124,64 151,190 217,300 65,112 148,211 237,304 103,108 192,221 276,343 28,40 56,81 72,127 35,102 8,214 2,321 -1,18 -1,36 8,51 9,15 31,24 45,13 7,-5 11,-14 14,-22 24,-56 60,-99 100,-145 35,-40 37,-62 44,-114 3,-21 14,-31 13,-55 -1,-22 -19,-39 -12,-62 6,-20 27,-30 37,-48 19,-34 -7,-77 1,-115 9,-42 28,-64 28,-109 0,-41 -1,-86 -14,-125 -9,-27 -32,-48 -37,-78 -4,-22 1,-45 -6,-66 -6,-18 -19,-31 -29,-47 -39,-59 -31,-136 -21,-207 4,-29 11,-62 36,-77 7,-4 16,-6 22,-12 7,-7 9,-18 11,-28 12,-54 54,-101 106,-118 112,-37 20,-177 -38,-233 -37,-35 -79,-65 -108,-106 -29,-41 -43,-99 -17,-142 38,-61 133,-56 192,-15 59,41 96,106 148,157 51,50 133,85 194,48 18,-10 34,-27 55,-28 28,-1 48,25 71,40 71,47 170,-10 250,16 36,12 65,39 99,56 34,17 82,20 105,-10 9,-12 14,-28 27,-35 13,-7 29,-3 44,-4 38,-3 64,-44 66,-82 2,-38 -13,-75 -24,-112 -34,-116 -28,-243 18,-355 -256,-392 -648,-687 -1109,-820 -10,15 -14,35 -12,62 0,3 1,5 1,8z"/>
    <path class="fil13" d="M21680 7611c-26,41 -53,81 -79,122 -12,18 -24,37 -25,59 -2,47 48,78 64,123 25,73 -55,144 -132,156 -53,9 -122,12 -139,63 -6,18 -2,38 -7,56 -7,25 -28,43 -44,63 -54,65 -58,166 -10,236 22,32 53,57 75,90 22,32 32,78 8,109 -43,57 -162,31 -176,100 -6,29 12,68 -13,85 -9,6 -22,6 -32,11 -25,11 -29,45 -24,71 5,27 17,53 10,80 -34,15 -78,-16 -106,6 -9,7 -13,18 -18,28 -50,112 -114,219 -189,316 -10,-82 -16,-165 -16,-249l0 0c0,-701 365,-1318 915,-1669 -13,56 -44,117 -62,146z"/>
    <path class="fil22" d="M23447 19521l0 1071 -361 0 0 -710c0,-199 162,-361 361,-361z"/>
    <path class="fil22" d="M24134 19521l0 1071 361 0 0 -710c0,-199 -162,-361 -361,-361z"/>
    <polygon class="fil2" points="23447,19843 24134,19843 24134,19521 23447,19521 "/>
    <path class="fil14" d="M21717 24336l4141 0c92,0 166,-74 166,-166l0 -1513c0,-92 -74,-167 -166,-167l-4141 0c-92,0 -166,75 -166,167l0 1513c0,92 74,166 166,166z"/>
    <path class="fil12" d="M23499 20237l583 0c942,0 1706,764 1706,1707l0 3347 -3995 0 0 -3347c0,-942 764,-1707 1707,-1707z"/>
    <path class="fil14" d="M23585 20446l0 49 411 0c428,0 815,173 1096,454 281,281 454,668 454,1096l0 3198 -3510 0 0 -3198c0,-428 174,-815 454,-1096 280,-280 668,-454 1096,-454l0 -97c-455,0 -867,184 -1165,482 -298,298 -482,710 -482,1164l0 3295 3704 0 0 -3295c0,-455 -185,-867 -482,-1164 -298,-298 -710,-482 -1165,-482l-411 0 0 49z"/>
    <path class="fil22" d="M21793 25252l3995 0 0 566c0,115 -93,208 -208,208l-3579 0c-115,0 -208,-93 -208,-208l0 -566z"/>
    <path class="fil14" d="M22376 25252l2830 0c92,0 166,-75 166,-167l0 -1513c0,-92 -75,-166 -166,-166l-2830 0c-92,0 -166,74 -166,166l0 1513c0,92 74,167 166,167z"/>
    <path class="fil7" d="M23378 21757l826 0c161,0 291,-130 291,-291 0,-161 -130,-291 -291,-291l-826 0c-161,0 -291,131 -291,291 0,161 130,291 291,291z"/>
    <polygon class="fil7" points="22209,23900 25372,23900 25372,23780 22209,23780 "/>
    <polygon class="fil33" points="22209,23907 25372,23907 25372,23893 22209,23893 "/>
    <path class="fil7" d="M24958 24114c0,118 41,214 91,214 50,0 91,-96 91,-214 0,-118 -41,-214 -91,-214 -50,0 -91,96 -91,214z"/>
    <path class="fil15" d="M19738 14136c-16,3 -31,-7 -34,-22l-50 -238c-3,-16 7,-31 23,-34 16,-3 31,7 34,23l50 238c3,16 -7,31 -23,34z"/>
    <path class="fil15" d="M19374 12390l0 0c-43,9 -86,-19 -95,-62l-59 -285c-9,-43 19,-86 62,-95 43,-9 86,19 95,62l59 285c9,43 -19,86 -62,95z"/>
    <path class="fil15" d="M19710 13999c-43,9 -86,-19 -95,-62l-59 -285c-9,-43 19,-86 62,-95 43,-9 86,19 95,62l59 285c9,43 -19,86 -62,95z"/>
    <path class="fil16" d="M19417 12150l-177 37c-45,9 -73,53 -64,97l151 724 188 720c11,42 54,69 96,60l105 -22c43,-9 71,-50 64,-93l-115 -736 -151 -724c-9,-44 -53,-73 -97,-64z"/>
    <path class="fil15" d="M19645 12991l-278 58c-26,5 -51,-11 -57,-37 -5,-26 11,-51 37,-57l278 -58c26,-5 51,11 57,37 6,26 -11,51 -37,57z"/>
    <path class="fil15" d="M19769 12867l0 0c-20,4 -40,-9 -45,-29l-143 -684c-4,-20 9,-40 29,-45 20,-4 40,9 45,29l143 684c4,20 -9,40 -29,45z"/>
    <polygon class="fil16" points="19633,12399 19556,12415 19514,12214 19591,12198 "/>
    <polygon class="fil13" points="20166,11717 19801,11698 19712,13431 20077,13449 "/>
    <polygon class="fil34" points="20083,11712 19884,11702 19884,11702 "/>
    <polygon class="fil35" points="19991,13318 19801,13318 19884,11702 20083,11712 20001,13296 "/>
    <polygon class="fil4" points="19862,14021 20077,13449 19706,13430 "/>
    <polygon class="fil36" points="19974,13723 20077,13449 19706,13430 19781,13713 "/>
    <polygon class="fil4" points="20166,11717 19801,11698 19810,11517 20175,11536 "/>
    <path class="fil2" d="M20174 11543l-365 -19 7 -134c1,-26 23,-45 49,-44l272 14c26,1 45,23 44,49l-7 134z"/>
    <polygon class="fil13" points="19798,13737 20129,13890 20856,12314 20525,12161 "/>
    <polygon class="fil34" points="20781,12279 20607,12199 20781,12279 "/>
    <polygon class="fil35" points="20301,13318 20082,13318 20600,12196 20607,12199 20781,12279 "/>
    <polygon class="fil4" points="20937,11711 20525,12161 20862,12317 "/>
    <polygon class="fil36" points="20722,11946 20525,12161 20862,12317 20898,12027 "/>
    <polygon class="fil37" points="19798,13737 20129,13890 20054,14054 19722,13901 "/>
    <path class="fil38" d="M19725 13894l331 153 -64 139c-6,14 -23,20 -37,14l-281 -130c-14,-6 -20,-23 -13,-37l64 -139z"/>
    <polygon class="fil6" points="19337,15090 20441,15090 20441,13318 19337,13318 "/>
    <polygon class="fil39" points="19337,15090 19889,15090 19889,13318 19337,13318 "/>
    <polygon class="fil2" points="3614,14752 3444,14792 1900,8311 2070,8270 "/>
    <polygon class="fil2" points="3998,14847 3828,14888 2244,8240 2414,8199 "/>
    <polygon class="fil2" points="2429,7869 2311,7739 5771,4609 5888,4738 "/>
    <polygon class="fil2" points="2529,8251 2412,8122 5871,4991 5989,5121 "/>
    <polygon class="fil22" points="3200,15101 6711,15101 6711,14829 3200,14829 "/>
    <path class="fil2" d="M6581 14285l-3252 0c-71,0 -129,58 -129,129l0 415 3511 0 0 -415c0,-71 -58,-129 -129,-129z"/>
    <polygon class="fil2" points="5958,5135 5871,4984 6911,4384 6998,4535 "/>
    <path class="fil22" d="M2789 8243l-246 342c-36,50 -102,66 -157,38l-518 -265c-68,-35 -89,-122 -44,-183l394 -537c48,-66 145,-68 196,-5l370 459c35,43 37,105 4,150z"/>
    <path class="fil7" d="M1979 8236c0,31 -25,57 -57,57 -31,0 -57,-25 -57,-57 0,-32 25,-57 57,-57 31,0 57,25 57,57z"/>
    <path class="fil7" d="M2508 8507c0,31 -25,57 -57,57 -31,0 -57,-25 -57,-57 0,-31 25,-57 57,-57 31,0 57,25 57,57z"/>
    <path class="fil7" d="M2745 8167c0,31 -25,57 -57,57 -31,0 -57,-25 -57,-57 0,-32 25,-57 57,-57 31,0 57,25 57,57z"/>
    <path class="fil22" d="M5544 4624l195 785c14,54 81,74 121,35l582 -561c40,-39 24,-107 -30,-122l-777 -224c-54,-16 -104,33 -91,88z"/>
    <path class="fil7" d="M5893 5308c-17,26 -52,34 -79,17 -26,-17 -34,-52 -16,-79 17,-26 52,-34 79,-16 26,17 34,52 16,78z"/>
    <path class="fil7" d="M5734 4702c-17,26 -52,34 -79,17 -26,-17 -34,-52 -16,-79 17,-26 52,-34 79,-17 26,17 34,52 17,79z"/>
    <path class="fil7" d="M6347 4890c-17,26 -52,34 -79,17 -26,-17 -34,-52 -16,-79 17,-26 52,-34 79,-17 26,17 34,52 17,79z"/>
    <path class="fil7" d="M2379 7700c0,31 -25,57 -57,57 -31,0 -57,-25 -57,-57 0,-31 25,-57 57,-57 31,0 57,25 57,57z"/>
    <path class="fil2" d="M8119 4740l-1130 242 -334 -1561c-16,-74 31,-147 106,-163l861 -184c74,-16 147,32 163,106l334 1561z"/>
    <polygon class="fil22" points="8044,4377 6909,4620 6845,4319 7980,4076 "/>
    <polygon class="fil2" points="9446,5483 6199,6178 6911,4618 8041,4376 "/>
    <path class="fil31" d="M7797 5840l-1 -4 1650 -353c0,0 -1174,259 -1649,357z"/>
    <polygon class="fil40" points="7493,4494 7493,4494 7635,4463 "/>
    <polygon class="fil3" points="7796,5836 7493,4494 7635,4463 8041,4376 9446,5483 "/>
    <path class="fil31" d="M8044 4376l-64 -300 -2 1 -192 -898c-12,-54 -53,-94 -103,-105 52,9 96,49 108,104l256 1198 -2 0z"/>
    <path class="fil3" d="M7429 4194l-220 -1029 422 -90c9,-2 19,-3 28,-3 8,0 16,1 23,2 50,12 92,51 103,105l192 898 -548 117z"/>
    <polygon class="fil40" points="7493,4494 7429,4194 7977,4077 7980,4076 8044,4376 8041,4376 8041,4376 "/>
    <polygon class="fil41" points="7493,4494 7493,4494 8041,4376 7635,4463 "/>
    <path class="fil2" d="M24580 15136l-3295 0c-274,0 -496,-173 -496,-386l0 -99c0,-213 222,-386 496,-386l3295 0 0 119 -3066 0c-105,0 -191,67 -191,149l0 337c0,82 85,148 191,148l3066 0 0 119z"/>
    <path class="fil22" d="M24962 15136l-3295 0c-274,0 -496,-173 -496,-386l0 -99c0,-213 222,-386 496,-386l3295 0 0 119 -3295 0c-190,0 -344,120 -344,267l0 99c0,148 154,267 344,267l3295 0 0 119z"/>
    <path class="fil7" d="M24873 15018l-3242 0c-175,0 -317,-142 -317,-317 0,-175 142,-317 317,-317l3242 0 0 634z"/>
    <path class="fil8" d="M21492 14657c246,-7 493,-12 739,-14 247,-3 493,-4 740,-4 246,0 493,1 740,4 246,2 493,7 739,14 -247,7 -493,12 -739,14 -247,3 -493,4 -740,4 -246,0 -493,-1 -740,-4 -246,-2 -493,-7 -739,-14z"/>
    <path class="fil8" d="M21890 14853c246,-7 493,-12 740,-14 247,-3 493,-4 739,-4 247,0 493,1 740,4 246,2 493,7 740,14 -247,7 -493,12 -740,14 -246,3 -493,4 -740,4 -246,0 -493,-1 -739,-4 -247,-2 -493,-7 -740,-14z"/>
    <path class="fil9" d="M24879 14583l-6 0 0 -199 6 0 0 199zm-3532 -23l-3 0c14,-25 28,-46 44,-65 6,-6 12,-12 18,-18 -24,24 -44,52 -60,83z"/>
    <path class="fil42" d="M21388 14495c77,-93 171,-111 243,-111 -88,0 -167,36 -224,93 -6,6 -13,12 -18,18z"/>
    <path class="fil11" d="M24873 14583l-3526 -23c15,-31 36,-59 60,-83 57,-57 137,-93 224,-93l3242 0 0 199z"/>
    <path class="fil6" d="M24798 14265l-3448 0c-189,0 -343,-154 -343,-344l0 -433c0,-189 154,-344 343,-344l3448 0 0 153 -3448 0c-105,0 -191,86 -191,191l0 433c0,105 86,191 191,191l3448 0 0 153z"/>
    <path class="fil7" d="M24709 14112l-3368 0c-105,0 -191,-85 -191,-191l0 -432c0,-105 86,-191 191,-191l3368 0 0 814z"/>
    <path class="fil11" d="M24709 13497l-3559 -8c0,-105 86,-191 191,-191l3368 0 0 199z"/>
    <path class="fil8" d="M21621 13652c246,-8 493,-13 739,-16 247,-3 493,-4 739,-5 247,0 493,1 740,5 247,3 493,8 739,16 -246,8 -493,14 -739,16 -246,3 -493,4 -740,5 -246,0 -493,-1 -739,-5 -247,-3 -493,-8 -739,-16z"/>
    <path class="fil8" d="M21354 13828c247,-8 493,-13 739,-16 247,-3 493,-4 740,-5 246,0 493,1 740,5 246,3 493,8 739,16 -246,8 -493,13 -739,16 -247,3 -493,4 -740,5 -246,0 -493,-1 -740,-5 -246,-3 -493,-8 -739,-16z"/>
    <polygon class="fil12" points="20891,13163 25064,13163 25064,12575 20891,12575 "/>
    <polygon class="fil13" points="21268,13072 21425,13072 21425,12665 21268,12665 "/>
    <polygon class="fil13" points="22050,13072 22208,13072 22208,12665 22050,12665 "/>
    <polygon class="fil13" points="21521,13163 21964,13163 21964,12575 21521,12575 "/>
    <path class="fil43" d="M13559 11490c553,365 1628,82 1324,-642 -37,-88 -82,-173 -107,-264 -41,-152 -37,-309 -33,-463 5,-180 6,-361 16,-542 -202,-38 -366,-57 -580,-49 -178,6 -355,-10 -532,-1 -14,1 -30,2 -40,10 -10,8 -12,22 -13,34 -24,244 0,491 -19,735 -10,137 -29,293 -91,420 -96,195 -239,376 -101,588 45,69 106,127 177,174z"/>
    <path class="fil44" d="M17251 14164c0,-524 425,-949 949,-949 524,0 949,425 949,949l-1897 0z"/>
    <path class="fil44" d="M19051 13781l0 0c-175,-279 -546,-364 -825,-190l-688 457c-279,175 -364,546 -190,825 175,279 546,364 825,190l688 -458c279,-175 365,-546 190,-825z"/>
    <path class="fil44" d="M9895 14541l0 0c3,-329 274,-596 603,-593l3554 29c329,3 596,274 593,603 -3,329 -274,596 -603,593l-3554 -29c-329,-3 -596,-274 -593,-603z"/>
    <path class="fil14" d="M16223 16570l-4217 0 0 -3690c0,-1045 847,-1893 1893,-1893l431 0c1045,0 1893,847 1893,1893l0 3690z"/>
    <path class="fil43" d="M10081 14983l0 0c-245,-220 -265,-600 -46,-845l2374 -2645c220,-245 600,-265 845,-46 245,220 265,600 46,845l-2374 2645c-220,245 -600,265 -845,46z"/>
    <path class="fil14" d="M11013 13035l3117 2291 0 -4518 0 0c-726,0 -1417,311 -1899,853l-1219 1373z"/>
    <path class="fil43" d="M18183 14983l0 0c245,-220 265,-600 46,-845l-2374 -2645c-220,-245 -600,-265 -845,-46l0 0c-245,220 -265,600 -46,845l2374 2645c220,245 600,265 845,46z"/>
    <path class="fil14" d="M17250 13035l-3117 2291 0 -4518c726,0 1417,311 1899,853l1219 1373z"/>
    <polygon class="fil12" points="15952,25932 17315,25932 17315,24405 15952,24405 "/>
    <path class="fil14" d="M17315 25848l-1363 0 0 -64c0,-376 305,-681 681,-681l1 0c376,0 681,305 681,681l0 64z"/>
    <path class="fil4" d="M17502 24747l-1746 0 0 -6222c0,-480 393,-873 873,-873 480,0 873,393 873,873l0 6222z"/>
    <path class="fil4" d="M9722 18560l0 0c0,-480 393,-873 873,-873l6012 0c480,0 873,393 873,873 0,480 -393,873 -873,873l-6012 0c-480,0 -873,-393 -873,-873z"/>
    <path class="fil12" d="M12208 22197l148 611 118 487 90 372 -2739 663 0 0c-115,-474 177,-952 651,-1067l220 -53c253,-61 408,-316 347,-569l-37 -153 1202 -291z"/>
    <path class="fil14" d="M12583 23744l-895 216 -1 -3c-117,-491 191,-992 682,-1109l213 896z"/>
    <path class="fil22" d="M9851 24437l0 0c35,145 183,235 328,200l2211 -535c145,-35 235,-183 200,-328 -35,-145 -183,-235 -328,-200l-2211 535c-145,35 -235,183 -200,328z"/>
    <path class="fil4" d="M10804 22911l1691 -434 -1061 -4135c-119,-465 -597,-748 -1062,-628l0 0c-465,119 -748,598 -628,1062l1061 4135z"/>
    <path class="fil22" d="M17228 26084l-1175 0c-137,0 -247,-111 -247,-247l0 0c0,-137 111,-247 247,-247l1175 0c137,0 247,111 247,247l0 0c0,137 -111,247 -247,247z"/>
    <path class="fil4" d="M16479 12934c-121,37 -246,60 -372,67 -170,10 -341,-8 -510,12 -174,20 -342,81 -498,162 -125,65 -244,144 -379,185 -131,40 -270,44 -406,36 -356,-20 -714,-118 -1006,-323 -133,-94 -253,-209 -402,-274 -299,-128 -653,-25 -962,-129 -195,-66 -360,-216 -443,-404 -106,-239 -69,-520 59,-742 132,-229 253,-400 105,-655 -32,-56 -73,-107 -95,-167 -21,-57 -24,-119 -22,-179 13,-331 264,-578 431,-851 39,-64 78,-130 90,-204 30,-188 -119,-350 -199,-523 -258,-560 182,-1197 611,-1533 253,-198 556,-278 828,-440 124,-74 237,-165 363,-236 219,-124 458,-129 701,-95 693,97 1481,601 1641,1326 109,491 -69,1063 417,1407 147,104 332,165 432,314 205,305 -46,702 57,1033 52,169 160,273 258,415 246,354 296,911 50,1282 -61,92 -141,171 -227,241 -155,125 -334,219 -524,278z"/>
    <path class="fil4" d="M17206 11345c-75,-64 -129,-147 -164,-239 -35,-92 -51,-194 -51,-297 0,-75 9,-150 25,-222 19,-85 48,-170 72,-257 24,-87 44,-176 44,-268 0,-8 0,-16 -1,-25 -5,-122 -49,-240 -121,-338 -72,-98 -172,-175 -287,-216 -59,-21 -118,-32 -176,-44 -58,-12 -113,-26 -163,-50 -76,-36 -135,-92 -183,-160 -48,-68 -84,-147 -113,-226 -34,-93 -42,-178 -42,-268 0,-71 5,-144 5,-225 0,-3 0,-5 0,-8l0 0c-1,-236 -7,-473 -31,-708 -14,-140 -63,-278 -131,-405 -68,-128 -157,-245 -251,-344 -27,-28 -55,-56 -85,-82 -157,-140 -359,-255 -580,-334 -221,-79 -461,-124 -694,-124 -264,0 -520,57 -732,186 -60,36 -107,80 -152,125 -44,45 -84,92 -128,137 -89,91 -206,166 -316,235 -222,139 -462,250 -699,367 -151,75 -309,157 -424,289 -133,152 -194,356 -194,556 0,10 0,19 0,29 6,209 75,410 169,594 67,129 145,250 185,383 12,39 17,77 17,115 0,82 -26,162 -69,236 -43,74 -102,141 -168,198 -62,54 -129,106 -191,165 -62,59 -117,124 -154,204 -28,62 -42,129 -42,197 0,79 19,157 56,227 32,60 76,111 117,160 42,49 81,97 107,151 26,53 39,112 39,172 0,56 -12,112 -35,163 -27,58 -70,117 -108,178 -19,31 -37,62 -50,95 -13,33 -22,67 -22,103 0,23 3,46 11,69l53 -17c-6,-18 -8,-35 -8,-52 0,-27 6,-54 18,-82 17,-42 44,-86 74,-130 29,-45 60,-91 83,-140 27,-58 40,-122 40,-186 0,-68 -15,-135 -45,-196 -30,-62 -73,-113 -115,-162 -42,-50 -82,-97 -111,-151 -33,-61 -50,-131 -50,-201 0,-60 12,-120 37,-174 32,-71 83,-131 142,-187 59,-56 126,-108 189,-163 69,-60 133,-132 179,-212 47,-80 76,-170 76,-264 0,-43 -6,-87 -20,-131 -44,-142 -124,-266 -189,-392 -92,-178 -157,-372 -163,-570 0,-9 0,-18 0,-27 0,-189 58,-380 181,-520 106,-122 256,-201 407,-276 236,-117 478,-228 704,-370 111,-70 231,-146 326,-243 46,-47 86,-94 129,-138 42,-43 87,-83 141,-116 200,-123 447,-178 703,-178 227,0 461,43 676,121 215,77 411,188 561,323 28,25 56,51 82,79 91,95 177,209 242,332 66,123 112,254 125,384 24,233 30,468 31,703l0 0c0,3 0,5 0,8 0,79 -5,152 -5,225 0,93 8,186 45,287 30,82 68,165 120,239 52,73 118,137 204,178 57,27 117,41 175,54 59,13 116,24 169,43 104,37 195,107 261,196 66,89 106,197 111,307 0,7 0,15 0,22 0,84 -18,168 -42,254 -23,85 -52,171 -72,260 -17,76 -26,155 -26,234 0,109 17,217 55,317 38,99 97,190 179,261l36 -42z"/>
    <path class="fil45" d="M13636 7221c131,-68 278,-100 425,-107 147,-6 295,13 439,45 288,64 559,211 768,421 210,209 357,485 399,781 20,148 13,296 16,442 3,145 14,293 75,422 61,129 167,233 284,317 117,85 248,153 373,231 62,39 128,79 174,144 46,66 56,146 57,220 1,75 -9,150 -28,223 -19,73 -53,140 -81,207 -28,67 -47,136 -39,207 6,71 30,140 61,206 62,132 139,258 202,391 63,133 112,275 123,423 13,147 -6,296 -54,435 45,-140 60,-289 44,-434 -14,-146 -66,-285 -131,-415 -65,-131 -142,-256 -208,-389 -32,-67 -58,-138 -66,-214 -9,-76 10,-154 39,-222 28,-69 60,-134 77,-204 18,-69 27,-141 26,-213 -1,-71 -12,-144 -51,-200 -40,-56 -102,-95 -164,-133 -124,-76 -256,-144 -377,-231 -120,-86 -232,-194 -298,-332 -64,-139 -74,-292 -77,-439 -2,-147 5,-294 -14,-438 -39,-288 -182,-556 -384,-764 -203,-209 -466,-356 -751,-424 -142,-36 -287,-58 -434,-55 -146,3 -293,32 -425,96z"/>
    <path class="fil2" d="M16069 20596l-3922 0c-328,0 -594,-266 -594,-594l0 -12c0,-328 266,-594 594,-594l3922 0c328,0 594,266 594,594l0 12c0,328 -266,594 -594,594z"/>
    <polygon class="fil4" points="13751,21620 14403,21620 14403,18539 13751,18539 "/>
    <path class="fil22" d="M16107 18886l-3999 0c-307,0 -557,-249 -557,-557l0 -3761c0,-1412 1145,-2556 2556,-2556l0 0c1412,0 2556,1145 2556,2556l0 3761c0,307 -249,557 -557,557z"/>
    <polygon class="fil46" points="14748,21116 13376,21116 12463,20596 15690,20596 "/>
    <polygon class="fil46" points="13733,23251 14391,23251 14391,21578 13733,21578 "/>
    <polygon class="fil4" points="14748,21116 13376,21116 12463,20596 15690,20596 "/>
    <polygon class="fil4" points="13733,22788 14391,22788 14391,21116 13733,21116 "/>
    <polygon class="fil26" points="13567,23692 14556,23692 14556,22019 13567,22019 "/>
    <path class="fil26" d="M15528 24913l-280 0c0,-596 -391,-1081 -872,-1081l-2118 0c-481,0 -872,485 -872,1081l-281 0c0,-751 517,-1362 1152,-1362l2118 0c635,0 1152,611 1152,1362z"/>
    <path class="fil26" d="M17119 24913l-281 0c0,-596 -391,-1081 -872,-1081l-2118 0c-481,0 -872,485 -872,1081l-281 0c0,-751 517,-1362 1152,-1362l2118 0c635,0 1152,611 1152,1362z"/>
    <path class="fil4" d="M11656 26053l-11 0c-311,0 -564,-252 -564,-564l0 -575 575 0c311,0 564,253 564,564l0 11c0,311 -252,564 -564,564z"/>
    <path class="fil4" d="M13252 26053l-11 0c-311,0 -564,-252 -564,-564l0 -575 575 0c311,0 564,253 564,564l0 11c0,311 -252,564 -564,564z"/>
    <path class="fil4" d="M15804 26053l-11 0c-312,0 -564,-252 -564,-564l0 -575 575 0c312,0 564,253 564,564l0 11c0,311 -253,564 -564,564z"/>
    <path class="fil4" d="M17388 26053l-11 0c-311,0 -564,-252 -564,-564l0 -575 575 0c311,0 564,253 564,564l0 11c0,311 -253,564 -564,564z"/>
  </g>
</svg>