<svg viewBox="1800.174 2842 24223.826 23242" xmlns="http://www.w3.org/2000/svg"><defs><style>.fil15{fill:#39f;fill-rule:nonzero}.fil20{fill:#007efa;fill-rule:nonzero}.fil4{fill:#0b2d4e;fill-rule:nonzero}.fil14{fill:#007efa;fill-rule:nonzero}.fil28{fill:#293030;fill-rule:nonzero}.fil39{fill:#321c6e;fill-rule:nonzero}.fil10{fill:#361f71;fill-rule:nonzero}.fil18{fill:#0b2d4e;fill-rule:nonzero}.fil6{fill:#0b2d4e;fill-rule:nonzero}.fil24{fill:#3a4552;fill-rule:nonzero}.fil46{fill:#3c433a;fill-rule:nonzero}.fil12{fill:#5cadff;fill-rule:nonzero}.fil37{fill:#51666f;fill-rule:nonzero}.fil25{fill:#646169;fill-rule:nonzero}.fil41{fill:#0052a3;fill-rule:nonzero}.fil16{fill:#85c2ff;fill-rule:nonzero}.fil40{fill:#0052a3;fill-rule:nonzero}.fil45{fill:#73b8d4;fill-rule:nonzero}.fil26{fill:#757881;fill-rule:nonzero}.fil42{fill:#0052a3;fill-rule:nonzero}.fil19{fill:#33ff92;fill-rule:nonzero}.fil33{fill:#7bd0d5;fill-rule:nonzero}.fil22{fill:#0052a3;fill-rule:nonzero}.fil5{fill:#0aff7c;fill-rule:nonzero}.fil3{fill:#005cb8;fill-rule:nonzero}.fil32{fill:#005cb8;fill-rule:nonzero}.fil2{fill:#06c;fill-rule:nonzero}.fil23{fill:#d6ebff;fill-rule:nonzero}.fil38{fill:#d8584e;fill-rule:nonzero}.fil30{fill:#dab691;fill-rule:nonzero}.fil21{fill:#dbcdfe;fill-rule:nonzero}.fil31{fill:#dcdce4;fill-rule:nonzero}.fil29{fill:#dedfe0;fill-rule:nonzero}.fil8{fill:#dfdbda;fill-rule:nonzero}.fil9{fill:#e0dfe7;fill-rule:nonzero}.fil44{fill:#e5785c;fill-rule:nonzero}.fil17{fill:#e6af3a;fill-rule:nonzero}.fil11{fill:#e9e8e8;fill-rule:nonzero}.fil1{fill:#f3cba1;fill-rule:nonzero}.fil0{fill:#f5f5fe;fill-rule:nonzero}.fil27{fill:#f7f8f9;fill-rule:nonzero}.fil43{fill:#f8a17a;fill-rule:nonzero}.fil34{fill:#f8f8fe;fill-rule:nonzero}.fil13{fill:#ffc73c;fill-rule:nonzero}.fil35{fill:#ffd877;fill-rule:nonzero}.fil36{fill:#ffe9cc;fill-rule:nonzero}.fil7{fill:#fff;fill-rule:nonzero}.fil48{fill:#00b856;fill-rule:nonzero}</style></defs><g id="Layer_x0020_1"><path class="fil1" d="M15565 5799h8739V5207H15565z"/><path class="fil2" d="M16536 5207h1823V3384H16536z"/><path class="fil2" d="M16364 3853h2166V3254H16364z"/><path class="fil3" d="M16536 4452h1823V3853H16536z"/><path class="fil4" d="M17005 4195h885V3853h-885z"/><path class="fil5" d="M20002 4618h3295c274 0 496-173 496-386v-99c0-213-222-386-496-386h-3295v119h3066c105 0 191 67 191 149v337c0 82-85 148-191 148h-3066v119z"/><path class="fil6" d="M19620 4618h3295c274 0 496-173 496-386v-99c0-213-222-386-496-386h-3295v119h3295c190 0 343 120 343 267v99c0 148-154 267-343 267h-3295v119z"/><path class="fil7" d="M19709 4499h3242c175 0 317-142 317-317 0-175-142-317-317-317h-3242v634z"/><path class="fil8" d="M23090 4138c-246-7-493-12-739-14-247-3-493-4-740-4-246 0-493 1-739 4-247 2-493 7-740 14 246 7 493 12 740 14 247 3 493 4 739 4 247 0 493-1 740-4 246-2 493-7 739-14z"/><path class="fil8" d="M22692 4335c-247-7-493-12-739-14-247-3-493-4-740-4-246 0-493 1-739 4-246 2-493 7-739 14 246 7 493 12 739 14 247 3 493 4 739 4 247 0 493-1 740-4 246-2 493-7 739-14z"/><path class="fil9" d="M19703 4065v-199h6v199h-6zm3532-23c-15-31-35-59-60-83 6 6 13 12 18 18 16 19 30 40 44 65h-3z"/><path class="fil10" d="M23194 3976c-6-6-12-12-18-18-57-57-137-93-224-93 71 0 165 18 243 111z"/><path class="fil11" d="M19709 4065v-199h3242v0c88 0 167 36 224 93 24 24 44 52 60 83l-3526 23z"/><path class="fil12" d="M19340 5206h4173V4618H19340z"/><path class="fil13" d="M19717 5116h157V4709h-157z"/><path class="fil13" d="M20499 5116h158V4709h-158z"/><path class="fil13" d="M19970 5206h443V4618h-443z"/><path class="fil13" d="M19374 3754h4173V2842H19374z"/><path class="fil14" d="M19751 3589h157V2983h-157z"/><path class="fil14" d="M23116 3589h157V2983h-157z"/><path class="fil14" d="M22833 3589h157V2983h-157z"/><path class="fil14" d="M20662 3286c0 168-136 303-303 303-168 0-303-136-303-303 0-167 136-303 303-303 167 0 303 136 303 303z"/><path class="fil15" d="M5218 15222h1299c33 0 58-28 56-60l276-3918c-2-29-27-52-56-52H5511l-293 4030z"/><path class="fil16" d="M5221 15222l-552-56c0 0 285-3806 302-4030 335-4 552 56 552 56l-302 4030z"/><path class="fil48" d="M6448 15172h1420c36 0 65-31 62-67l-331-4368c-2-32-30-58-62-58H6107l341 4492z"/><path class="fil5" d="M5833 15234l615-62c0 0-318-4243-337-4492-374-4-615 62-615 62l337 4492z"/><path class="fil5" d="M7512 11777H6344l-33-466H7479z"/><path class="fil5" d="M7487 11158H6319l-10-102H7476z"/><path class="fil2" d="M7398 11158c0 0-56-218-101-331 55-7 249-29 314-36 27 96 46 367 46 367h-259z"/><path class="fil17" d="M7613 15166h1274c33 0 58-28 56-60l-297-3918c-2-29-27-52-56-52H7308l306 4030z"/><path class="fil13" d="M7061 15222l552-56c0 0-285-3806-302-4030-335-4-552 56-552 56l302 4030z"/><path class="fil13" d="M8610 12786H7594l-25-318H8585z"/><path class="fil20" d="M5821 15097H5662l-134-3905z"/><path class="fil15" d="M6095 10680c0 0-69-266-123-403 66-8 303-35 382-44 33 116 56 447 56 447h-316z"/><path class="fil15" d="M5097 11410l-251 3470 251 25 234-3474z"/><path class="fil21" d="M9313 13939h9511c84 0 152-68 152-152v-840H9161v840c0 84 68 152 152 152z"/><path class="fil22" d="M13042 14807h2014v-868H13042z"/><path class="fil6" d="M9161 12964h9815V7369c0-77-63-140-140-140H9302c-78 0-140 63-140 140v5595z"/><path class="fil23" d="M9533 12610h9079V7641H9533z"/><path class="fil7" d="M9854 12610h8437V79e2H9854z"/><path class="fil2" d="M13847 13399c0 122 99 222 222 222 122 0 222-99 222-222 0-122-99-222-222-222-122 0-222 99-222 222z"/><path class="fil21" d="M12180 15097h3774c0-160-130-291-290-291h-3193c-160 0-290 130-290 291z"/><path class="fil2" d="M9533 79e2h9079V7641H9533z"/><path class="fil7" d="M18383 7764c0 32 26 58 58 58 32 0 58-26 58-58 0-32-26-58-58-58-32 0-58 26-58 58z"/><path class="fil7" d="M18176 7764c0 32 26 58 58 58 32 0 58-26 58-58 0-32-26-58-58-58-32 0-58 26-58 58z"/><path class="fil7" d="M17968 7764c0 32 26 58 58 58 32 0 58-26 58-58 0-32-26-58-58-58-32 0-58 26-58 58z"/><path class="fil24" d="M10010 12610h81e2V7895H10010z"/><path class="fil15" d="M10010 8683h788V7895h-788z"/><path class="fil25" d="M10010 12610h788V8683h-788z"/><path class="fil26" d="M10798 8683h7312V7895H10798z"/><path class="fil25" d="M16801 12610h1309V8683H16801z"/><path class="fil27" d="M11012 12385h5579V8863H11012z"/><path class="fil26" d="M16968 9508h975V8863h-975z"/><path class="fil26" d="M16968 10289h975V9643h-975z"/><path class="fil26" d="M16968 11069h975v-645h-975z"/><path class="fil26" d="M10181 9282h418V8863h-418z"/><path class="fil26" d="M10181 9880h418V9462h-418z"/><path class="fil26" d="M10181 10479h418v-418h-418z"/><path class="fil26" d="M10181 11078h418v-419h-418z"/><path class="fil26" d="M10181 11676h418v-418h-418z"/><path class="fil25" d="M11012 8498h418V8080h-418z"/><path class="fil25" d="M11610 8498h418V8080h-418z"/><path class="fil25" d="M12209 8498h418V8080h-418z"/><path class="fil25" d="M12808 8498h418V8080h-418z"/><path class="fil25" d="M13406 8498h418V8080h-418z"/><path class="fil28" d="M10010 12610h81e2v-225H10010z"/><path class="fil15" d="M11221 10015h3785V9072H11221z"/><path class="fil29" d="M11221 11020h1796v-863H11221z"/><path class="fil22" d="M11221 12024h1796v-862H11221z"/><path class="fil29" d="M13210 12024h1796V10157H13210z"/><path class="fil29" d="M15185 12024h1215V9072H15185z"/><path class="fil13" d="M15185 11020h1215v-863H15185z"/><path class="fil1" d="M2461 15931H25936v-834H2461z"/><path class="fil30" d="M2461 15931H25936v-417H2461z"/><path class="fil1" d="M4649 26028l-554-7 1184-9548 539 124z"/><path class="fil30" d="M5383 18999c-138 0-277-2-417-6l296-2387h554l-297 2392c-46 0-91 1-137 1z"/><path class="fil1" d="M8951 26028h555L8321 16473l-539 124z"/><path class="fil31" d="M8080 18999c-1 0-3 0-4 0l-297-2392h4l297 2392z"/><path class="fil30" d="M8212 18999c-44 0-88 0-132-1l-297-2392h550l296 2387c-139 4-278 6-417 6z"/><path class="fil1" d="M4728 16606H8868v-675H4728z"/><path class="fil1" d="M4728 21684H8868v-675H4728z"/><path class="fil30" d="M8868 16606H4728v-675H8868z"/><path class="fil1" d="M19462 26028h-554l1184-9555 539 124z"/><path class="fil31" d="M20333 18999l297-2392-297 2392v0zm-554-5v0l296-2387-296 2387z"/><path class="fil30" d="M20197 18999c-139 0-277-2-417-6l296-2387h554l-297 2392c-46 0-91 1-137 1z"/><path class="fil1" d="M23765 26028h554l-1184-9555-539 124z"/><path class="fil31" d="M22893 18999c-2 0-3 0-4 0l-297-2392h4l297 2392z"/><path class="fil30" d="M23026 18999c-44 0-88 0-133-1l-297-2392h550l296 2387c-140 4-278 6-417 6z"/><path class="fil1" d="M19541 16606h4140v-675H19541z"/><path class="fil1" d="M19541 21684h4140v-675H19541z"/><path class="fil30" d="M23681 16606H19541v-675h4140z"/><path class="fil21" d="M18385 14452h-482c-356 0-645 289-645 645h1773c0-357-289-645-645-645z"/><path class="fil2" d="M19030 15097h-887v-645h241c356 0 645 289 645 645z"/><path class="fil2" d="M22597 11750h420v-420h-420z"/><path class="fil2" d="M21806 12569h2002c0-452-367-819-819-819h-364c-452 0-819 367-819 819z"/><path class="fil32" d="M22598 11750h210v-420h-210z"/><path class="fil32" d="M22808 12569h-1001c0-452 367-819 819-819h-1 183v819z"/><path class="fil22" d="M21734 6985c66 145 132 290 199 435 160 350 320 7e2 480 1050 193 422 385 843 578 1265 166 365 333 730 5e2 1094 55 121 110 242 166 363 26 57 48 118 79 172 2 2 2 5 4 7 44 97 188 13 144-84-66-145-132-290-199-435-160-350-320-7e2-480-1050-192-422-385-843-578-1265-167-365-333-730-5e2-1094-55-121-110-242-166-363-26-57-48-118-79-172-1-2-2-5-3-7-44-98-188-13-144 84z"/><path class="fil2" d="M21978 6993c-886 409-1526 1320-1477 2313 24 483 212 946 528 1312 313 361 744 614 1207 729 558 138 1145 75 1668-162 98-44 13-188-84-144-849 383-19e2 239-2567-427-315-314-524-731-575-1174-50-433 43-874 250-1256 251-465 655-826 1134-1046 97-45 13-189-84-144z"/><path class="fil14" d="M20827 9134c0 1094 887 1980 1980 1980 1094 0 1980-887 1980-1980 0-1094-886-1980-1980-1980-1094 0-1980 886-1980 1980z"/><path class="fil13" d="M23346 7302c1 6 2 12 1 18-4 25-32 37-49 57-16 19-21 46-18 70 3 25 14 48 26 70 5 10 11 21 9 32-3 18-23 27-40 32-56 14-207 59-153 150 25 42 84 39 133 45 116 14 215 116 226 232 1 15 1 31-7 43-13 19-39 23-61 22-106-6-194-79-274-149-44 26-45 90-27 138 18 48 50 91 54 142-52 26-117 26-169 0-28-14-61-35-89-21-24 13-29 44-43 68-43 71-148 49-229 66-61 13-113 51-163 89-109 82-218 164-327 246-11 8-22 17-29 28-18 30-1 70 26 93 27 22 62 33 92 49 124 64 151 190 217 3e2 65 112 148 211 237 304 103 108 192 221 276 343 28 40 56 81 72 127 35 102 8 214 2 321-1 18-1 36 8 51 9 15 31 24 45 13 7-5 11-14 14-22 24-56 60-99 1e2-145 35-40 37-62 44-114 3-21 14-31 13-55-1-22-19-39-12-62 6-20 27-30 37-48 19-34-7-77 1-115 9-42 28-64 28-109 0-41-1-86-14-125-9-27-32-48-37-78-4-22 1-45-6-66-6-18-19-31-29-47-39-59-31-136-21-207 4-29 11-62 36-77 7-4 16-6 22-12 7-7 9-18 11-28 12-54 54-101 106-118 112-37 20-177-38-233-37-35-79-65-108-106-29-41-43-99-17-142 38-61 133-56 192-15 59 41 96 106 148 157 51 50 133 85 194 48 18-10 34-27 55-28 28-1 48 25 71 40 71 47 170-10 250 16 36 12 65 39 99 56 34 17 82 20 105-10 9-12 14-28 27-35 13-7 29-3 44-4 38-3 64-44 66-82 2-38-13-75-24-112-34-116-28-243 18-355-256-392-648-687-1109-820-10 15-14 35-12 62 0 3 1 5 1 8z"/><path class="fil13" d="M21680 7611c-26 41-53 81-79 122-12 18-24 37-25 59-2 47 48 78 64 123 25 73-55 144-132 156-53 9-122 12-139 63-6 18-2 38-7 56-7 25-28 43-44 63-54 65-58 166-10 236 22 32 53 57 75 90 22 32 32 78 8 109-43 57-162 31-176 1e2-6 29 12 68-13 85-9 6-22 6-32 11-25 11-29 45-24 71 5 27 17 53 10 80-34 15-78-16-106 6-9 7-13 18-18 28-50 112-114 219-189 316-10-82-16-165-16-249v0c0-701 365-1318 915-1669-13 56-44 117-62 146z"/><path class="fil22" d="M23447 19521v1071h-361v-710c0-199 162-361 361-361z"/><path class="fil22" d="M24134 19521v1071h361v-710c0-199-162-361-361-361z"/><path class="fil2" d="M23447 19843h687v-322h-687z"/><path class="fil14" d="M21717 24336h4141c92 0 166-74 166-166v-1513c0-92-74-167-166-167h-4141c-92 0-166 75-166 167v1513c0 92 74 166 166 166z"/><path class="fil12" d="M23499 20237h583c942 0 1706 764 1706 1707v3347h-3995v-3347c0-942 764-1707 1707-1707z"/><path class="fil14" d="M23585 20446v49h411c428 0 815 173 1096 454 281 281 454 668 454 1096v3198h-3510v-3198c0-428 174-815 454-1096 280-280 668-454 1096-454v-97c-455 0-867 184-1165 482-298 298-482 710-482 1164v3295h3704v-3295c0-455-185-867-482-1164-298-298-710-482-1165-482h-411v49z"/><path class="fil22" d="M21793 25252h3995v566c0 115-93 208-208 208h-3579c-115 0-208-93-208-208v-566z"/><path class="fil14" d="M22376 25252h2830c92 0 166-75 166-167v-1513c0-92-75-166-166-166h-2830c-92 0-166 74-166 166v1513c0 92 74 167 166 167z"/><path class="fil7" d="M23378 21757h826c161 0 291-130 291-291 0-161-130-291-291-291h-826c-161 0-291 131-291 291 0 161 130 291 291 291z"/><path class="fil7" d="M22209 239e2h3163v-120H22209z"/><path class="fil33" d="M22209 23907h3163v-14H22209z"/><path class="fil7" d="M24958 24114c0 118 41 214 91 214 50 0 91-96 91-214 0-118-41-214-91-214-50 0-91 96-91 214z"/><path class="fil15" d="M19738 14136c-16 3-31-7-34-22l-50-238c-3-16 7-31 23-34 16-3 31 7 34 23l50 238c3 16-7 31-23 34z"/><path class="fil15" d="M19374 12390v0c-43 9-86-19-95-62l-59-285c-9-43 19-86 62-95 43-9 86 19 95 62l59 285c9 43-19 86-62 95z"/><path class="fil15" d="M19710 13999c-43 9-86-19-95-62l-59-285c-9-43 19-86 62-95 43-9 86 19 95 62l59 285c9 43-19 86-62 95z"/><path class="fil16" d="M19417 12150l-177 37c-45 9-73 53-64 97l151 724 188 720c11 42 54 69 96 60l105-22c43-9 71-50 64-93l-115-736-151-724c-9-44-53-73-97-64z"/><path class="fil15" d="M19645 12991l-278 58c-26 5-51-11-57-37-5-26 11-51 37-57l278-58c26-5 51 11 57 37 6 26-11 51-37 57z"/><path class="fil15" d="M19769 12867v0c-20 4-40-9-45-29l-143-684c-4-20 9-40 29-45 20-4 40 9 45 29l143 684c4 20-9 40-29 45z"/><path class="fil16" d="M19633 12399l-77 16-42-201 77-16z"/><path class="fil13" d="M20166 11717l-365-19-89 1733 365 18z"/><path class="fil34" d="M20083 11712l-199-10v0z"/><path class="fil35" d="M19991 13318h-190l83-1616 199 10-82 1584z"/><path class="fil4" d="M19862 14021l215-572-371-19z"/><path class="fil36" d="M19974 13723l103-274-371-19 75 283z"/><path class="fil4" d="M20166 11717l-365-19 9-181 365 19z"/><path class="fil2" d="M20174 11543l-365-19 7-134c1-26 23-45 49-44l272 14c26 1 45 23 44 49l-7 134z"/><path class="fil13" d="M19798 13737l331 153 727-1576-331-153z"/><path class="fil34" d="M20781 12279l-174-80 174 80z"/><path class="fil35" d="M20301 13318h-219l518-1122 7 3 174 80z"/><path class="fil4" d="M20937 11711l-412 450 337 156z"/><path class="fil36" d="M20722 11946l-197 215 337 156 36-290z"/><path class="fil37" d="M19798 13737l331 153-75 164-332-153z"/><path class="fil38" d="M19725 13894l331 153-64 139c-6 14-23 20-37 14l-281-130c-14-6-20-23-13-37l64-139z"/><path class="fil6" d="M19337 15090h1104V13318H19337z"/><path class="fil39" d="M19337 15090h552V13318h-552z"/><path class="fil2" d="M3614 14752l-170 40L19e2 8311l170-41z"/><path class="fil2" d="M3998 14847l-170 41L2244 8240l170-41z"/><path class="fil2" d="M2429 7869l-118-130L5771 4609l117 129z"/><path class="fil2" d="M2529 8251l-117-129L5871 4991l118 130z"/><path class="fil22" d="M32e2 15101H6711v-272H32e2z"/><path class="fil2" d="M6581 14285H3329c-71 0-129 58-129 129v415h3511v-415c0-71-58-129-129-129z"/><path class="fil2" d="M5958 5135l-87-151 1040-6e2 87 151z"/><path class="fil22" d="M2789 8243l-246 342c-36 50-102 66-157 38l-518-265c-68-35-89-122-44-183l394-537c48-66 145-68 196-5l370 459c35 43 37 105 4 150z"/><path class="fil7" d="M1979 8236c0 31-25 57-57 57-31 0-57-25-57-57 0-32 25-57 57-57 31 0 57 25 57 57z"/><path class="fil7" d="M2508 8507c0 31-25 57-57 57-31 0-57-25-57-57 0-31 25-57 57-57 31 0 57 25 57 57z"/><path class="fil7" d="M2745 8167c0 31-25 57-57 57-31 0-57-25-57-57 0-32 25-57 57-57 31 0 57 25 57 57z"/><path class="fil22" d="M5544 4624l195 785c14 54 81 74 121 35l582-561c40-39 24-107-30-122l-777-224c-54-16-104 33-91 88z"/><path class="fil7" d="M5893 5308c-17 26-52 34-79 17-26-17-34-52-16-79 17-26 52-34 79-16 26 17 34 52 16 78z"/><path class="fil7" d="M5734 4702c-17 26-52 34-79 17-26-17-34-52-16-79 17-26 52-34 79-17 26 17 34 52 17 79z"/><path class="fil7" d="M6347 4890c-17 26-52 34-79 17-26-17-34-52-16-79 17-26 52-34 79-17 26 17 34 52 17 79z"/><path class="fil7" d="M2379 77e2c0 31-25 57-57 57-31 0-57-25-57-57 0-31 25-57 57-57 31 0 57 25 57 57z"/><path class="fil2" d="M8119 4740l-1130 242-334-1561c-16-74 31-147 106-163l861-184c74-16 147 32 163 106l334 1561z"/><path class="fil22" d="M8044 4377 6909 4620l-64-301 1135-243z"/><path class="fil2" d="M9446 5483 6199 6178l712-1560 1130-242z"/><path class="fil31" d="M7797 5840l-1-4 1650-353c0 0-1174 259-1649 357z"/><path class="fil40" d="M7493 4494v0l142-31z"/><path class="fil3" d="M7796 5836 7493 4494l142-31 406-87L9446 5483z"/><path class="fil31" d="M8044 4376l-64-3e2-2 1-192-898c-12-54-53-94-103-105 52 9 96 49 108 104l256 1198h-2z"/><path class="fil3" d="M7429 4194l-220-1029 422-90c9-2 19-3 28-3 8 0 16 1 23 2 50 12 92 51 103 105l192 898-548 117z"/><path class="fil40" d="M7493 4494l-64-3e2 548-117 3-1 64 3e2h-3v0z"/><path class="fil41" d="M7493 4494v0l548-118-406 87z"/><path class="fil2" d="M24580 15136h-3295c-274 0-496-173-496-386v-99c0-213 222-386 496-386h3295v119h-3066c-105 0-191 67-191 149v337c0 82 85 148 191 148h3066v119z"/><path class="fil22" d="M24962 15136h-3295c-274 0-496-173-496-386v-99c0-213 222-386 496-386h3295v119h-3295c-190 0-344 120-344 267v99c0 148 154 267 344 267h3295v119z"/><path class="fil7" d="M24873 15018h-3242c-175 0-317-142-317-317 0-175 142-317 317-317h3242v634z"/><path class="fil8" d="M21492 14657c246-7 493-12 739-14 247-3 493-4 740-4 246 0 493 1 740 4 246 2 493 7 739 14-247 7-493 12-739 14-247 3-493 4-740 4-246 0-493-1-740-4-246-2-493-7-739-14z"/><path class="fil8" d="M21890 14853c246-7 493-12 740-14 247-3 493-4 739-4 247 0 493 1 740 4 246 2 493 7 740 14-247 7-493 12-740 14-246 3-493 4-740 4-246 0-493-1-739-4-247-2-493-7-740-14z"/><path class="fil9" d="M24879 14583h-6v-199h6v199zm-3532-23h-3c14-25 28-46 44-65 6-6 12-12 18-18-24 24-44 52-60 83z"/><path class="fil42" d="M21388 14495c77-93 171-111 243-111-88 0-167 36-224 93-6 6-13 12-18 18z"/><path class="fil11" d="M24873 14583l-3526-23c15-31 36-59 60-83 57-57 137-93 224-93h3242v199z"/><path class="fil6" d="M24798 14265h-3448c-189 0-343-154-343-344v-433c0-189 154-344 343-344h3448v153h-3448c-105 0-191 86-191 191v433c0 105 86 191 191 191h3448v153z"/><path class="fil7" d="M24709 14112h-3368c-105 0-191-85-191-191v-432c0-105 86-191 191-191h3368v814z"/><path class="fil11" d="M24709 13497l-3559-8c0-105 86-191 191-191h3368v199z"/><path class="fil8" d="M21621 13652c246-8 493-13 739-16 247-3 493-4 739-5 247 0 493 1 740 5 247 3 493 8 739 16-246 8-493 14-739 16-246 3-493 4-740 5-246 0-493-1-739-5-247-3-493-8-739-16z"/><path class="fil8" d="M21354 13828c247-8 493-13 739-16 247-3 493-4 740-5 246 0 493 1 740 5 246 3 493 8 739 16-246 8-493 13-739 16-247 3-493 4-740 5-246 0-493-1-740-5-246-3-493-8-739-16z"/><path class="fil12" d="M20891 13163h4173v-588H20891z"/><path class="fil13" d="M21268 13072h157v-407h-157z"/><path class="fil13" d="M22050 13072h158v-407h-158z"/><path class="fil13" d="M21521 13163h443v-588h-443z"/><path class="fil43" d="M13559 11490c553 365 1628 82 1324-642-37-88-82-173-107-264-41-152-37-309-33-463 5-180 6-361 16-542-202-38-366-57-580-49-178 6-355-10-532-1-14 1-30 2-40 10-10 8-12 22-13 34-24 244 0 491-19 735-10 137-29 293-91 420-96 195-239 376-101 588 45 69 106 127 177 174z"/><path class="fil44" d="M17251 14164c0-524 425-949 949-949 524 0 949 425 949 949h-1897z"/><path class="fil44" d="M19051 13781v0c-175-279-546-364-825-190l-688 457c-279 175-364 546-190 825 175 279 546 364 825 190l688-458c279-175 365-546 190-825z"/><path class="fil44" d="M9895 14541v0c3-329 274-596 603-593l3554 29c329 3 596 274 593 603-3 329-274 596-603 593l-3554-29c-329-3-596-274-593-603z"/><path class="fil14" d="M16223 16570h-4217v-3690c0-1045 847-1893 1893-1893h431c1045 0 1893 847 1893 1893v3690z"/><path class="fil43" d="M10081 14983v0c-245-220-265-6e2-46-845l2374-2645c220-245 6e2-265 845-46 245 220 265 6e2 46 845l-2374 2645c-220 245-6e2 265-845 46z"/><path class="fil14" d="M11013 13035l3117 2291v-4518 0c-726 0-1417 311-1899 853l-1219 1373z"/><path class="fil43" d="M18183 14983v0c245-220 265-6e2 46-845l-2374-2645c-220-245-6e2-265-845-46v0c-245 220-265 6e2-46 845l2374 2645c220 245 6e2 265 845 46z"/><path class="fil14" d="M17250 13035l-3117 2291v-4518c726 0 1417 311 1899 853l1219 1373z"/><path class="fil12" d="M15952 25932h1363V24405H15952z"/><path class="fil14" d="M17315 25848h-1363v-64c0-376 305-681 681-681h1c376 0 681 305 681 681v64z"/><path class="fil4" d="M17502 24747h-1746v-6222c0-480 393-873 873-873 480 0 873 393 873 873v6222z"/><path class="fil4" d="M9722 18560v0c0-480 393-873 873-873h6012c480 0 873 393 873 873 0 480-393 873-873 873h-6012c-480 0-873-393-873-873z"/><path class="fil12" d="M12208 22197l148 611 118 487 90 372-2739 663v0c-115-474 177-952 651-1067l220-53c253-61 408-316 347-569l-37-153 1202-291z"/><path class="fil14" d="M12583 23744l-895 216-1-3c-117-491 191-992 682-1109l213 896z"/><path class="fil22" d="M9851 24437v0c35 145 183 235 328 2e2l2211-535c145-35 235-183 2e2-328-35-145-183-235-328-2e2l-2211 535c-145 35-235 183-2e2 328z"/><path class="fil4" d="M10804 22911l1691-434-1061-4135c-119-465-597-748-1062-628v0c-465 119-748 598-628 1062l1061 4135z"/><path class="fil22" d="M17228 26084h-1175c-137 0-247-111-247-247v0c0-137 111-247 247-247h1175c137 0 247 111 247 247v0c0 137-111 247-247 247z"/><path class="fil4" d="M16479 12934c-121 37-246 60-372 67-170 10-341-8-510 12-174 20-342 81-498 162-125 65-244 144-379 185-131 40-270 44-406 36-356-20-714-118-1006-323-133-94-253-209-402-274-299-128-653-25-962-129-195-66-360-216-443-404-106-239-69-520 59-742 132-229 253-4e2 105-655-32-56-73-107-95-167-21-57-24-119-22-179 13-331 264-578 431-851 39-64 78-130 90-204 30-188-119-350-199-523-258-560 182-1197 611-1533 253-198 556-278 828-440 124-74 237-165 363-236 219-124 458-129 701-95 693 97 1481 601 1641 1326 109 491-69 1063 417 1407 147 104 332 165 432 314 205 305-46 702 57 1033 52 169 160 273 258 415 246 354 296 911 50 1282-61 92-141 171-227 241-155 125-334 219-524 278z"/><path class="fil4" d="M17206 11345c-75-64-129-147-164-239-35-92-51-194-51-297 0-75 9-150 25-222 19-85 48-170 72-257 24-87 44-176 44-268 0-8 0-16-1-25-5-122-49-240-121-338-72-98-172-175-287-216-59-21-118-32-176-44-58-12-113-26-163-50-76-36-135-92-183-160-48-68-84-147-113-226-34-93-42-178-42-268 0-71 5-144 5-225 0-3 0-5 0-8v0c-1-236-7-473-31-708-14-140-63-278-131-405-68-128-157-245-251-344-27-28-55-56-85-82-157-140-359-255-580-334-221-79-461-124-694-124-264 0-520 57-732 186-60 36-107 80-152 125-44 45-84 92-128 137-89 91-206 166-316 235-222 139-462 250-699 367-151 75-309 157-424 289-133 152-194 356-194 556 0 10 0 19 0 29 6 209 75 410 169 594 67 129 145 250 185 383 12 39 17 77 17 115 0 82-26 162-69 236-43 74-102 141-168 198-62 54-129 106-191 165-62 59-117 124-154 204-28 62-42 129-42 197 0 79 19 157 56 227 32 60 76 111 117 160 42 49 81 97 107 151 26 53 39 112 39 172 0 56-12 112-35 163-27 58-70 117-108 178-19 31-37 62-50 95-13 33-22 67-22 103 0 23 3 46 11 69l53-17c-6-18-8-35-8-52 0-27 6-54 18-82 17-42 44-86 74-130 29-45 60-91 83-140 27-58 40-122 40-186 0-68-15-135-45-196-30-62-73-113-115-162-42-50-82-97-111-151-33-61-50-131-50-201 0-60 12-120 37-174 32-71 83-131 142-187 59-56 126-108 189-163 69-60 133-132 179-212 47-80 76-170 76-264 0-43-6-87-20-131-44-142-124-266-189-392-92-178-157-372-163-570 0-9 0-18 0-27 0-189 58-380 181-520 106-122 256-201 407-276 236-117 478-228 704-370 111-70 231-146 326-243 46-47 86-94 129-138 42-43 87-83 141-116 2e2-123 447-178 703-178 227 0 461 43 676 121 215 77 411 188 561 323 28 25 56 51 82 79 91 95 177 209 242 332 66 123 112 254 125 384 24 233 30 468 31 703v0c0 3 0 5 0 8 0 79-5 152-5 225 0 93 8 186 45 287 30 82 68 165 120 239 52 73 118 137 204 178 57 27 117 41 175 54 59 13 116 24 169 43 104 37 195 107 261 196 66 89 106 197 111 307 0 7 0 15 0 22 0 84-18 168-42 254-23 85-52 171-72 260-17 76-26 155-26 234 0 109 17 217 55 317 38 99 97 190 179 261l36-42z"/><path class="fil45" d="M13636 7221c131-68 278-1e2 425-107 147-6 295 13 439 45 288 64 559 211 768 421 210 209 357 485 399 781 20 148 13 296 16 442 3 145 14 293 75 422 61 129 167 233 284 317 117 85 248 153 373 231 62 39 128 79 174 144 46 66 56 146 57 220 1 75-9 150-28 223-19 73-53 140-81 207-28 67-47 136-39 207 6 71 30 140 61 206 62 132 139 258 202 391 63 133 112 275 123 423 13 147-6 296-54 435 45-140 60-289 44-434-14-146-66-285-131-415-65-131-142-256-208-389-32-67-58-138-66-214-9-76 10-154 39-222 28-69 60-134 77-204 18-69 27-141 26-213-1-71-12-144-51-2e2-40-56-102-95-164-133-124-76-256-144-377-231-120-86-232-194-298-332-64-139-74-292-77-439-2-147 5-294-14-438-39-288-182-556-384-764-203-209-466-356-751-424-142-36-287-58-434-55-146 3-293 32-425 96z"/><path class="fil2" d="M16069 20596h-3922c-328 0-594-266-594-594v-12c0-328 266-594 594-594h3922c328 0 594 266 594 594v12c0 328-266 594-594 594z"/><path class="fil4" d="M13751 21620h652V18539h-652z"/><path class="fil22" d="M16107 18886h-3999c-307 0-557-249-557-557v-3761c0-1412 1145-2556 2556-2556v0c1412 0 2556 1145 2556 2556v3761c0 307-249 557-557 557z"/><path class="fil46" d="M14748 21116H13376l-913-520h3227z"/><path class="fil46" d="M13733 23251h658V21578h-658z"/><path class="fil4" d="M14748 21116H13376l-913-520h3227z"/><path class="fil4" d="M13733 22788h658V21116h-658z"/><path class="fil26" d="M13567 23692h989V22019h-989z"/><path class="fil26" d="M15528 24913h-280c0-596-391-1081-872-1081h-2118c-481 0-872 485-872 1081h-281c0-751 517-1362 1152-1362h2118c635 0 1152 611 1152 1362z"/><path class="fil26" d="M17119 24913h-281c0-596-391-1081-872-1081h-2118c-481 0-872 485-872 1081h-281c0-751 517-1362 1152-1362h2118c635 0 1152 611 1152 1362z"/><path class="fil4" d="M11656 26053h-11c-311 0-564-252-564-564v-575h575c311 0 564 253 564 564v11c0 311-252 564-564 564z"/><path class="fil4" d="M13252 26053h-11c-311 0-564-252-564-564v-575h575c311 0 564 253 564 564v11c0 311-252 564-564 564z"/><path class="fil4" d="M15804 26053h-11c-312 0-564-252-564-564v-575h575c312 0 564 253 564 564v11c0 311-253 564-564 564z"/><path class="fil4" d="M17388 26053h-11c-311 0-564-252-564-564v-575h575c311 0 564 253 564 564v11c0 311-253 564-564 564z"/></g></svg>