<?xml version="1.0" encoding="utf-8"?>
<svg viewBox="-10.585 0.003 472.001 374.584" xmlns="http://www.w3.org/2000/svg">
  <defs>
    <clipPath id="clipPath30" clipPathUnits="userSpaceOnUse">
      <path id="path28" d="m 2306.96,1201.35 c 24.94,91.09 37.88,184.29 -18.66,246.34 -25.52,28.02 -71.01,47.53 -108.23,61.4 -72.61,27.07 -146.84,63.45 -224.56,75.24 -81.94,12.44 -173.07,20.1 -254.74,2.32 -51.87,-11.3 -100.41,-32.21 -146.78,-54.76 -62.26,-30.27 -106.61,-50.62 -126.59,-112.89 -22.16,-69.08 -35.61,-140.03 -43.11,-211.37 -21.96,-208.79 7.1,-418.11 6.4,-627.009 -0.07,-20.531 0.24,-41.883 10.67,-60.351 20.56,-36.399 76.42,-36.911 116.66,-36.848 132.64,0.199 265.27,0.398 397.91,0.598 55.19,0.082 97.35,-5.75 149.16,-14.93 43.6,-7.731 81.03,11.25 101.95,46.23 19.8,33.121 21.31,71.801 23.43,109.008 8.25,144.801 32.07,288.942 71.06,429.962 11.03,39.94 30.39,92.16 45.43,147.06"/>
    </clipPath>
    <clipPath id="clipPath46" clipPathUnits="userSpaceOnUse">
      <path id="path44" d="M 0,0 H 3418 V 2935 H 0 Z"/>
    </clipPath>
    <clipPath id="clipPath52" clipPathUnits="userSpaceOnUse">
      <path id="path50" d="m 2601.73,37.2617 c 289.78,51.2071 564.74,170.1293 732.48,423.9573 119.28,180.511 116.98,414.972 -39.3,574.581 -121.92,124.5 -175.56,312.39 -117.98,480.02 35.19,102.49 106.06,190.62 135.37,294.96 60.51,215.4 -73.2,443.16 -248.96,581.61 -73.02,57.54 -154.63,105.43 -243.5,132.72 -123.51,37.93 -253.93,34.64 -384.39,31.34 -128.48,-3.25 -257,-6.49 -379,29.64 -188.62,55.87 -343.48,201.09 -535.67,243.08 -147.69,32.27 -307.3,-2.17 -432.76,-86.52 C 962.559,2658.31 871.512,2526.3 830.008,2380.93 791.559,2246.22 792.762,2098.27 724.559,1975.9 633.613,1812.73 454.84,1755.82 303.086,1667.48 232.434,1626.35 164.539,1577.6 115.117,1512.47 80.4023,1466.74 55.6641,1413.95 38.5156,1359.15 -38.4922,1113.09 1.1875,804.582 146.742,593.5 355.363,290.961 661.371,171 1008.17,100.922 1397.84,22.1719 1796.74,-10.75 2194.04,3.05859 2329.91,7.78906 2467.68,13.7188 2601.73,37.2617"/>
    </clipPath>
  </defs>
  <g transform="matrix(1.333333, 0, 0, -1.333333, 0, 391.293341)" id="g10">
    <g transform="scale(0.1)" id="g12">
      <path id="path14" style="fill-opacity: 1; fill-rule: nonzero; stroke: none; fill: rgb(235, 245, 255);" d="m 3372.13,528.93 c 78.55,168.468 60.14,366.582 -77.22,506.87 -121.92,124.5 -175.56,312.39 -117.98,480.02 35.19,102.49 106.06,190.62 135.37,294.96 60.51,215.4 -73.2,443.16 -248.96,581.61 -73.02,57.54 -154.63,105.43 -243.5,132.72 -123.51,37.93 -253.93,34.64 -384.39,31.34 -128.48,-3.25 -257,-6.49 -379,29.64 -188.62,55.87 -343.48,201.09 -535.67,243.08 -147.69,32.27 -307.3,-2.17 -432.76,-86.52 C 962.559,2658.31 871.512,2526.3 830.008,2380.93 791.559,2246.22 792.762,2098.27 724.559,1975.9 633.613,1812.73 454.84,1755.82 303.086,1667.48 232.434,1626.35 164.539,1577.6 115.117,1512.47 80.4023,1466.74 55.6641,1413.95 38.5156,1359.15 -38.4922,1113.09 1.1875,804.582 146.742,593.5 229.535,473.441 327.664,382.129 437.594,311.281 L 3372.13,528.93"/>
      <path id="path16" style="fill:#192c4a;fill-opacity:1;fill-rule:nonzero;stroke:none" d="m 2006.57,1780.02 c -25.02,-24.22 -54.04,-42.95 -88.49,-50.83 -65.61,-15 -127.24,13.88 -181.96,47.15 -58.48,35.55 -116.81,71.57 -171.98,112.16 -39.44,29.01 -79.82,59.85 -104.4,103.21 -28.5,50.27 -30.16,110.7 -24.35,166.82 3.98,38.33 -13.91,72.72 -21.78,109.26 -15.32,71.13 0.37,155.11 66.71,195.91 33.86,20.82 69.29,17.74 104.93,2.43 27.3,-11.74 52.77,-28.06 81.36,-36.18 60.87,-17.29 126.89,6.52 186.51,18.78 43.17,8.88 90.38,13.53 132.95,-0.71 47.4,-15.86 69.94,-50.53 95.82,-90.66 22.11,-34.3 55.67,-60.18 82.4,-90.7 35.81,-40.88 46.7,-92.57 34.64,-145.27 -17.69,-77.32 -62.16,-143.78 -100.78,-211.61 -24.69,-43.37 -53.52,-92.92 -91.58,-129.76"/>
      <path id="path18" style="fill-opacity: 1; fill-rule: nonzero; stroke: none; fill: rgb(245, 180, 0);" d="m 1518.25,1045.9 c 78.79,121.42 127.82,270.44 59.35,407.53 -6.94,13.9 -15.28,29.06 -30.02,33.96 -31.7,10.54 -74.69,-0.8 -102.25,-16.96 -95.61,-56.1 -154.11,-161.65 -207.82,-255.56 -55.8,-97.58 -104.25,-199.15 -160.33,-296.561 -22.71,-39.457 -45.65,-79.438 -57.83,-123.309 -10.67,-38.422 -11.84,-82.41 2.71,-120.012 62.95,-162.547 236.04,36.563 288.72,96.711 75.18,85.84 145.38,178.481 207.47,274.201"/>
      <path id="path20" style="fill:#151f2d;fill-opacity:1;fill-rule:nonzero;stroke:none" d="m 1910.91,1782.05 c -8.43,-9.01 -18.27,-16.58 -29.4,-22.1 -28.72,-14.23 -63.12,-13.54 -93.76,-4.13 -30.63,9.41 -58.14,26.84 -84.31,45.33 -70.79,50.02 -158.36,116.21 -200.49,193.1 -25.98,47.39 -45.25,103.34 -20.39,155.08 21.35,44.44 64.74,77.28 114.39,81.96 4.06,0.38 8.34,0.55 12.01,-1.21 4.17,-1.99 6.85,-6.09 9.25,-10.03 17.91,-29.4 32.2,-61.42 54.09,-88.24 23.8,-29.17 53.26,-50.99 85.36,-70.47 51.9,-31.49 108.88,-54.72 157.7,-90.81 35.25,-26.06 36.18,-84.7 27.6,-125.4 -4.91,-23.3 -15.89,-45.81 -32.05,-63.08"/>
      <path id="path22" style="fill-opacity: 1; fill-rule: nonzero; stroke: none; fill: rgb(255, 201, 55);" d="m 2306.96,1201.35 c 24.94,91.09 37.88,184.29 -18.66,246.34 -25.52,28.02 -71.01,47.53 -108.23,61.4 -72.61,27.07 -146.84,63.45 -224.56,75.24 -81.94,12.43 -173.07,20.1 -254.74,2.32 -51.87,-11.3 -100.4,-32.21 -146.78,-54.76 -62.26,-30.27 -106.61,-50.62 -126.59,-112.89 -22.16,-69.08 -35.61,-140.03 -43.11,-211.37 -21.96,-208.79 7.1,-418.11 6.4,-627.009 -0.07,-20.531 0.24,-41.883 10.67,-60.351 20.56,-36.399 76.42,-36.911 116.66,-36.84 132.64,0.191 265.28,0.39 397.91,0.59 55.19,0.082 97.35,-5.75 149.16,-14.93 43.6,-7.731 81.03,11.25 101.95,46.23 19.8,33.121 21.31,71.801 23.43,109.008 8.25,144.801 32.07,288.942 71.06,429.962 11.03,39.94 30.39,92.16 45.43,147.06"/>
      <g id="g24">
        <g clip-path="url(#clipPath30)" id="g26">
          <path id="path32" style="fill-opacity: 1; fill-rule: nonzero; stroke: none; fill: rgb(245, 180, 0);" d="m 1986.06,1466.33 c 28.07,45.29 34.45,101.89 -2.32,145.52 -16.82,19.95 -46.56,22.19 -71.99,22.64 -50.07,0.9 -100.24,-4.2 -149,-15.14 -46.46,-10.42 -93.84,-28.08 -113.97,-73.07 -14.96,-33.43 -9.73,-72.1 9.96,-102.68 17.9,-27.78 47.58,-48.34 80.7,-55.9 53.48,-12.21 116.08,-10.57 167.11,9.98 31.96,12.86 60.64,38.2 79.51,68.65"/>
          <path id="path34" style="fill-opacity: 1; fill-rule: nonzero; stroke: none; fill: rgb(245, 180, 0);" d="m 1465.11,491 c 53.38,-25.16 111.74,-37.852 169.95,-47.59 162.91,-27.269 328.97,-32.941 493.96,-25.07 35.28,1.68 73.53,5.191 99.55,29.07 19.35,17.77 28.48,43.918 34.97,69.379 22.11,86.75 21.79,177.43 21.34,266.949 -0.36,69.84 -0.72,139.692 -1.07,209.532 -0.12,24.32 15.67,172.33 -22.17,170.65 -4.07,-0.18 -7.81,-2.29 -11.13,-4.66 -18.82,-13.46 -28.49,-36.01 -37.28,-57.4 -27.57,-67.1 -50.72,-174.501 -108.1,-221.469 -60.27,-49.332 -129.7,-72.313 -202.74,-95.961 -126.66,-41.02 -267.96,-58.84 -375.24,-143.289 -17.86,-14.071 -34.89,-29.661 -51.44,-45.27 -14.9,-14.062 -35.33,-28.601 -44.24,-48.25 -13.89,-30.621 7.91,-44.492 33.64,-56.621"/>
        </g>
      </g>
      <path id="path36" style="fill-opacity: 1; fill-rule: nonzero; stroke: none; fill: rgb(112, 184, 255);" d="m 1639.3,2354.22 c 53.52,-3.76 105.66,7.39 158.07,17.64 26.42,4.68 53.26,6.8 80.1,7.41 13.42,0.27 26.85,0.08 40.26,-0.57 13.33,-0.72 26.96,-1.47 40.47,-4.41 27.02,-5.81 52.42,-20.68 68.95,-43.79 8.3,-12.05 10.54,-26.8 11.29,-40.2 0.81,-13.52 0.28,-26.69 2.86,-39.2 3.99,-25.65 26.95,-43.16 39.04,-67.8 5.87,-12.5 8.18,-26.15 8.7,-39.54 0.57,-13.44 -0.64,-26.76 -2,-40.01 0.51,26.33 1.42,54.22 -11.08,77.36 -6.07,11.44 -14.92,21.29 -23.23,31.85 -8.29,10.41 -16.13,22.73 -18.94,36.5 -3.33,13.58 -3.14,27.3 -3.98,40.31 -0.88,12.95 -3.1,25.64 -10.24,35.69 -3.34,5.03 -7.8,9.61 -12.64,13.88 -4.78,4.25 -9.89,8.09 -15.31,11.42 -10.87,6.65 -22.99,11.06 -35.56,13.78 -12.53,2.88 -25.61,3.77 -38.84,4.63 -13.19,0.8 -26.41,1.14 -39.62,1.02 -26.45,-0.16 -52.83,-2.46 -79.07,-5.9 -26.09,-3.8 -52.57,-8.97 -79.19,-11.34 -26.66,-2.23 -53.62,-2.59 -80.04,1.27"/>
      <path id="path38" style="fill-opacity: 1; fill-rule: nonzero; stroke: none; fill: rgb(255, 201, 55);" d="m 2592.61,984.289 c 20.14,-36.328 40.16,-72.73 59.82,-109.348 39.89,-74.332 113.96,-239.48 -4.62,-280.281 -59.75,-20.558 -93.93,-0.461 -133.42,43.07 -149.41,164.668 -276.81,349.25 -377.77,547.3 -37.57,73.72 -137.35,265.81 -16.16,309.71 38.26,13.86 82.38,10.63 118.22,-8.65 16.38,-8.81 30.91,-20.69 44.81,-33.07 87.45,-78 149.74,-178.64 205.14,-280.71 34.25,-63.07 69.3,-125.46 103.98,-188.021"/>
      <g id="g40">
        <g clip-path="url(#clipPath46)" id="g42">
          <g clip-path="url(#clipPath52)" id="g48">
            <path id="path54" style="fill-opacity: 1; fill-rule: nonzero; stroke: none; fill: rgb(153, 194, 234);" d="M 2117.01,125.301 -79.3867,303.969 v 192.5 L 3460.62,591.141 V 496.469 L 2117.01,125.301"/>
            <path id="path56" style="fill-opacity: 1; fill-rule: nonzero; stroke: none; fill: rgb(103, 163, 224);" d="m 2117.28,268.941 -2196.6667,129.7 v 192.5 H 3460.62 l -1343.34,-322.2"/>
          </g>
        </g>
      </g>
      <path id="path58" style="fill-opacity: 1; fill-rule: nonzero; stroke: none; fill: rgb(255, 201, 55);" d="m 1988.44,717.691 c 10.44,1.758 20.89,3.457 31.36,5.09 50.91,7.891 101.62,17.25 152.04,28.051 99.85,21.387 200.29,39.789 301.93,49.367 10.78,1.012 21.55,1.93 32.34,2.742 45.56,3.438 93.3,4.618 134.96,-16.601 41.67,-21.231 74.74,-71.559 64.48,-120.16 -7.22,-34.141 -33.95,-59.86 -63.63,-72.871 -29.68,-12.989 -62.34,-15.297 -94.37,-17.457 -103.76,-7.012 -207.52,-14.012 -311.28,-21.024 -51.38,-3.437 -102.75,-7 -154.11,-10.566 -49.06,-3.422 -98.86,-10.282 -148.05,-10.313 -20.81,-0.019 -44.02,3.762 -61.48,17.301 -24.27,18.828 -38.83,58.98 -41.13,90.359 -1.19,16.301 2.1,36.102 14.89,46.2 6.84,5.421 15.53,7.082 23.9,8.601 39.44,7.168 78.69,14.629 118.15,21.281"/>
      <path id="path60" style="fill-opacity: 1; fill-rule: nonzero; stroke: none; fill: rgb(187, 214, 241);" d="m 1050.29,687.461 561.59,-43.609 -519.51,-73.75 z"/>
      <path id="path62" style="fill-opacity: 1; fill-rule: nonzero; stroke: none; fill: rgb(38, 112, 186);" d="m 1611.88,643.852 -519.51,-73.75 -1.25,-58.75 520.76,79.789 v 52.711"/>
      <path id="path64" style="fill-opacity: 1; fill-rule: nonzero; stroke: none; fill: rgb(38, 112, 186);" d="m 1152.64,594.461 -151.85,665.059 c -3.907,17.48 -18.56,30.75 -34.966,31.65 l -795.992,43.94 c -11.523,0.64 -21.383,-4.74 -27.555,-13.18 l -0.105,0.11 -36.77,-43.02 32.692,5.55 123.027,-633.121 c 3.399,-17.07 18.102,-30.371 35.082,-31.75 l 823.717,-66.64 c 22.37,-1.809 38.14,18.152 32.72,41.402"/>
      <path id="path66" style="fill:#192c4a;fill-opacity:1;fill-rule:nonzero;stroke:none" d="m 258.887,577.961 825.463,-68.082 c 22.42,-1.859 38.26,18.051 32.87,41.269 L 966.25,1215.5 c -3.883,17.46 -18.547,30.73 -34.992,31.67 l -797.742,45.38 C 111.852,1293.78 95.5742,1274.24 99.7539,1252 L 223.777,609.719 c 3.375,-17.047 18.086,-30.36 35.11,-31.758"/>
      <path id="path68" style="fill-opacity: 1; fill-rule: nonzero; stroke: none; fill: rgb(38, 112, 186);" d="m 511.176,929.91 c 8.351,-43.871 49.234,-81.91 91.285,-84.949 42.051,-3.031 68.605,30.34 59.344,74.508 -9.227,44.14 -50.039,82.121 -91.176,84.861 -41.145,2.74 -67.774,-30.568 -59.453,-74.42"/>
      <path id="path70" style="fill:#f7916b;fill-opacity:1;fill-rule:nonzero;stroke:none" d="m 1871.01,562.859 c -24.52,-5.058 -43.69,-26.597 -68.1,-33.808 -17.42,-5.153 -36.07,-2.403 -52.8,3.879 -15.39,5.769 -31.05,8.859 -46.85,13.922 -12.31,3.937 -28.94,12.25 -42.17,9.5 -34.67,-7.223 -69.25,-31.891 -100.67,-47.922 -7.07,-3.602 -14.81,-7.301 -22.6,-5.828 -7.8,1.476 -14.29,10.929 -9.86,17.5 -9.04,-8.442 -21.01,-25.34 -35.6,-18.782 -5.96,2.68 -9.56,10.578 -6.26,16.219 -5.01,-5.5 -10.28,-11.18 -17.19,-13.91 -6.93,-2.731 -16.01,-1.539 -20.08,4.68 -1.92,2.929 -2.5,6.543 -2.67,10.031 -0.6,12.039 3.03,23.93 8.05,34.879 24.75,54.019 80.73,94.09 128.36,126.281 8.42,5.691 17,11.461 26.73,14.43 8.7,2.66 17.93,2.949 27.03,2.992 59.06,0.269 118.17,-9.281 174.14,-28.133 12.11,-4.09 25.44,-0.609 37.52,1.652 8.94,1.68 18.28,3.34 27.01,0.789 9.77,-2.859 17.34,-10.601 23.3,-18.851 10.94,-15.188 19.3,-35.289 18,-54.367 -0.99,-14.481 -2.09,-30.102 -19.14,-33.141 -6.9,-1.23 -14.01,-0.473 -20.99,-1.199 -1.75,-0.184 -3.47,-0.453 -5.16,-0.813"/>
      <path id="path72" style="fill:#f7916b;fill-opacity:1;fill-rule:nonzero;stroke:none" d="M 1920.965 1436.4 C 1957.055 1447.98 1986.775 1470.41 1997.905 1506.06 C 2008.015 1538.43 1992.085 1574.83 1989.245 1607.48 C 1986.525 1638.78 1986.165 1670.25 1988.225 1701.59 C 1990.125 1730.56 1992.895 1760.73 1988.445 1789.61 C 1985.915 1806.12 1976.855 1803.29 1960.155 1809.85 C 1943.465 1816.4 1924.735 1816.47 1906.585 1816.42 C 1869.445 1816.34 1772.615 1819.03 1749.655 1786.43 C 1739.115 1771.47 1738.285 1752.64 1737.785 1734.83 C 1737.185 1713.31 1733.375 1685.46 1729.855 1655.46 C 1728.285 1642.09 1729.245 1628.78 1727.205 1615.51 C 1724.915 1600.66 1719.265 1586.42 1714.325 1572.18 C 1695.645 1518.36 1713.145 1467.18 1771.335 1442.54 C 1813.105 1424.86 1872.725 1420.92 1920.965 1436.4"/>
      <path id="path74" style="fill:#e5624f;fill-opacity:1;fill-rule:nonzero;stroke:none" d="m 1948.77,1789.61 c -2.53,16.51 -11.59,13.68 -28.29,20.24 -16.68,6.55 -35.42,6.62 -53.56,6.57 -37.15,-0.08 -133.98,2.61 -156.94,-29.99 -10.53,-14.96 -11.36,-33.79 -11.87,-51.6 -0.6,-21.51 -4.41,-49.37 -7.93,-79.37 -1.57,-13.37 -0.6,-26.68 -2.65,-39.95 -1.74,-11.31 -5.43,-22.26 -9.27,-33.12 36.01,-13.38 76.68,-16.36 114.24,-7.11 67.67,16.66 118.91,58.77 155.46,113.54 0.19,4.25 0.32,8.51 0.59,12.77 1.91,28.97 4.68,59.14 0.22,88.02"/>
      <path id="path76" style="fill:#f7916b;fill-opacity:1;fill-rule:nonzero;stroke:none" d="m 2002.7,2001.67 c -0.3,49.6 -7.14,96.66 -19.9,135.72 -55.07,168.58 -265.35,210.23 -391.99,89.22 -141.21,-134.94 -87.17,-457.58 61.57,-570.92 39.77,-30.31 93.82,-40.96 142.11,-28 146.14,39.19 209.13,219.03 208.21,373.98"/>
      <path id="path78" style="fill:#e5624f;fill-opacity:1;fill-rule:nonzero;stroke:none" d="m 1982.8,2137.39 c -55.07,168.58 -265.35,210.22 -391.99,89.22 -16,-15.29 -29.37,-33.08 -40.5,-52.61 7.45,-6.36 15.3,-11.8 22.21,-15.96 53.35,-32.07 111.37,-56.36 171.65,-71.86 25.93,-6.67 53.22,-12.15 74.47,-28.43 12.18,-9.35 21.37,-21.44 28.8,-34.85 8.93,-16.12 15.3,-34.15 21.29,-51.61 13.11,-38.28 18.89,-78.53 24.2,-118.48 0.55,-4.15 1.27,-8.64 4.32,-11.51 2.89,-2.72 7.2,-3.28 11.18,-3.18 23.32,0.6 34.56,22.96 52.72,34.8 10.93,7.13 21.84,14.4 32.22,22.3 6.48,35.49 9.53,71.6 9.33,106.45 -0.3,49.61 -7.14,96.66 -19.9,135.72"/>
      <path id="path80" style="fill:#192c4a;fill-opacity:1;fill-rule:nonzero;stroke:none" d="m 1871.22,2029.43 c 6.77,-17.14 10.76,-35.84 14.43,-53.93 8.05,-39.67 8.55,-80.32 8.65,-120.62 0.01,-4.18 0.14,-8.74 2.79,-11.97 2.52,-3.08 6.72,-4.19 10.67,-4.6 23.21,-2.43 37.25,18.28 56.79,27.67 20.27,9.74 40.72,19.59 58.42,33.47 50.42,39.51 38.89,104.7 37.3,162.66 -0.88,31.85 -1.82,64.15 -11.16,94.6 -10.18,33.24 -30.02,62.88 -53.65,88.37 -68.2,73.6 -171.12,111.85 -270.77,105.57 -49.34,-3.1 -105.01,-23.99 -140.16,-59.51 -30.32,-30.64 6.62,-72.26 31.6,-92.09 48.74,-38.71 103.13,-70.32 160.9,-93.5 24.84,-9.97 51.19,-18.94 70.15,-37.84 10.88,-10.84 18.42,-24.02 24.04,-38.28"/>
      <path id="path82" style="fill:#f7916b;fill-opacity:1;fill-rule:nonzero;stroke:none" d="m 1975.06,1997.51 c 64.7,35.37 84.61,-54.2 73.48,-98.78 -4.6,-18.41 -11.87,-36.37 -23.29,-51.52 -15.39,-20.4 -59.42,-54.24 -84.78,-31.92 -11.51,10.13 -12.69,27.33 -13.04,42.66 -0.96,41.09 3.78,115.58 47.63,139.56"/>
      <path id="path84" style="fill:#ffffff;fill-opacity:1;fill-rule:nonzero;stroke:none" d="m 2873,903.781 c 9.09,18.809 7.47,38.578 1.73,56.508 -5.51,18.332 -15.35,34.121 -26.02,51.371 -10.76,17.02 -21.75,35.57 -28.48,57.91 -6.84,22.58 -4.88,47.9 1.4,69.32 13.55,43.69 41.32,75.88 60.45,108.81 9.58,16.67 17.44,33.6 20.53,52.33 3.49,18.55 2.29,38.31 -6.82,56.94 15.8,-13.83 23.45,-36.24 24.49,-57.93 0.98,-21.93 -4.54,-44.18 -12.95,-63.74 -16.61,-39.66 -41.5,-71.87 -51.18,-106.69 -5.5,-17.24 -6.85,-33.93 -2.95,-50.65 3.26,-17.14 12.22,-34.44 20.28,-53.19 8.56,-18.32 16.74,-39.481 18.56,-61.25 1.84,-21.45 -3.06,-45.692 -19.04,-59.739"/>
      <path id="path86" style="fill-opacity: 1; fill-rule: nonzero; stroke: none; fill: rgb(51, 153, 255);" d="m 2947.45,528.391 h -131.93 c -31.32,0 -56.7,25.379 -56.7,56.687 V 879.77 h 245.31 V 585.078 c 0,-31.308 -25.38,-56.687 -56.68,-56.687"/>
      <path id="path88" style="fill-opacity: 1; fill-rule: nonzero; stroke: none; fill: rgb(51, 153, 255);" d="m 3021.26,622.68 c -37.84,0 -68.52,31.14 -68.52,69.539 0,38.402 30.68,69.543 68.52,69.543 37.86,0 68.54,-31.141 68.54,-69.543 0,-38.399 -30.68,-69.539 -68.54,-69.539 z m 0,177.621 c -58.81,0 -106.5,-48.391 -106.5,-108.082 0,-59.688 47.69,-108.078 106.5,-108.078 58.83,0 106.52,48.39 106.52,108.078 0,59.691 -47.69,108.082 -106.52,108.082"/>
      <path id="path90" style="fill-opacity: 1; fill-rule: nonzero; stroke: none; fill: rgb(133, 194, 255);" d="m 2795.5,661.762 c -7.29,0 -13.26,5.968 -13.26,13.258 v 171.011 c 0,7.289 5.97,13.258 13.26,13.258 7.3,0 13.26,-5.969 13.26,-13.258 V 675.02 c 0,-7.29 -5.96,-13.258 -13.26,-13.258"/>
      <path id="path92" style="fill-opacity: 1; fill-rule: nonzero; stroke: none; fill: rgb(0, 112, 224);" d="M 2947.48,879.77 V 590.512 c 0,-34.313 -27.81,-62.121 -62.12,-62.121 h 56.66 c 34.3,0 62.11,27.808 62.11,62.121 V 879.77 h -56.65"/>
      <path id="path94" style="fill-opacity: 1; fill-rule: nonzero; stroke: none; fill: rgb(235, 245, 255);" d="m 399.445,1659.13 c 62.524,37.95 125.907,76.4 181.942,125.15 67.367,58.63 120.097,135.06 150.332,219.09 31.406,87.39 37.293,177.99 44.187,267.01 6.848,89.07 14.696,176.5 48.485,258.16 60.879,147.32 177.689,272.22 323.119,338.03 73,33.04 149.8,48.11 226.63,48.11 189.84,0.07 379.96,-92.38 509.14,-232.8 100.69,-109.33 244.85,-172.47 391.57,-183.72 20.77,-1.59 41.58,-2.3 62.4,-2.3 158.34,0.09 317.63,40.21 470.26,40.12 102.06,-0.03 200.78,-17.65 295.34,-76.22 129.76,-80.33 222.05,-223.59 250.66,-374.44 6.23,-32.78 9.77,-66.97 9.77,-101.13 0,-54.43 -9,-108.73 -30.24,-157.32 -34.14,-78.3 -94.03,-143.36 -146.53,-213.3 -61.06,-81.44 -102.01,-171.49 -102,-272.76 0,-14.52 0.84,-29.27 2.58,-44.23 l 19.87,2.31 c -1.65,14.2 -2.45,28.17 -2.45,41.92 0.01,95.7 38.56,181.4 98.01,260.77 51.54,68.88 112.77,134.91 148.84,217.28 22.59,51.72 31.91,108.72 31.92,165.33 0,35.54 -3.68,70.94 -10.12,104.86 -29.73,156.2 -124.65,303.89 -259.77,387.71 -98.43,61.03 -201.61,79.25 -305.88,79.22 -156.04,-0.1 -315.28,-40.21 -470.26,-40.12 -20.37,0 -40.67,0.69 -60.88,2.24 -142.08,10.86 -281.64,72.19 -378.38,177.33 -132.84,144.23 -327.48,239.18 -523.85,239.25 v 0 c -79.44,0 -159.15,-15.61 -234.88,-49.89 -150.405,-68.13 -270.518,-196.69 -333.35,-348.61 -35.273,-85.39 -43.039,-175.11 -49.941,-264.26 -6.86,-89.2 -12.86,-177.88 -43.071,-261.78 -29.011,-80.69 -79.855,-154.41 -144.64,-210.77 -54.305,-47.27 -116.656,-85.21 -179.188,-123.14 l 10.375,-17.1"/>
      <path id="path96" style="fill:#192c4a;fill-opacity:1;fill-rule:nonzero;stroke:none" d="m 1461.39,2178.88 c -11.12,31.12 -26.47,59.53 -38.89,87.67 -12.44,28.15 -21.92,55.91 -21.91,85.8 0,16.12 2.74,32.92 9.35,50.92 18.19,49.52 64.44,81.71 117.05,82.52 l 2.12,0.01 c 24.09,0.01 48.13,-6.19 69.01,-18.15 12.71,-7.26 23.5,-17.08 35.2,-26.42 11.68,-9.3 24.39,-18.13 40.88,-22.57 11.18,-3.02 22.41,-4.32 33.6,-4.32 32.33,0.02 64.29,10.76 95.46,22.63 31.16,11.9 61.61,24.97 90.4,30.3 11.89,2.21 23.92,3.34 35.83,3.34 27.61,0 54.57,-6.06 77.88,-18.57 23.31,-12.52 43.02,-31.45 56.39,-57.52 12.91,-24.96 18.5,-55.19 36.79,-79.77 15.37,-20.46 37.39,-33.7 57.96,-47.19 20.64,-13.47 39.72,-27.08 50.47,-47.1 6.59,-12.24 9.45,-25.48 9.45,-39.51 0.05,-30.49 -13.8,-64.59 -31.89,-96.36 -18.07,-31.79 -40.21,-61.23 -56.23,-83.07 l 8.06,-5.91 c 15.97,21.77 38.38,51.53 56.86,84.04 18.45,32.53 33.16,67.81 33.2,101.3 0.01,15.38 -3.17,30.4 -10.65,44.25 -12.29,22.73 -33.07,37.14 -53.8,50.73 -20.81,13.57 -41.68,26.41 -55.43,44.82 -16.59,21.96 -22.27,51.53 -35.89,78.34 -14.29,27.89 -35.61,48.38 -60.56,61.76 -24.97,13.4 -53.55,19.76 -82.61,19.76 -12.54,0 -25.17,-1.18 -37.66,-3.5 -30.38,-5.67 -61.21,-19.02 -92.13,-30.8 -30.91,-11.8 -61.83,-21.99 -91.9,-21.97 -10.42,0 -20.74,1.21 -31,3.97 -14.47,3.9 -25.89,11.7 -37.25,20.75 -11.35,9.02 -22.52,19.28 -36.46,27.27 -22.46,12.86 -48.18,19.47 -73.98,19.47 l -2.27,-0.01 c -56.63,-0.84 -106.69,-35.65 -126.29,-89.07 -7,-19.06 -9.96,-37.11 -9.96,-54.37 0.01,-32.06 10.13,-61.22 22.77,-89.84 12.65,-28.62 27.85,-56.81 38.61,-86.99 l 9.42,3.36"/>
    </g>
  </g>
</svg>