<svg viewBox="5616.037 3517.675 19088.836 12785" xmlns="http://www.w3.org/2000/svg"><defs><style>.fil16{fill:#00a3d5;fill-rule:nonzero}.fil5{fill:#061f33;fill-rule:nonzero}.fil4{fill:#0b2d4e;fill-rule:nonzero}.fil38{fill:#204f89;fill-rule:nonzero}.fil29{fill:#26a8d1;fill-rule:nonzero}.fil25{fill:#321c6e;fill-rule:nonzero}.fil37{fill:#361f71;fill-rule:nonzero}.fil24{fill:#381f7a;fill-rule:nonzero}.fil36{fill:#3ab7d4;fill-rule:nonzero}.fil28{fill:#3dc8e8;fill-rule:nonzero}.fil22{fill:#51666f;fill-rule:nonzero}.fil15{fill:#675bc3;fill-rule:nonzero}.fil17{fill:#6dc9f0;fill-rule:nonzero}.fil0{fill:#7091ef;fill-rule:nonzero}.fil13{fill:#0052a3;fill-rule:nonzero}.fil9{fill:#73b8d4;fill-rule:nonzero}.fil33{fill:#7768dd;fill-rule:nonzero}.fil7{fill:#0052a3;fill-rule:nonzero}.fil35{fill:#33ff92;fill-rule:nonzero}.fil14{fill:#005cb8;fill-rule:nonzero}.fil8{fill:#06c;fill-rule:nonzero}.fil11{fill:#85c2ff;fill-rule:nonzero}.fil23{fill:#d8584e;fill-rule:nonzero}.fil31{fill:#daa225;fill-rule:nonzero}.fil3{fill:#add6ff;fill-rule:nonzero}.fil12{fill:#dcdce4;fill-rule:nonzero}.fil32{fill:#dfdbda;fill-rule:nonzero}.fil30{fill:#e0dfe7;fill-rule:nonzero}.fil10{fill:#e5785c;fill-rule:nonzero}.fil34{fill:#e9e8e8;fill-rule:nonzero}.fil27{fill:#efb126;fill-rule:nonzero}.fil2{fill:#f5f5fe;fill-rule:nonzero}.fil6{fill:#f8a17a;fill-rule:nonzero}.fil21{fill:#f8f8fe;fill-rule:nonzero}.fil18{fill:#ffc73c;fill-rule:nonzero}.fil26{fill:#ffd263;fill-rule:nonzero}.fil19{fill:#ffd877;fill-rule:nonzero}.fil20{fill:#ffe9cc;fill-rule:nonzero}.fil1{fill:#fff;fill-rule:nonzero}</style></defs><g id="Layer_x0020_1" transform="matrix(1, 0, 0, 1, -12209.963073, -2533.324501)"><g style="visibility:hidden"><path class="fil3" d="M30658 6051h-680c-289 0-525 236-525 525 0 179 90 337 228 432v370l378-277h599c289 0 525-236 525-525 0-289-236-525-525-525z"/><path class="fil1" d="M30017 6576c0 44-36 80-80 80-44 0-80-36-80-80 0-44 36-80 80-80 44 0 80 36 80 80z"/><path class="fil1" d="M30398 6576c0 44-36 80-80 80-44 0-80-36-80-80 0-44 36-80 80-80 44 0 80 36 80 80z"/><path class="fil1" d="M30779 6576c0 44-36 80-80 80-44 0-80-36-80-80 0-44 36-80 80-80 44 0 80 36 80 80z"/><path class="fil3" d="M28812 8151c-105-179-369-269-625 29-256-299-520-209-625-29-258 442 625 962 625 962 0 0 884-520 625-962z"/><path class="fil3" d="M25598 7410H24365c-92 0-167-75-167-167V6531c0-92 75-167 167-167h1233c92 0 167 75 167 167v712c0 92-75 167-167 167z"/><path class="fil1" d="M24203 6418l686 665c25 24 59 36 91 36 33 0 66-12 92-36l686-665-39-40-686 665c-14 14-33 21-53 21-20 0-39-7-53-21l-686-665-39 40z"/><path class="fil1" d="M24240 7398l562-432-33-44-563 432z"/><path class="fil1" d="M25756 7354l-563-432-34 44 563 432z"/><path class="fil3" d="M21572 9208H20095c-92 0-167-75-167-167V8117c0-92 75-167 167-167h1477c92 0 167 75 167 167v924c0 92-75 167-167 167z"/></g><g style="visibility:hidden"><path class="fil3" d="M20833 9605l318-428h-635z"/><path class="fil1" d="M20918 8389c-51-88-181-132-306 14-125-147-255-102-307-14-127 217 307 472 307 472 0 0 433-255 306-472z"/></g><g style="visibility:hidden"><path class="fil1" d="M21309 8741h-78V8527l1-35 1-39c-13 13-22 22-27 26l-42 34-38-47 119-95h64v370z"/><path class="fil3" d="M33809 9171H32332c-92 0-166-75-166-167V8080c0-92 75-167 166-167h1477c92 0 167 75 167 167v924c0 92-75 167-167 167z"/><path class="fil3" d="M33070 9568l318-428h-635z"/></g><path class="fil1" d="M33546 8704h-78v-214l1-35 1-39c-13 13-22 22-27 26l-42 34-38-47 119-95h64v370z" style="visibility:hidden"/><path class="fil1" d="M32966 8321h-257c-109 0-199 89-199 199 0 68 34 127 86 163v140l143-105h226c109 0 199-89 199-199 0-109-89-199-199-199z" style="visibility:hidden"/><path class="fil4" d="M29778 15643c-373 152-843 106-1172-128-331-235-634-408-1054-421-261-8-506 101-754 164-219 55-386 230-621 263-310 42-628-148-767-428-139-280-109-628 47-899 114-198 218-346 90-566-28-48-63-93-82-145-18-49-21-103-19-155 12-286 228-5e2 372-736 34-55 68-112 78-176 26-162-103-303-172-452-223-484 158-1035 528-1326 218-171 480-241 716-380 107-64 205-142 314-204 189-107 396-112 606-82 599 84 1280 519 1419 1146 94 425-60 919 361 1216 127 90 287 143 373 272 184 274-86 680 82 964 37 63 93 113 144 166 269 280 408 680 370 1067-9 94-29 189-76 272-64 113-172 193-278 269-158 113-320 225-5e2 299-2 1-4 1-5 2z"/><path class="fil4" d="M30339 14036c-64-55-110-126-140-205-30-79-44-167-44-255 0-65 7-129 21-191 16-73 41-147 62-222 21-75 38-153 38-233 0-7 0-14-1-21-4-107-43-209-106-294-62-85-149-152-250-188-51-18-103-28-153-39-50-11-97-23-140-43-65-31-116-79-157-137-41-58-72-126-97-195-29-80-36-153-36-230 0-61 4-125 4-195 0-2 0-5 0-7v0c-1-204-6-409-27-613-12-121-55-241-114-352-59-111-136-212-218-298-24-25-48-48-74-71-136-122-311-221-502-289-191-69-399-107-602-107-229 0-451 49-635 162-52 32-93 69-132 109-38 39-73 80-111 119-76 78-177 143-272 203-192 120-399 216-604 317-131 65-267 136-368 251-116 133-169 310-169 483 0 8 0 17 0 25 5 181 65 356 146 515 58 112 126 216 160 330 10 33 15 66 15 98 0 70-22 139-59 202-37 63-88 121-144 170-53 46-112 92-165 143-53 51-102 108-134 178-25 54-37 113-37 172 0 69 16 137 49 198 28 52 66 96 102 139 36 43 70 84 92 130 22 45 34 96 34 147 0 48-10 96-30 139-23 50-60 101-93 154-17 27-32 54-43 82-12 28-19 59-19 90 0 20 3 41 10 61l53-17c-5-15-7-29-7-44 0-23 5-46 15-70 14-36 38-73 63-112 25-39 52-79 72-121 24-51 35-107 35-162 0-59-13-118-39-171-27-54-64-98-1e2-141-36-43-71-84-96-130-28-52-42-112-42-172 0-51 11-102 32-149 27-61 71-112 122-161 51-48 109-93 163-141 60-52 115-114 156-184 41-70 67-148 67-230 0-38-5-76-17-115-38-124-108-231-164-339-79-154-135-321-140-491 0-8 0-16 0-23 0-163 50-327 155-447 91-105 220-173 351-238 204-101 413-197 609-320 96-60 2e2-127 283-211 40-41 75-82 111-119 37-37 75-72 121-1e2 172-106 385-154 606-154 195 0 397 37 583 104 185 67 354 163 484 279 24 22 48 44 70 68 79 82 152 180 209 286 57 106 96 219 108 331 20 201 26 404 26 607v0c0 2 0 5 0 7 0 68-4 131-4 195 0 80 7 161 39 249 26 71 59 144 104 207 45 64 103 119 178 155 50 24 101 36 152 47 51 11 1e2 21 146 37 89 31 167 92 224 169 57 77 91 169 95 263 0 6 0 13 0 19 0 73-16 145-36 218-20 73-45 148-62 225-15 66-23 135-23 203 0 94 15 189 48 275 33 87 84 165 156 227l36-42z"/><path class="fil5" d="M28988 13782c23 155 6 314-62 456-183 382-637 456-1020 471-142 6-284-2-424-22-125-19-236 0-363-3-250-6-498-79-709-213-103-65-199-147-252-257-72-151-51-329-13-491 22-94 50-188 98-271 52-89 126-165 169-259 81-176 14-383 86-556 56-135 198-288 315-373 160-115 366-152 562-138 197 13 387 73 574 134 147 48 274 18 382 140 86 97 56 254 83 371 92 393 512 601 573 1013z"/><path class="fil6" d="M25828 17438c-433-101-841-293-1280-365-278-46-786-117-933 190-74 154-40 346 66 477 237 295 731 373 1078 447 554 118 1116 141 1681 124 159-5 326-16 463-98 137-82 230-259 167-405-97-223-454-219-657-253-196-32-390-71-583-116z"/><path class="fil7" d="M26325 15513c-324 376-676 729-1017 1090-70 74-141 149-208 226-34 38-73 77-101 120-23 35-73 105-117 203-406-121-879-32-1269 110 45-305 166-492 201-570 171-387 450-712 714-1038 320-395 656-777 963-1182 250-330 670-7e2 1085-397 319 233 175 705 45 1002-69 159-178 3e2-296 436z"/><path class="fil6" d="M28908 17438c432-101 840-293 1280-365 278-46 786-117 934 190 74 154 39 346-66 477-237 295-731 373-1078 447-554 118-1116 141-1681 124-160-5-326-16-463-98-137-82-230-259-167-405 97-223 454-219 658-253 195-32 390-71 583-116z"/><path class="fil7" d="M28411 15513c324 376 676 729 1017 1090 70 74 141 149 208 226 34 38 73 77 101 120 23 35 73 105 116 203 406-121 880-32 1269 110-45-305-166-492-201-570-171-387-450-712-714-1038-320-395-656-777-963-1182-250-330-671-7e2-1085-397-319 233-175 705-45 1002 69 159 179 3e2 296 436z"/><path class="fil8" d="M28781 18564c163-145 9-568-18-727-52-303-70-634 32-928 148-423 329-756 340-1227 9-403-72-8e2-153-1193-80-389-116-502-497-561-136-21-270-58-405-82-230-41-463-59-696-60-3 0-6 0-9 0-3 0-6 0-9 0-233 0-466 19-696 59-135 24-269 61-405 82-381 59-417 172-497 561-81 393-162 790-153 1193 11 471 192 804 340 1227 157 449 38 908-82 1345-18 66-24 143 18 196 26 33 66 52 106 66 134 47 278 55 420 62 734 34 1470 34 2205 32 36 0 74 0 108-14 20-8 37-19 52-32z"/><path class="fil8" d="M28580 14010c5-16 14-36 23-59-35-9-74-16-118-23-136-21-270-58-405-82-230-41-463-59-696-60-2 0-3 0-5 0-2 0-3 0-5 0-1 0-2 0-3 0-2 0-4 0-7 0-233 0-466 19-696 59-135 24-269 61-405 82h-3c14 85 29 170 63 257 50 129 117 252 201 361 169 219 408 372 680 425 461 90 970-134 1204-542 75-131 122-276 169-420z"/><path class="fil6" d="M26838 14545c224 255 655 275 957 171 205-71 350-233 355-456 5-249-213-426-269-657-31-131-28-267-25-401 4-156 5-313 12-469-154-33-280-49-444-42-136 6-272-9-407-1-11 1-23 2-31 9-8 7-9 19-10 29-18 211 0 424-15 636-13 194-57 389-170 550-139 196-104 459 46 630z"/><path class="fil9" d="M27251 10473c113-59 240-87 367-92 128-6 255 11 379 39 249 55 483 182 664 364 182 180 309 419 345 675 18 128 11 256 14 382 2 125 12 253 64 365 53 111 144 202 245 274 102 74 214 132 323 199 53 34 111 69 151 125 40 57 48 127 49 190 1 65-7 130-24 192-16 63-46 121-70 179-25 58-40 118-34 179 5 61 26 121 53 178 54 114 120 223 175 338 55 115 97 238 106 366 11 127-5 256-47 376 39-121 52-250 38-375-12-126-57-246-114-359-56-113-123-221-180-336-28-58-50-119-57-185-8-66 9-133 34-192 24-60 52-116 66-176 16-60 24-122 23-184-1-62-10-124-45-173-34-49-88-82-141-115-108-66-221-124-326-199-104-74-201-168-258-287-55-121-64-253-66-380-2-128 5-254-12-378-34-249-157-481-332-660-175-180-403-308-649-366-122-31-248-50-375-47-126 2-253 28-368 84z"/><path class="fil10" d="M27872 13572c-24-122-22-247-19-371 4-156 5-313 12-469-155-33-280-49-444-42-136 6-271-9-407-1-11 1-23 2-30 9-8 7-9 19-10 29-18 211 0 424-15 636-4 60-12 121-23 181 21 19 43 37 65 53 168 124 394 165 594 108 102-29 194-75 276-133z"/><path class="fil6" d="M28445 11896c-4-207-36-402-91-565-240-699-1119-861-1639-349-581 571-336 1913 291 2376 168 124 393 165 594 108 607-172 859-926 846-1572z"/><path class="fil10" d="M28444 11289c-189-715-1054-939-1610-465-89 75-150 166-213 262-54 82-128 144-176 233-49 92-79 194-89 298-10 101 23 189 26 287-3-101 41-203 117-270 59-52 133-83 202-122 69-39 136-91 162-166 221 290 565 379 902 463 283 70 594 249 601 580 1 42 4 54 22 108 20-50 27-86 33-139 6-54 22-108 32-162 22-111 36-224 41-337 11-207-7-404-50-570z"/><path class="fil4" d="M28605 12517c56-43 99-105 123-171 76-222 67-468 58-706-5-133-11-267-47-394-39-138-115-261-204-366-256-303-639-457-1007-426-148 13-257 83-386 143-127 59-276 91-409 135-154 51-312 104-434 210-89 78-154 180-2e2 289-56 131-61 276-45 415 13 115 28 237 79 344 48 1e2 154 166 249 216-14-7-2-173-2-198-2-146 6-296 52-436 44-137 132-220 246-304 46-33 91-68 129-110 19-21 102-118 88-148 65 142 166 289 292 382 240 178 508 303 780 409 20 8 40 16 60 24 75 30 148 64 210 120 137 125 147 316 142 489-1 19-1 38 5 56 29 85 166 68 221 26z"/><path class="fil3" d="M36551 18836H18165c-187 0-339-145-339-323 0-179 152-323 339-323h18386c187 0 339 145 339 323 0 178-152 323-339 323z"/><path class="fil11" d="M29671 17898h-4565l-327-3399c-6-61 41-114 102-114h5016c60 0 107 53 102 114l-327 3399z"/><path class="fil1" d="M29707 17994h-4637l-332-3399c-6-61 42-114 103-114h5095c61 0 109 53 103 114l-332 3399z"/><path class="fil11" d="M25070 18201h4634v-207H25070z"/><path class="fil11" d="M27710 16238c0 178-144 322-322 322-178 0-322-144-322-322 0-177 144-322 322-322 177 0 322 144 322 322z"/><path class="fil8" d="M19685 17940l-119 28-1086-4557 119-28z"/><path class="fil8" d="M19955 18007l-120 28-1113-4674 119-28z"/><path class="fil8" d="M18852 13101l-83-91 2432-2201 82 91z"/><path class="fil8" d="M18922 13369l-82-91 2432-22e2 82 91z"/><path class="fil7" d="M19394 18185h2468v-191H19394z"/><path class="fil8" d="M21480 17612h-1703c-211 0-382 171-382 382h2468c0-211-171-382-382-382z"/><path class="fil8" d="M21333 11179l-61-107 731-421 61 106z"/><path class="fil7" d="M19105 13364l-173 241c-25 35-72 46-110 27l-364-186c-48-24-62-86-31-129l277-378c34-46 102-48 138-3l260 323c25 31 26 74 3 106z"/><path class="fil1" d="M18535 13359c0 22-18 40-40 40-22 0-40-18-40-40 0-22 18-40 40-40 22 0 40 18 40 40z"/><path class="fil1" d="M18907 13550c0 22-18 40-40 40-22 0-40-18-40-40 0-22 18-40 40-40 22 0 40 18 40 40z"/><path class="fil1" d="M19074 13310c0 22-18 40-40 40-22 0-40-18-40-40 0-22 18-40 40-40 22 0 40 18 40 40z"/><path class="fil7" d="M21067 10920l87 350c21 83 123 113 185 53l260-251c62-59 36-163-46-187l-347-1e2c-82-24-159 51-139 134z"/><path class="fil1" d="M21287 113e2c-12 18-37 24-55 12-18-12-24-37-12-55 12-18 37-24 55-12 18 12 24 37 12 55z"/><path class="fil1" d="M21176 10874c-12 18-37 24-55 12-18-12-24-37-12-55 12-18 37-24 55-12 18 12 24 37 12 55z"/><path class="fil1" d="M21606 11006c-12 18-37 24-55 12-18-12-24-37-12-55 12-18 37-24 55-12 18 12 24 37 12 55z"/><path class="fil1" d="M18817 12982c0 22-18 40-40 40-22 0-40-18-40-40 0-22 18-40 40-40 22 0 40 18 40 40z"/><path class="fil8" d="M22852 10901l-795 170-220-1030c-19-89 38-177 127-196l471-101c89-19 177 38 196 127l220 1030z"/><path class="fil7" d="M228e2 10646l-798 171-46-212 798-171z"/><path class="fil8" d="M23785 11423l-2282 489 5e2-1097 795-170z"/><path class="fil12" d="M22626 11674l-1-3 1160-248c-3 1-826 182-1159 251z"/><path class="fil13" d="M22412 10728v0l76-16z"/><path class="fil14" d="M22625 11671l-213-943 76-16 310-67 987 778v0z"/><path class="fil12" d="M22799 10645l-45-211h-2l-121-564c-15-70-72-120-138-129 68 7 126 57 141 127l166 776h-2z"/><path class="fil14" d="M22367 10517l-155-724 231-49c11-2 23-4 34-4 6 0 11 0 17 1 67 10 123 60 138 129l121 564-386 82z"/><path class="fil13" d="M22412 10728l-45-211 386-82 1-1 45 211h-1v0z"/><path class="fil15" d="M22412 10728v0l386-83-310 67z"/><path class="fil16" d="M21406 17412c-13 3-25-6-28-18l-40-193c-3-13 6-25 18-28 13-3 25 6 28 18l40 193c3 13-6 25-18 28z"/><path class="fil16" d="M21111 15994v0c-35 7-70-15-77-51l-48-231c-7-35 15-70 51-77 35-7 70 15 77 51l48 231c7 35-15 70-51 77z"/><path class="fil16" d="M21383 17301c-35 7-70-15-77-51l-48-231c-7-35 15-70 51-77 35-7 70 15 77 51l48 231c7 35-15 70-51 77z"/><path class="fil17" d="M21145 15799l-144 30c-36 8-59 43-52 79l123 588 153 585c9 34 43 56 78 48l85-18c35-7 58-41 52-76l-94-597-123-588c-8-36-43-59-79-52z"/><path class="fil16" d="M21330 16482l-226 47c-21 4-42-9-46-30-4-21 9-42 30-46l226-47c21-4 42 9 46 30 4 21-9 42-30 46z"/><path class="fil16" d="M21431 16382v0c-17 3-33-7-36-24l-116-555c-3-17 7-33 24-36 17-3 33 7 36 24l116 555c3 16-7 33-24 36z"/><path class="fil17" d="M21321 16001l-63 13-34-163 63-13z"/><path class="fil18" d="M21753 15448l-296-16-72 1407 296 16z"/><path class="fil19" d="M21611 16748h-154l68-1312 80 4 81 4-66 1286z" style="fill:#ffc937"/><path class="fil4" d="M21506 17319l175-464-301-16z"/><path class="fil20" d="M21598 17077l83-222-301-16 61 230z"/><path class="fil4" d="M21753 15448l-296-16 8-146 296 15z"/><path class="fil8" d="M21761 15307l-296-15c4-81 73-143 154-139h3c81 4 143 73 139 154v0z"/><path class="fil18" d="M21455 17088l269 124 590-1279-269-124z"/><path class="fil21" d="M22253 15905l-73-34z"/><path class="fil19" d="M21864 16748h-178l420-911 74 34 73 34z" style="fill:#ffc937"/><path class="fil4" d="M22380 15443l-335 366 274 126z"/><path class="fil20" d="M22205 15633l-160 176 274 126 29-236z"/><path class="fil22" d="M21455 17088l269 124-62 133-269-124z"/><path class="fil23" d="M21396 17216l269 124-50 108c-6 14-23 20-37 14l-219-101c-14-6-20-23-14-37l50-108z"/><path class="fil24" d="M21080 18187h897V16748h-897z"/><path class="fil25" d="M21080 18187h449V16748h-449z"/><path class="fil18" d="M23173 18191h-587c-161 0-292-131-292-292v-1385h1170v1385c0 161-131 292-292 292z" style="fill:#ffc937"/><path class="fil18" d="M23547 17741c-181 0-327-148-327-332 0-183 146-332 327-332 181 0 327 148 327 332 0 183-146 332-327 332zm0-847c-281 0-508 231-508 516 0 285 228 516 508 516 281 0 508-231 508-516 0-285-228-516-508-516z"/><path class="fil26" d="M22470 17554c-35 0-63-28-63-63v-816c0-35 28-63 63-63 35 0 63 28 63 63v816c0 35-28 63-63 63z"/><path class="fil27" d="M23195 16514v1380c0 164-133 296-296 296h270c164 0 296-133 296-296v-1380h-270z"/><path class="fil28" d="M34473 10934c-117-1-230-16-310-130-157-225-397-427-666-198-155 132-39 404-172 534-118 116-268 96-329 288-89 282 191 529 281 773 76 205-94 283-170 442-59 123-29 255 36 372 113 207 363 374 305 643-49 224-93 424 104 594 135 116 387 223 368 438-7 76-60 141-74 216-23 119 54 235 144 316 204 186 382 361 535 595 65 1e2 326 325 222 462 190-248 390-489 562-750 142-215 355-528 210-793-45-82-129-144-152-235-42-164 120-317 180-456 94-219 25-474-141-639-79-78-164-164-175-274-13-120 62-232 97-343 32-102 51-211 62-317 8-75 11-152-6-225-34-139-159-217-252-316-221-235-105-512-201-786-77-219-235-216-397-214-20 0-39 1-59 0z" style="fill:#33ff92"><title>Fern</title></path><g><title>Fern lines</title><path class="fil29" d="M34828 16172c5-130 8-260 8-389 0-686-75-1372-201-2046-166-885-384-1775-715-2616-81-205-169-407-265-605-21 6-43 14-65 26 97 198 185 4e2 265 605 329 835 546 1720 712 2603 126 670 2e2 1352 2e2 2033 0 123-2 245-7 368 13 41 14 81-5 115v2c25-32 49-64 74-96z" style="fill:#00cc5f"/><path class="fil29" d="M33013 11711c370 151 723 340 1053 565 53 36 93 59 130 84 36 25 69 50 110 94l51-48c-45-47-83-77-122-104-39-26-79-49-129-83-349-238-725-438-1117-593 6 29 15 57 26 85z" style="fill:#00cc5f"/><path class="fil29" d="M34569 13409c-448-290-957-486-1484-573l-4 22c3 17 8 34 13 50 510 87 1003 278 1437 559l37-58z" style="fill:#00cc5f"/><path class="fil29" d="M34749 14626c-386-335-850-578-1344-707-1 25 0 49 3 72 476 128 923 364 1296 687l45-53z" style="fill:#00cc5f"/><path class="fil29" d="M34343 12401c32-494 155-982 360-1431l-63-29c-209 458-334 954-367 1456l69 5z" style="fill:#00cc5f"/><path class="fil29" d="M34577 13412c196-419 474-8e2 814-1115-2-16-5-32-9-48-2-10-5-20-9-30-360 326-653 724-859 1164l63 29v0z" style="fill:#00cc5f"/><path class="fil29" d="M34788 14694c28-135 78-266 147-387 80-140 185-265 294-389 78-89 158-177 239-263l-51-47c-82 87-162 175-240 265-110 124-218 253-302 4e2-72 127-124 264-154 407l68 14z" style="fill:#00cc5f"/></g><path class="fil29" d="M35909 12649c85 16 169 20 243-52 145-142 347-255 511-52 94 117-28 298 51 411 70 1e2 181 107 199 255 25 217-212 358-311 522-83 138 29 218 62 344 26 97-14 189-77 265-110 135-315 221-310 424 4 169 9 320-158 416-114 66-311 108-327 267-6 56 24 111 24 167 0 89-72 163-148 210-174 107-327 209-470 357-61 63-282 191-225 304-103-206-215-409-304-622-73-175-185-433-42-604 44-53 114-86 143-149 53-113-43-246-67-356-38-172 47-347 191-444 68-46 141-96 165-174 26-85-13-177-23-262-9-78-8-160-2-239 5-55 13-112 36-162 44-96 145-135 226-194 193-140 147-357 255-542 97-166 229-116 360-92z" style="fill:#00cc5f"><title>Fern 2</title></path><g><title>Fern lines 2</title><path class="fil28" d="M34990 16374c89-579 254-1146 468-1693 242-617 522-1229 876-1788 87-137 178-271 276-401-19-16-39-28-59-37-97 130-189 264-275 401-357 565-638 1181-882 18e2-219 557-387 1136-476 1729 18 35 35 69 53 104-19-38-7-77 19-115z" style="fill:#33ff92"/><path class="fil28" d="M36895 13347c-309 59-612 152-9e2 277-41 18-72 29-105 43-33 14-66 31-105 59l41 56c36-25 62-39 91-52 30-13 62-24 106-43 267-116 546-204 831-262 17-25 31-52 41-79z" style="fill:#33ff92"/><path class="fil28" d="M35518 14487c336-136 698-207 1061-207 17 0 34 0 51 1 8-14 15-29 22-44l1-25c-24-1-49-1-73-1-372 0-743 72-1087 212l26 64z" style="fill:#33ff92"/><path class="fil28" d="M35227 15342c313-181 667-291 1028-318 8-23 13-46 16-71-378 25-751 138-1079 328l35 60z" style="fill:#33ff92"/><path class="fil28" d="M35860 13739c16-125 23-252 23-378 0-246-30-493-88-732l-68 17c57 234 86 475 86 715 0 124-8 247-23 370l69 9z" style="fill:#33ff92"/><path class="fil28" d="M35549 14418c-89-350-248-681-466-969-6 9-11 19-16 29-7 14-12 29-16 44 2e2 273 347 585 430 913l68-17v0z" style="fill:#33ff92"/><path class="fil28" d="M35220 15332c-2-108-21-217-56-319-41-119-102-228-164-334-45-76-91-151-138-226l-59 37c47 74 92 149 137 224 62 105 120 210 159 321 33 96 51 197 52 298l70-1z" style="fill:#33ff92"/></g><path class="fil27" d="M34090 16449h1735l-305 1736H34394z" style="fill:#f8ad2f"/><path class="fil18" d="M33877 16449h2160v-488H33877z" style="fill:#ffc937"/><path class="fil30" d="M35784 16679v0l40-230-40 230zm-1655-4v0zm-22-125v0l-18-101 18 101z"/><path class="fil31" d="M35784 16679H34441v-4h-312 385v-126h-407l-17-1e2h1735z"/><path class="fil8" d="M34335 18184h-2704c-225 0-407-142-407-317v-81c0-175 182-317 407-317h2704v98h-2517c-86 0-157 55-157 122v276c0 67 70 122 157 122h2517v97z"/><path class="fil7" d="M34648 18184h-2705c-225 0-407-142-407-317v-81c0-175 182-317 407-317h2705v98h-2705c-156 0-282 98-282 219v81c0 121 126 219 282 219h2705v97z"/><path class="fil1" d="M34575 18086h-2661c-143 0-260-116-260-260 0-144 116-260 260-260h2661v520z"/><path class="fil32" d="M318e2 17790c202-6 405-10 607-12 203-2 405-3 607-3 203 0 405 1 607 3 203 2 405 6 607 12-202 6-404 10-607 12-202 2-404 3-607 3-202 0-404-1-607-3-202-2-405-6-607-12z"/><path class="fil32" d="M32127 17951c203-6 405-10 607-12 202-2 405-3 607-3 202 0 405 1 607 3 202 2 405 6 607 12-202 6-405 10-607 12-202 2-405 3-607 3-202 0-405-1-607-3-202-2-404-6-607-12z"/><path class="fil31" d="M34575 17729h6v-163h-6z"/><path class="fil30" d="M31681 17710h-2c11-20 24-38 36-53 5-5 10-10 15-15-20 20-36 43-49 68z"/><path class="fil33" d="M31715 17657c63-76 141-91 199-91-72 0-137 29-184 77-5 5-10 10-15 15z"/><path class="fil34" d="M34575 17729l-2894-19c12-25 29-48 49-68 47-47 112-77 184-77h2661v163z"/><path class="fil24" d="M34514 17468h-2830c-155 0-282-126-282-282v-355c0-155 127-282 282-282h2830v125h-2830c-86 0-156 70-156 157v355c0 86 70 157 156 157h2830v125z"/><path class="fil1" d="M34441 17343h-2764c-87 0-157-70-157-157v-355c0-87 70-157 157-157h2764v668z"/><path class="fil34" d="M34441 16838l-2921-7c0-87 70-157 157-157h2764v164z"/><path class="fil32" d="M31906 16965c202-7 404-11 607-13 203-3 405-3 607-4 203 0 405 1 607 4 203 2 405 7 607 13-202 7-404 11-607 13-202 3-404 3-607 4-202 0-404-1-607-4-202-2-404-7-607-13z"/><path class="fil32" d="M31687 17109c203-7 405-11 607-13 203-3 405-3 607-4 203 0 405 1 607 4 203 2 405 7 607 13-202 7-404 11-607 13-202 3-404 3-607 4-202 0-404-1-607-4-202-2-404-7-607-13z"/><path class="fil35" d="M31850 16081h2705c225 0 407-142 407-317v-81c0-175-182-317-407-317h-2705v98h2516c87 0 157 55 157 122v276c0 67-70 122-157 122h-2516v98z" style="fill:#0052a3"/><path class="fil24" d="M31537 16081h2704c225 0 407-142 407-317v-81c0-175-182-317-407-317h-2704v98h2704c156 0 282 98 282 219v81c0 121-126 219-282 219h-2704v98z"/><path class="fil1" d="M31610 15983h2661c143 0 260-117 260-260 0-144-116-260-260-260h-2661v520z"/><path class="fil32" d="M34385 15687c-203-6-405-9-607-11-203-2-405-3-607-3-203 0-405 1-607 3-203 2-405 6-607 12 202 6 404 10 607 12 202 2 404 3 607 3 202 0 404-1 607-3 202-2 404-6 607-12z"/><path class="fil32" d="M34058 15848c-202-6-405-10-607-12-203-2-405-3-607-3-203 0-405 1-607 3-203 2-405 6-607 12 202 6 404 10 607 12 202 2 404 3 607 3 202 0 404-1 607-3 202-2 405-6 607-12z"/><path class="fil30" d="M31604 15627v-164h6v164z"/><path class="fil36" d="M34504 15608c-12-25-29-48-49-68 5 5 10 10 15 15 12 15 25 33 36 53h-2z"/><path class="fil37" d="M34470 15554c-5-5-10-10-15-15-47-47-112-76-184-76 59 0 136 15 199 91z"/><path class="fil34" d="M31610 15627v-163h2661v0c72 0 137 29 184 76 20 20 36 43 49 68l-2894 19z"/><path class="fil28" d="M31307 16564h3425v-483H31307z" style="fill:#5cadff"/><path class="fil18" d="M31616 16489h129v-334h-129z"/><path class="fil18" d="M31824 16564h364v-483h-364z"/><path class="fil35" d="M30994 14623h3425v-483H30994z" style="fill:#5cadff"/><path class="fil24" d="M33980 14623h129v-483h-129z"/><path class="fil24" d="M33703 14623h199v-483h-199z"/><path class="fil18" d="M31335 15372h3425v-749H31335z" style="fill:#ffc937"/><path class="fil29" d="M31644 15237h129v-498h-129z"/><path class="fil29" d="M34406 15237h129v-498h-129z" style="fill:#39f"/><path class="fil29" d="M34174 15237h129v-498h-129z"/><path class="fil29" d="M32392 14988c0 138-112 249-249 249-137 0-249-112-249-249 0-137 111-249 249-249 137 0 249 111 249 249z" style="fill:#39f"/><path class="fil18" d="M32258 16489h130v-334h-130z"/></g><g transform="matrix(1, 0, 0, 1, 3429.41802, -1444.013205)"><title>Obj1</title><path d="M11546 7703.51l10.5 49c-17 7.332999999999629-33.5 11-49.5 11C11491 7763.51 11477.833 7761.676 11467.5 7758.01 11457.167 7754.343 11449.417 7750.176 11444.25 7745.51 11439.083 7740.843 11435.167 7734.01 11432.5 7725.01 11429.833 7716.01 11428.25 7708.426 11427.75 7702.26c-.5-6.167000000000371-.75-14.75-.75-25.75v-269.5h70.5v273.5C11497.5 7690.176 11498.917 7697.01 11501.75 7701.01c2.8330000000005384 4 8.583000000000538 6 17.25 6C11527.667 7707.01 11536.667 7705.843 11546 7703.51zM11650.998 7495.01v262h-70v-256l70-6zm-76.5-76.5c0-11.333999999999833 4-21 12-29 8-8 17.66700000000128-12 29-12 11.333000000000538.0 21 4 29 12 8 8 12 17.58299999999963 12 28.75.0 11.166000000000167-4 20.916000000000167-12 29.25-8 8.332999999999629-17.66699999999946 12.5-29 12.5-11.33299999999872.0-21-4.083999999999833-29-12.25-8-8.167000000000371-12-17.91700000000037-12-29.25zM11767.496 7529.01C11776.163 7520.343 11788.079 7512.676 11803.246 7506.01c15.16700000000128-6.667000000000371 31.25-10 48.25-10 17 0 30.16700000000128 2.832999999999629 39.5 8.5C11900.329 7510.176 11907.829 7518.843 11913.496 7530.51 11922.496 7521.176 11934.746 7513.093 11950.246 7506.26 11965.746 7499.426 11981.329 7496.01 11996.996 7496.01 12025.663 7496.01 12045.079 7503.426 12055.246 7518.26 12065.413 7533.093 12070.496 7554.176 12070.496 7581.51v175.5h-70v-163c0-21.333999999999833-4.5-34-13.5-38-4.332999999998719-2-10.166999999999462-3-17.5-3-18.66699999999946.0-34.5 6.166000000000167-47.5 18.5C11922.329 7573.843 11922.496 7577.343 11922.496 7582.01v175h-70v-163c0-21.333999999999833-4.5-34-13.5-38-4.332999999998719-2-10.166999999999462-3-17.5-3-18.66699999999946.0-34.5 6.166000000000167-47.5 18.5v185.5h-70v-256.5h57.5l6 28.5z" transform="matrix(1, 0, 0, 1, 0, 0)" style="fill:#85c2ff;white-space:pre"/><g transform="matrix(1, 0, 0, 1, -342.388702, -46.688683)"><path d="M11448.619 7214.18l-14.5 50c-14-3.3330000000005384-30.66700000000128-5-50-5C11364.786 7259.18 11351.952 7262.93 11345.619 7270.43c-6.333000000000538 7.5-9.5 19.75-9.5 36.75v7.5h76.5l-4.5 48h-72v301l-70-7v-294l-47-3v-41l47.5-3.5v-14.5C11266.619 7266.347 11275.952 7241.347 11294.619 7225.68 11313.286 7210.014 11342.286 7202.18 11381.619 7202.18c20 0 42.33299999999872 4 67 12zM11558.116 7607.18l-43.5 30C11459.283 7561.514 11431.616 7487.764 11431.616 7415.93 11431.616 7344.097 11459.283 7270.347 11514.616 7194.68l43.5 30c-40 68.33399999999983-60 132.33399999999983-60 192 0 59.66699999999946 20 123.16699999999946 60 190.5zM11747.113 7314.18h73l-79.5 124.5 86 132h-74l-53.5-95.5-54 95.5h-75l89-133-80-123.5h75l46.5 86 46.5-86zM11979.109 7459.18v73h-55.5v-73h-74.5v-55h74.5v-72.5h55.5v72.5h74.5v55h-74.5zM12168.605 7337.18C12178.605 7329.514 12190.439 7323.014 12204.105 7317.68c13.66700000000128-5.333000000000538 27.5-8 41.5-8 14 0 26.16700000000128 2.0839999999998327 36.5 6.25C12292.439 7320.097 12300.272 7326.347 12305.605 7334.68c9.66700000000128 15 14.5 35.16699999999946 14.5 60.5v175.5h-73v-163c0-21.33300000000054-4.5-34-13.5-38-4.332999999998719-2-10.165999999999258-3-17.5-3-18.665999999999258.0-34.5 6.166999999999462-47.5 18.5v185.5h-70v-348.5l70-4.5v119.5zM12347.102 7224.68l43.5-30C12445.935 7270.347 12473.602 7344.097 12473.602 7415.93 12473.602 7487.764 12445.935 7561.514 12390.602 7637.18l-43.5-30c40-67.33300000000054 60-130.83300000000054 60-190.5.0-59.66600000000017-20-123.66600000000017-60-192zM12607.598 7404.68h203.5v54.5h-203.5v-54.5zM13166.593 7214.18l-14.5 50c-14-3.3330000000005384-30.66700000000128-5-50-5C13082.759 7259.18 13069.926 7262.93 13063.593 7270.43c-6.334000000000742 7.5-9.5 19.75-9.5 36.75v7.5h76.5l-4.5 48h-72v301l-70-7v-294l-47-3v-41l47.5-3.5v-14.5C12984.593 7266.347 12993.926 7241.347 13012.593 7225.68 13031.259 7210.014 13060.259 7202.18 13099.593 7202.18c20 0 42.33299999999872 4 67 12zM13276.089 7607.18l-43.5 30C13177.256 7561.514 13149.589 7487.764 13149.589 7415.93 13149.589 7344.097 13177.256 7270.347 13232.589 7194.68l43.5 30c-40 68.33399999999983-60 132.33399999999983-60 192 0 59.66699999999946 20 123.16699999999946 60 190.5zM13465.087 7314.18h73l-79.5 124.5 86 132h-74l-53.5-95.5-54 95.5h-75l89-133-80-123.5h75l46.5 86 46.5-86zM13557.583 7224.68l43.5-30C13656.416 7270.347 13684.083 7344.097 13684.083 7415.93 13684.083 7487.764 13656.416 7561.514 13601.083 7637.18l-43.5-30c40-67.33300000000054 60-130.83300000000054 60-190.5.0-59.66600000000017-20-123.66600000000017-60-192z" transform="matrix(1, 0, 0, 1, 1355.4134521484375, 0.0006160000339150429)" style="fill:#85c2ff;white-space:pre"/><path d="M12415.602 7937.18C12425.602 7929.514 12437.435 7923.014 12451.102 7917.68c13.665999999999258-5.333000000000538 27.5-8 41.5-8 14 0 26.165999999999258 2.0839999999998327 36.5 6.25C12539.435 7920.097 12547.268 7926.347 12552.602 7934.68c9.665999999999258 15 14.5 35.16699999999946 14.5 60.5v175.5h-73v-163c0-21.33300000000054-4.5-34-13.5-38-4.334000000000742-2-10.16700000000128-3-17.5-3-18.66700000000128.0-34.5 6.166999999999462-47.5 18.5v185.5h-70v-348.5l70-4.5v119.5z" transform="matrix(1, 0, 0, 1, 1355.4134521484375, 0.0006160000339150429)" style="fill:#85c2ff;white-space:pre"/><path style="stroke-width:50px;fill:#85c2ff;stroke:#85c2ff" d="M126e2 7740h2460z"/></g><path d="M11432.3 7906.72C11438.3 7902.12 11445.4 7898.22 11453.6 7895.02 11461.8 7891.82 11470.1 7890.22 11478.5 7890.22 11486.9 7890.22 11494.2 7891.47 11500.4 7893.97 11506.6 7896.47 11511.3 7900.22 11514.5 7905.22 11520.3 7914.22 11523.2 7926.32 11523.2 7941.52V8046.82H11479.4V7949.02C11479.4 7936.22 11476.7 7928.62 11471.3 7926.22 11468.7 7925.02 11465.2 7924.42 11460.8 7924.42 11449.6 7924.42 11440.1 7928.12 11432.3 7935.52V8046.82h-42V7837.72L11432.3 7835.02V7906.72z" transform="matrix(1, 0, 0, 1, 0, 0)" style="fill:#85c2ff;white-space:pre"/><path d="M12117 8028.82C12110.8 8036.62 12103.55 8042.22 12095.25 8045.62 12086.95 8049.02 12076 8050.72 12062.4 8050.72 12048.8 8050.72 12037.2 8047.82 12027.6 8042.02 12007.4 8029.62 11997.3 7998.02 11997.3 7947.22 11997.3 7896.62 12007.8 7864.82 12028.8 7851.82 12038.6 7845.62 12051.3 7842.52 12066.9 7842.52 12090.3 7842.52 12107.55 7850.12 12118.65 7865.32 12129.75 7880.52 12135.3 7907.52 12135.3 7946.32 12135.3 7985.92 12129.2 8013.42 12117 8028.82zM12088.05 7893.07C12083.75 7883.17 12076.5 7878.22 12066.3 7878.22 12056.1 7878.22 12048.85 7883.17 12044.55 7893.07 12040.25 7902.97 12038.1 7920.87 12038.1 7946.77 12038.1 7972.67 12040.25 7990.57 12044.55 8000.47 12048.85 8010.37 12056.1 8015.32 12066.3 8015.32 12076.5 8015.32 12083.75 8010.37 12088.05 8000.47 12092.35 7990.57 12094.5 7972.67 12094.5 7946.77 12094.5 7920.87 12092.35 7902.97 12088.05 7893.07z" transform="matrix(1, 0, 0, 1, 0, 0)" style="fill:#85c2ff;white-space:pre"/><path d="M510.66 9885.299H780.66l-50-1e2 150 125-150 125 50-1e2H510.66v-50z" style="fill:#85c2ff" transform="matrix(1, 0.000068, -0.000068, 1, 11074.460938, -1960.400879)"/></g><g transform="matrix(1, 0, 0, 1, -9576.573385, 633.164682)"><title>Obj2</title><path d="M30438.9 6193.13l9.5 41.5C30431.4 6243.963 30412.817 6248.63 30392.65 6248.63 30372.484 6248.63 30357.567 6240.963 30347.9 6225.63c-19.333000000002357 16-42 24-68 24-26 0-45.66600000000108-6.583000000000538-59-19.75C30207.567 6216.713 30200.9 6198.797 30200.9 6176.13 30200.9 6161.13 30204.067 6148.297 30210.4 6137.63 30216.734 6126.963 30224.9 6119.13 30234.9 6114.13 30253.234 6105.463 30272.317 6101.13 30292.15 6101.13c19.833999999998923.0 35.75.5 47.75 1.5v-24.5c0-17.33300000000054-3.5-28.5-10.5-33.5-7-5-18.916000000001077-7.5-35.75-7.5-16.833000000002357.0-35.75 3.5-56.75 10.5l-14.5-44C30234.734 5996.297 30249.817 5990.713 30267.65 5986.88 30285.484 5983.047 30300.734 5981.13 30313.4 5981.13c34 0 58.25 7.25 72.75 21.75 14.5 14.5 21.75 39.25 21.75 74.25v105c0 9.332999999999629 4.166999999997643 14 12.5 14 4.333999999998923.0 10.5-1 18.5-3zm-140 10c14 0 27.666999999997643-4.333000000000538 41-13v-52.5C30330.567 6136.963 30322.4 6136.63 30315.4 6136.63c-33 0-49.5 10.666999999999462-49.5 32 0 23 11 34.5 33 34.5z" transform="matrix(1, 0, 0, 1, 0, 0)" style="fill:#85c2ff;white-space:pre"/><path d="M31194.699 5065.3h70v110.5C31271.699 5170.133 31281.116 5165.216 31292.949 5161.05 31304.783 5156.883 31316.699 5154.8 31328.699 5154.8 31356.033 5154.8 31378.533 5165.216 31396.199 5186.05 31413.866 5206.883 31422.699 5236.633 31422.699 5275.3 31422.699 5322.966 31413.033 5359.383 31393.699 5384.55 31374.366 5409.716 31343.366 5422.3 31300.699 5422.3c-18.33299999999872.0-38-1.75-59-5.25-21-3.5-36.66600000000108-7.583999999999833-47-12.25V5065.3zm96 300.5c23 0 39-7 48-21 9-14 13.5-34.33399999999983 13.5-61C31352.199 5257.133 31348.616 5238.466 31341.449 5227.8 31334.283 5217.133 31323.366 5211.8 31308.699 5211.8 31294.033 5211.8 31279.366 5216.3 31264.699 5225.3v138c9 1.6660000000001673 17.66700000000128 2.5 26 2.5z" transform="matrix(1, 0, 0, 1, 0, 0)" style="fill:#85c2ff;white-space:pre"/><path d="M30072 5148.75C30037.667 5148.75 30009.167 5137.667 29986.5 5115.5 29963.833 5093.333 29952.5 5059.833 29952.5 5015 29952.5 4970.167 29963.667 4936.667 29986 4914.5 30008.333 4892.333 30037 4881.25 30072 4881.25 30092.667 4881.25 30116.167 4885.083 30142.5 4892.75l-13.5 50.5C30108.667 4938.583 30092.333 4936.25 30080 4936.25 30060.333 4936.25 30045.25 4942.167 30034.75 4954 30024.25 4965.833 30019 4986.75 30019 5016.75c0 30 5.75 50.83299999999963 17.25 62.5C30047.75 5090.917 30063.833 5096.75 30084.5 5096.75c10.66700000000128.0 27-1.667000000000371 49-5l8.5 45.5C30115.667 5144.917 30092.333 5148.75 30072 5148.75z" transform="matrix(1, 0, 0, 1, 0, 0)" style="fill:#85c2ff;white-space:pre"/><g transform="matrix(1, 0, 0, 1, 0, 67.232559)"><title>Equation</title><path d="M29748.1 6698.82l9.5 41.5C29740.6 6749.653 29722.016 6754.32 29701.85 6754.32 29681.683 6754.32 29666.766 6746.653 29657.1 6731.32c-19.333999999998923 16-42 24-68 24-26 0-45.66699999999764-6.583999999999833-59-19.75C29516.766 6722.403 29510.1 6704.486 29510.1 6681.82 29510.1 6666.82 29513.266 6653.986 29519.6 6643.32 29525.933 6632.653 29534.1 6624.82 29544.1 6619.82 29562.433 6611.153 29581.516 6606.82 29601.35 6606.82c19.833000000002357.0 35.75.5 47.75 1.5v-24.5c0-17.333999999999833-3.5-28.5-10.5-33.5-7-5-18.916999999997643-7.5-35.75-7.5-16.833999999998923.0-35.75 3.5-56.75 10.5l-14.5-44C29543.933 6501.986 29559.016 6496.403 29576.85 6492.57 29594.683 6488.736 29609.933 6486.82 29622.6 6486.82c34 0 58.25 7.25 72.75 21.75 14.5 14.5 21.75 39.25 21.75 74.25v105c0 9.333000000000538 4.166000000001077 14 12.5 14 4.333000000002357.0 10.5-1 18.5-3zm-140 10c14 0 27.666000000001077-4.333999999999833 41-13v-52.5C29639.766 6642.653 29631.6 6642.32 29624.6 6642.32c-33 0-49.5 10.666000000000167-49.5 32 0 23 11 34.5 33 34.5zM29996.094 6637.32v73h-55.5v-73h-74.5v-55h74.5v-72.5h55.5v72.5h74.5v55h-74.5zM30208.09 6398.32h70v110.5C30285.09 6503.153 30294.507 6498.236 30306.34 6494.07 30318.173 6489.903 30330.09 6487.82 30342.09 6487.82 30369.423 6487.82 30391.923 6498.236 30409.59 6519.07 30427.257 6539.903 30436.09 6569.653 30436.09 6608.32 30436.09 6655.986 30426.423 6692.403 30407.09 6717.57 30387.757 6742.736 30356.757 6755.32 30314.09 6755.32c-18.33299999999872.0-38-1.75-59-5.25-21-3.5-36.66700000000128-7.583999999999833-47-12.25v-339.5zm96 300.5c23 0 39-7 48-21 9-14 13.5-34.33399999999983 13.5-61C30365.59 6590.153 30362.007 6571.486 30354.84 6560.82 30347.673 6550.153 30336.757 6544.82 30322.09 6544.82c-14.66700000000128.0-29.33299999999872 4.5-44 13.5v138c9 1.6660000000001673 17.66700000000128 2.5 26 2.5zM30573.084 6533.32h189v53.5h-189v-53.5zm0 97.5h189v54h-189v-54zM31018.078 6755.32C30983.745 6755.32 30955.245 6744.236 30932.578 6722.07 30909.911 6699.903 30898.578 6666.403 30898.578 6621.57 30898.578 6576.736 30909.745 6543.236 30932.078 6521.07c22.33299999999872-22.16699999999946 51-33.25 86-33.25C31038.745 6487.82 31062.245 6491.653 31088.578 6499.32l-13.5 50.5C31054.745 6545.153 31038.411 6542.82 31026.078 6542.82 31006.411 6542.82 30991.328 6548.736 30980.828 6560.57c-10.5 11.833000000000538-15.75 32.75-15.75 62.75.0 30 5.75 50.83300000000054 17.25 62.5C30993.828 6697.486 31009.911 6703.32 31030.578 6703.32c10.666999999997643.0 27-1.6669999999994616 49-5l8.5 45.5C31061.745 6751.486 31038.411 6755.32 31018.078 6755.32z" transform="matrix(1, 0, 0, 1, 0, 0)" style="fill:#85c2ff;white-space:pre"/><path d="M29837.48 6494.13h-103.75v-26.25C29751.73 6448.213 29766.524 6431.42 29778.11 6417.5 29789.69 6403.587 29796.774 6394.337 29799.36 6389.75 29801.94 6385.17 29803.23 6379.63 29803.23 6373.13 29803.23 6366.63 29801.314 6361.547 29797.48 6357.88 29793.647 6354.213 29787.357 6352.38 29778.61 6352.38 29769.857 6352.38 29759.647 6354.88 29747.98 6359.88l-7.75-25C29755.397 6327.38 29770.44 6323.63 29785.36 6323.63 29800.274 6323.63 29812.147 6327.963 29820.98 6336.63 29829.814 6345.297 29834.23 6356.797 29834.23 6371.13 29834.23 6379.963 29832.397 6388.087 29828.73 6395.5 29825.064 6402.92 29819.357 6411.797 29811.61 6422.13 29803.857 6432.463 29791.73 6446.797 29775.23 6465.13h64.5l-2.25 29z" transform="matrix(1, 0, 0, 1, 0, 0)" style="fill:#85c2ff;white-space:pre"/><path d="M30554.602 6494.13h-103.75v-26.25C30468.852 6448.213 30483.645 6431.42 30495.232 6417.5 30506.812 6403.587 30513.895 6394.337 30516.482 6389.75 30519.062 6385.17 30520.352 6379.63 30520.352 6373.13 30520.352 6366.63 30518.435 6361.547 30514.602 6357.88 30510.768 6354.213 30504.478 6352.38 30495.732 6352.38 30486.978 6352.38 30476.768 6354.88 30465.102 6359.88l-7.75-25C30472.518 6327.38 30487.562 6323.63 30502.482 6323.63 30517.395 6323.63 30529.268 6327.963 30538.102 6336.63 30546.935 6345.297 30551.352 6356.797 30551.352 6371.13 30551.352 6379.963 30549.518 6388.087 30545.852 6395.5 30542.185 6402.92 30536.478 6411.797 30528.732 6422.13 30520.978 6432.463 30508.852 6446.797 30492.352 6465.13h64.5l-2.25 29z" transform="matrix(1, 0, 0, 1, 0, 0)" style="fill:#85c2ff;white-space:pre"/><path d="M31224.6 6494.12h-103.75v-26.25C31138.85 6448.203 31153.643 6431.41 31165.23 6417.49 31176.81 6403.577 31183.893 6394.327 31186.48 6389.74 31189.06 6385.16 31190.35 6379.62 31190.35 6373.12 31190.35 6366.62 31188.433 6361.537 31184.6 6357.87 31180.766 6354.203 31174.476 6352.37 31165.73 6352.37 31156.976 6352.37 31146.766 6354.87 31135.1 6359.87l-7.75-25C31142.516 6327.37 31157.56 6323.62 31172.48 6323.62 31187.393 6323.62 31199.266 6327.953 31208.1 6336.62 31216.933 6345.287 31221.35 6356.787 31221.35 6371.12 31221.35 6379.953 31219.516 6388.077 31215.85 6395.49 31212.183 6402.91 31206.476 6411.787 31198.73 6422.12 31190.976 6432.453 31178.85 6446.787 31162.35 6465.12h64.5l-2.25 29z" transform="matrix(1, 0, 0, 1, 0, 0)" style="fill:#85c2ff;white-space:pre"/></g><path style="paint-order:stroke markers;stroke-width:100px;stroke:#85c2ff;fill:none" d="M29415 5808l1646-1161z"/><path style="paint-order:stroke markers;stroke-width:100px;stroke:#85c2ff;fill:none" d="M29415 5808h1646z"/><path style="paint-order:stroke markers;stroke-width:100px;stroke:#85c2ff;fill:none" d="M31061 5808V4647z"/><path d="M30734.051 5458h350v350h-350z" style="stroke-width:50px;stroke:#85c2ff;fill:none"/></g><g transform="matrix(1, 0, 0, 1, -15848.048088, 1851.934964)"><title>Obj3</title><path d="M23880.699 4356.18h-135.5c.6670000000012806 50 22.66700000000128 75 66 75C23831.533 4431.18 23851.699 4427.347 23871.699 4419.68l12 47.5C23858.033 4478.18 23829.533 4483.68 23798.199 4483.68c-79 0-118.5-46.5-118.5-139.5C23679.699 4307.514 23689.533 4277.014 23709.199 4252.68c19.66700000000128-24.33300000000054 48-36.5 85-36.5C23823.866 4216.18 23846.783 4224.097 23862.949 4239.93 23879.116 4255.764 23887.199 4277.847 23887.199 4306.18 23887.199 4322.847 23885.033 4339.514 23880.699 4356.18zm-135-38h85.5v-3c0-33-11.666000000001077-49.5-35-49.5-28 0-44.83299999999872 17.5-50.5 52.5zM24023.693 4261.68h189v53.5h-189v-53.5zm0 97.5h189v54h-189v-54z" transform="matrix(1, 0, 0, 1, 0, 0)" style="fill:#85c2ff;white-space:pre"/><path d="M24743.422 4310.839V4321.829L24488.102 4626.809H24884.052V4693.599H24389.222V4630.759L24656.852 4316.109 24389.222 3998.829V3935.549H24850.212V4002.339H24487.662L24743.422 4310.839z" transform="matrix(1, 0, 0, 1, 0, 0)" style="fill:#85c2ff;white-space:pre"/><path d="M23997.801 4069.82h36.5L23994.551 4132.07l43 66h-37l-26.75-47.75-27 47.75h-37.5l44.5-66.5L23913.801 4069.82h37.5L23974.551 4112.82 23997.801 4069.82z" transform="matrix(1, 0, 0, 1, 0, 0)" style="fill:#85c2ff;white-space:pre"/><g transform="matrix(1, 0, 0, 1, -46.689865, -31.125788)"><path d="M23711.451 4220.68h73l-79.5 124.5 86 132h-74l-53.5-95.5-54 95.5h-75l89-133-80-123.5h75l46.5 86 46.5-86z" transform="matrix(1, 0, 0, 1, 1527.98583984375, -292.5281066894531)" style="fill:#85c2ff;white-space:pre"/><path d="M23637.703 4766.18c29 0 48.75 7.416999999999462 59.25 22.25C23707.453 4803.264 23712.703 4824.347 23712.703 4851.68v175.5h-70v-163c0-13-2.0830000000023574-23.08300000000054-6.25-30.25C23632.286 4826.764 23622.203 4823.18 23606.203 4823.18c-16 0-30.5 6.166999999999462-43.5 18.5v185.5h-71.5v-256.5h59l6 28.5C23565.87 4790.18 23578.12 4782.43 23592.953 4775.93c14.83299999999872-6.5 29.75-9.75 44.75-9.75zM23763.199 4676.18h73l-11 243h-52.5l-9.5-243zm-4 313c0-11.333000000000538 4-21 12-29 8-8 17.66700000000128-12 29-12 11.333999999998923.0 21 4 29 12 8 8 12 17.583999999999833 12 28.75.0 11.166999999999462-4 20.91699999999946-12 29.25-8 8.333999999999833-17.666000000001077 12.5-29 12.5-11.33299999999872.0-21-4.083000000000538-29-12.25-8-8.166000000000167-12-17.916000000000167-12-29.25z" transform="matrix(1, 0, 0, 1, 1527.98583984375, -292.5281066894531)" style="fill:#85c2ff;white-space:pre"/><path d="M25436.5 3755.51C25451 3755.51 25460.877 3759.217 25466.13 3766.63 25471.377 3774.05 25474 3784.593 25474 3798.26v87.75h-35v-81.5C25439 3798.01 25437.96 3792.967 25435.88 3789.38 25433.793 3785.8 25428.75 3784.01 25420.75 3784.01c-8 0-15.25 3.082999999999629-21.75 9.25v92.75h-35.75V3757.76h29.5l3 14.25C25400.583 3767.51 25406.71 3763.633 25414.13 3760.38 25421.543 3757.133 25429 3755.51 25436.5 3755.51z" transform="matrix(1, 0, 0, 1, 0, 0)" style="fill:#85c2ff;white-space:pre"/><path style="stroke-width:50px;fill:#85c2ff;stroke:#85c2ff" d="M25032.768 4307.233H25458.756z"/></g></g><g transform="matrix(1, 0, 0, 1, -9546.126119, -7153.389755)"><title>Obj4</title><path d="M20718.32 11511.9V12143.25C20718.32 12195.983 20704.973 12236.02 20678.28 12263.36 20651.587 12290.707 20612.523 12304.38 20561.09 12304.38 20542.537 12304.38 20523.82 12301.123 20504.94 12294.61L20513.73 12223.81C20528.703 12228.043 20541.56 12230.16 20552.3 12230.16 20602.753 12230.16 20627.98 12201.35 20627.98 12143.73V11506.53C20627.98 11451.19 20642.387 11408.057 20671.2 11377.13 20700.007 11346.21 20740.613 11330.75 20793.02 11330.75 20812.553 11330.75 20835.993 11334.167 20863.34 11341L20851.62 11410.34C20839.573 11406.753 20824.76 11404.96 20807.18 11404.96 20747.94 11404.96 20718.32 11440.607 20718.32 11511.9z" transform="matrix(1, 0, 0, 1, 0, 0)" style="fill:#85c2ff;white-space:pre"/><path d="M20980.5 11772c-22.66700000000128.0-34 7.5-34 22.5C20946.5 11802.5 20950.333 11809.333 20958 11815 20965.667 11820.667 20974.917 11825.583 20985.75 11829.75 20996.583 11833.917 21007.417 11838.583 21018.25 11843.75 21029.083 11848.917 21038.333 11856.333 21046 11866 21053.667 11875.667 21057.5 11887.5 21057.5 11901.5c0 25-8.5 45.25-25.5 60.75-17 15.5-42 23.25-75 23.25-15 0-30.75-1.6669999999994616-47.25-5C20893.25 11977.167 20881.167 11973.333 20873.5 11969l17-50C20916.5 11927.667 20939.917 11932 20960.75 11932 20981.583 11932 20992 11923.833 20992 11907.5 20992 11900.5 20988.167 11894.167 20980.5 11888.5 20972.833 11882.833 20963.583 11877.583 20952.75 11872.75 20941.917 11867.917 20931.083 11862.667 20920.25 11857 20909.417 11851.333 20900.167 11843.333 20892.5 11833 20884.833 11822.667 20881 11810.667 20881 11797 20881 11771.333 20889.5 11751.667 20906.5 11738 20923.5 11724.333 20947.833 11717.5 20979.5 11717.5 21011.167 11717.5 21036 11722.667 21054 11733l-16.5 49.5c-23-7-42-10.5-57-10.5zM21167.996 11717v262h-70v-256l70-6zm-76.5-76.5c0-11.333000000000538 4-21 12-29 8-8 17.66700000000128-12 29-12 11.333000000002357.0 21 4 29 12 8 8 12 17.58300000000054 12 28.75.0 11.166999999999462-4 20.91699999999946-12 29.25C21153.496 11677.833 21143.829 11682 21132.496 11682c-11.33299999999872.0-21-4.083000000000538-29-12.25-8-8.166999999999462-12-17.91699999999946-12-29.25zM21367.494 11718c29 0 48.75 7.416999999999462 59.25 22.25C21437.244 11755.083 21442.494 11776.167 21442.494 11803.5V11979h-70v-163c0-13-2.0829999999987194-23.08300000000054-6.25-30.25C21362.077 11778.583 21351.994 11775 21335.994 11775c-16 0-30.5 6.166999999999462-43.5 18.5V11979h-71.5v-256.5h59l6 28.5C21295.661 11742 21307.911 11734.25 21322.744 11727.75c14.833000000002357-6.5 29.75-9.75 44.75-9.75zM21609.49 12015.5l-43.5 30C21510.657 11969.833 21482.99 11896.083 21482.99 11824.25 21482.99 11752.417 21510.657 11678.667 21565.99 11603l43.5 30c-40 68.33300000000054-60 132.33300000000054-60 192 0 59.66699999999946 20 123.16699999999946 60 190.5zM21798.488 11722.5h73l-79.5 124.5 86 132h-74l-53.5-95.5-54 95.5h-75l89-133-80-123.5h75l46.5 86 46.5-86zM21890.984 11633l43.5-30C21989.818 11678.667 22017.484 11752.417 22017.484 11824.25 22017.484 11896.083 21989.818 11969.833 21934.484 12045.5l-43.5-30c40-67.33300000000054 60-130.83300000000054 60-190.5.0-59.66699999999946-20-123.66699999999946-60-192zM22049.982 11857C22049.982 11764.333 22086.149 11718 22158.482 11718 22176.816 11718 22191.649 11721 22202.982 11727v-103h70.5v358.5h-58l-4-19C22192.816 11976.833 22170.649 11983.5 22144.982 11983.5c-31.33299999999872.0-55-11.333000000000538-71-34-16-22.66699999999946-24-53.5-24-92.5zm115.5-84c-32.33299999999872.0-48.5 27.5-48.5 82.5.0 50.33300000000054 15 75.5 45 75.5C22177.316 11931 22191.149 11927.167 22203.482 11919.5V11780c-11-4.666999999999462-23.666000000001077-7-38-7zM22479.979 11722.5h73l-79.5 124.5 86 132h-74l-53.5-95.5-54 95.5h-75l89-133-80-123.5h75l46.5 86 46.5-86zM22683.973 11763.5h189v53.5h-189v-53.5zm0 97.5h189v54h-189v-54zM23018.967 11813h203.5v54.5h-203.5V11813zM23383.463 11985.5C23349.13 11985.5 23320.63 11974.417 23297.963 11952.25 23275.296 11930.083 23263.963 11896.583 23263.963 11851.75 23263.963 11806.917 23275.13 11773.417 23297.463 11751.25 23319.796 11729.083 23348.463 11718 23383.463 11718 23404.13 11718 23427.63 11721.833 23453.963 11729.5l-13.5 50.5C23420.13 11775.333 23403.796 11773 23391.463 11773 23371.796 11773 23356.713 11778.917 23346.213 11790.75c-10.5 11.833000000000538-15.75 32.75-15.75 62.75.0 30 5.75 50.83300000000054 17.25 62.5C23359.213 11927.667 23375.296 11933.5 23395.963 11933.5c10.66700000000128.0 27-1.6669999999994616 49-5l8.5 45.5C23427.13 11981.667 23403.796 11985.5 23383.463 11985.5zM23698.961 11851.5c0 46.33300000000054-10.33299999999872 80.25-31 101.75C23647.294 11974.75 23620.128 11985.5 23586.461 11985.5 23552.794 11985.5 23526.044 11974.833 23506.211 11953.5 23486.378 11932.167 23476.461 11898.333 23476.461 11852c0-46.33300000000054 10.25-80.25 30.75-101.75 20.5-21.5 47.41700000000128-32.25 80.75-32.25 74 0 111 44.5 111 133.5zm-68-.75c0-30.5-3.6669999999976426-51.25-11-62.25C23612.628 11777.5 23601.878 11772 23587.711 11772c-14.166999999997643.0-25 5.5-32.5 16.5-7.5 11-11.25 32.16699999999946-11.25 63.5.0 53.33300000000054 14.5 80 43.5 80C23601.128 11932 23611.794 11926.083 23619.461 11914.25c7.667000000001281-11.833000000000538 11.5-33 11.5-63.5zM23832.457 11772c-22.666999999997643.0-34 7.5-34 22.5.0 8 3.8330000000023574 14.833000000000538 11.5 20.5C23817.624 11820.667 23826.874 11825.583 23837.707 11829.75 23848.54 11833.917 23859.374 11838.583 23870.207 11843.75 23881.04 11848.917 23890.29 11856.333 23897.957 11866 23905.624 11875.667 23909.457 11887.5 23909.457 11901.5c0 25-8.5 45.25-25.5 60.75-17 15.5-42 23.25-75 23.25-15 0-30.75-1.6669999999994616-47.25-5C23745.207 11977.167 23733.124 11973.333 23725.457 11969l17-50c26 8.666999999999462 49.41700000000128 13 70.25 13C23833.54 11932 23843.957 11923.833 23843.957 11907.5c0-7-3.8329999999987194-13.333000000000538-11.5-19C23824.79 11882.833 23815.54 11877.583 23804.707 11872.75 23793.874 11867.917 23783.04 11862.667 23772.207 11857 23761.374 11851.333 23752.124 11843.333 23744.457 11833 23736.79 11822.667 23732.957 11810.667 23732.957 11797c0-25.66699999999946 8.5-45.33300000000054 25.5-59 17-13.666999999999462 41.33300000000236-20.5 73-20.5 31.66700000000128.0 56.5 5.166999999999462 74.5 15.5l-16.5 49.5c-23-7-42-10.5-57-10.5zM24065.453 12015.5l-43.5 30C23966.62 11969.833 23938.953 11896.083 23938.953 11824.25 23938.953 11752.417 23966.62 11678.667 24021.953 11603l43.5 30c-40 68.33300000000054-60 132.33300000000054-60 192 0 59.66699999999946 20 123.16699999999946 60 190.5zM24254.451 11722.5h73l-79.5 124.5 86 132h-74l-53.5-95.5-54 95.5h-75l89-133-80-123.5h75l46.5 86 46.5-86zM24346.947 11633l43.5-30C24445.781 11678.667 24473.447 11752.417 24473.447 11824.25 24473.447 11896.083 24445.781 11969.833 24390.447 12045.5l-43.5-30c40-67.33300000000054 60-130.83300000000054 60-190.5.0-59.66699999999946-20-123.66699999999946-60-192z" transform="matrix(1, 0, 0, 1, 0, 0)" style="fill:#85c2ff;white-space:pre"/></g><g><title>Obj5</title><path d="M17350.5 3861.33l69 254 69.5-254h71l-105 334h-70.5l-105-334h71zM17678.494 3979.83h189v53.5h-189v-53.5zm0 97.5h189v54h-189v-54z" transform="matrix(1, 0, 0, 1, 0, 0)" style="fill:#85c2ff;white-space:pre"/><path d="M18170.53 3957.59V4006.15H18132.95V4121.06C18132.95 4129.707 18134.6 4135.97 18137.9 4139.85 18141.194 4143.73 18147.674 4145.67 18157.34 4145.67 18163.787 4145.67 18169.94 4145.083 18175.8 4143.91V4192.03C18164.374 4195.843 18151.63 4197.75 18137.57 4197.75 18093.037 4197.75 18070.33 4175.263 18069.45 4130.29V4006.15H18008.81V4195.33h-63.5V4006.15H17906.42V3957.59H18170.53z" transform="matrix(1, 0, 0, 1, 0, 0)" style="fill:#85c2ff;white-space:pre"/><path d="M18338.584 3990.33c-27.33299999999872.0-46.5 7.833000000000084-57.5 23.5v181.5h-70v-256.5h58l5.5 32.5c19.333000000002357-25.333000000000084 44-38 74-38 8.333000000002357.0 16 .8330000000000837 23 2.5l-11.5 57.5c-7.332999999998719-2-14.5-3-21.5-3zM18562.58 3961.83C18572.58 3954.163 18584.413 3947.663 18598.08 3942.33c13.666999999997643-5.333000000000084 27.5-8 41.5-8C18653.58 3934.33 18665.747 3936.413 18676.08 3940.58 18686.413 3944.747 18694.247 3950.997 18699.58 3959.33 18709.247 3974.33 18714.08 3994.497 18714.08 4019.83v175.5h-73v-163c0-21.333000000000084-4.5-34-13.5-38-4.333000000002357-2-10.16700000000128-3-17.5-3C18591.413 3991.33 18575.58 3997.497 18562.58 4009.83v185.5h-70v-348.5l70-4.5v119.5z" transform="matrix(1, 0, 0, 1, 0, 0)" style="fill:#85c2ff;white-space:pre"/><path d="M18603.4 3911.7h-103.75v-26.25C18517.65 3865.783 18532.444 3848.99 18544.03 3835.07 18555.61 3821.157 18562.694 3811.907 18565.28 3807.32 18567.86 3802.74 18569.15 3797.2 18569.15 3790.7 18569.15 3784.2 18567.234 3779.117 18563.4 3775.45 18559.567 3771.783 18553.277 3769.95 18544.53 3769.95 18535.777 3769.95 18525.567 3772.45 18513.9 3777.45l-7.75-25C18521.317 3744.95 18536.36 3741.2 18551.28 3741.2 18566.194 3741.2 18578.067 3745.533 18586.9 3754.2 18595.734 3762.867 18600.15 3774.367 18600.15 3788.7 18600.15 3797.533 18598.317 3805.657 18594.65 3813.07 18590.984 3820.49 18585.277 3829.367 18577.53 3839.7 18569.777 3850.033 18557.65 3864.367 18541.15 3882.7h64.5l-2.25 29z" transform="matrix(1, 0, 0, 1, 0, 0)" style="fill:#85c2ff;white-space:pre"/></g></svg>