<?xml version="1.0" encoding="utf-8"?>
<svg viewBox="140.844 0.179 2493.322 2163.073" xmlns="http://www.w3.org/2000/svg">
  <g>
    <title>Layer 1</title>
    <g id="g10" transform="matrix(1.3333333,0,0,-1.3333333,0,2449.9733) ">
      <g id="g12" transform="scale(0.10000000149011612) ">
        <g id="g14" transform="scale(1.0478299856185913) ">
          <path fill="#f5f5fe" fill-rule="nonzero" d="m16300,8784.85c0,-3718.27 -3014.2,-6732.6 -6732.59,-6732.6c-3718.32,0 -6732.6,3014.33 -6732.6,6732.6c0,3718.35 3014.28,6732.65 6732.6,6732.65c3718.39,0 6732.59,-3014.3 6732.59,-6732.65" id="path16"/>
        </g>
        <g id="g18" transform="scale(1.2408100366592407) ">
          <path fill="#c8d4f9" fill-rule="nonzero" d="m3008.52,3562.03c72.03,-33.53 145.36,-59.8 220,-62.86c151.22,-6.05 280.4,83.33 409.9,172.71c126.09,87.04 252.5,174.08 399.85,173.03c230.17,-1.77 417.97,-221.79 648.08,-216.55c299.34,6.77 388.99,308.59 579.45,475.9c193.59,170.13 482.34,409.16 756.72,373.46c284.41,-36.91 486.46,-337.6 772.56,-357.51c204.21,-14.1 388.12,120.89 531.45,267.57c143.33,146.68 273.07,316.25 457.21,405.95c178.08,86.71 396.24,85.42 573.3,-3.47c170.54,-85.59 293.92,-240.65 439.07,-364.68c145.23,-124.03 342.52,-221.63 522.56,-158.77c129.43,45.21 217.84,161.75 315.52,258.22c179.32,177.22 421.61,301.5 673.31,296.1c382.1,-8.22 646.5,-283.61 910.8,-522.4c195.9,-176.9 400.3,-535.7 696,-536.35c164.3,-0.32 297.8,111.14 430.4,222.6c139.1,116.86 277.2,233.8 449.2,221.71c310.8,-21.92 465.5,-452.37 775.2,-487.18c158.9,-17.9 311.8,73.42 459.5,164.81c187.3,115.73 366.3,231.46 538.8,125c167.9,-103.72 205.5,-378.95 398.4,-420.13c194.9,-41.67 340.7,199.79 538,227.84c158.1,22.4 306.5,-105.42 363.3,-255.16c432.9,-1142 -1815.4,-1252.97 -2424.8,-1252.97c-609.7,0 -1166.9,79.38 -1593.4,210.5c-661.1,-445.59 -1981.96,-749.59 -3503.95,-749.59c-1528.87,0 -2854.95,306.82 -3512.94,755.64c-429.01,-134.67 -993.83,-216.55 -1612.85,-216.55c-503.78,0 -1016.61,47.55 -1503.1,183.99c-279.9,78.58 -875.785,214.29 -864.584,600.82c6.416,221.14 199.784,402.39 412.274,461.39c111.39,30.95 229.98,35.46 343.36,12.97c227.06,-44.89 476.95,-190.36 668.09,-59.39c74.26,50.85 121.36,136.28 199.68,180.61c168.74,95.5 346.78,-40.22 533.64,-127.26" id="path20"/>
        </g>
        <g id="g26" transform="scale(1.1273000240325928) ">
          <path fill="#f5f5fe" fill-rule="nonzero" d="m1642.5,15266.5c-8.43,50.9 58.97,153.6 132.51,151.9c29.25,-0.6 57.86,-8.2 87.05,-6.8c77.81,3.8 118.15,64.4 148.14,114.6c29.99,50.1 89.71,107.3 165.55,94.6c109.18,-18.3 164.21,-162.4 288.31,-54.2c81.25,70.8 87.35,169.8 179.34,238.5c63.14,47.1 165.82,75 250.48,49c110.48,-34 151.57,-143.6 269.21,-162.6c130.31,-21.1 224,78 265.6,149.5c50.47,86.7 69.22,180.5 112.44,268.8c40.03,81.7 120.5,191.2 264.69,188.8c121.92,-2 175.64,-79.2 235.49,-140.4c77.84,-79.7 239.58,-365.9 420.97,-331.4c70.73,13.5 106.06,69.7 169.88,94.8c102.6,40.4 233.38,-15.1 295.19,-85.1c61.83,-69.9 86.33,-154.3 156.18,-220.4c18.07,-17.2 40.01,-33.3 68.4,-41.1c97.57,-26.7 188.4,55.5 292.87,61.6c72.11,4.2 139,-29.7 180.44,-71c41.44,-41.3 64.05,-90.2 95.76,-135.5c8.82,-12.6 18.85,-25.3 34.81,-33.9c45.83,-24.6 110.31,-3.9 166.45,5.8c138.71,23.9 296.29,-39.8 335.42,-135.5l-4615.18,0" id="path28"/>
        </g>
        <g id="g30" transform="scale(1.0810699462890625) ">
          <path fill="#f5f5fe" fill-rule="nonzero" d="m16294.3,15545.3c5.7,34.9 -40.4,105.1 -90.6,103.9c-20,-0.4 -39.6,-5.6 -59.6,-4.6c-53.2,2.6 -80.7,44 -101.3,78.3c-20.4,34.3 -61.3,73.4 -113.1,64.7c-74.6,-12.5 -112.3,-111 -197.1,-37.1c-55.6,48.4 -59.8,116.1 -122.7,163c-43.1,32.3 -113.3,51.4 -171.2,33.6c-75.5,-23.3 -103.6,-98.2 -184,-111.2c-89.1,-14.4 -153.1,53.3 -181.6,102.2c-34.5,59.3 -47.3,123.4 -76.9,183.8c-27.3,55.9 -82.3,130.7 -180.9,129.1c-83.4,-1.4 -120.1,-54.2 -161,-96c-53.3,-54.5 -163.8,-250.1 -287.8,-226.6c-48.4,9.2 -72.6,47.6 -116.1,64.8c-70.2,27.7 -159.6,-10.3 -201.9,-58.1c-42.2,-47.8 -59,-105.5 -106.7,-150.8c-12.4,-11.7 -27.4,-22.7 -46.8,-28c-66.7,-18.3 -128.8,37.9 -200.3,42.1c-49.2,2.8 -95,-20.3 -123.3,-48.6c-28.3,-28.2 -43.8,-61.6 -65.5,-92.6c-6,-8.6 -12.8,-17.3 -23.7,-23.2c-31.4,-16.8 -75.4,-2.6 -113.8,4c-94.9,16.3 -202.6,-27.2 -229.3,-92.7l3155.2,0" id="path32"/>
        </g>
        <g id="g34" transform="scale(1.119420051574707) ">
          <path fill="#ffffff" fill-rule="nonzero" d="m10272.3,14987.9l-2531.06,0c-113.54,0 -205.56,92.1 -205.56,205.6l0,901c0,113.5 92.02,205.5 205.56,205.5l2531.06,0c113.6,0 205.6,-92 205.6,-205.5l0,-901c0,-113.5 -92,-205.6 -205.6,-205.6" id="path36"/>
        </g>
        <g id="g38" transform="scale(1.1224900484085083) ">
          <path fill="#597ff5" fill-rule="nonzero" d="m10244.3,14947l0,44.5l-2524.23,0c-44.46,0 -84.29,17.9 -113.46,47c-29.11,29.2 -46.97,69 -47,113.5l0,898.4c0.03,44.5 17.89,84.3 47,113.5c29.17,29.1 69,47 113.46,47l2524.23,0c44.4,0 84.2,-17.9 113.5,-47c29,-29.2 46.9,-69 46.9,-113.5l0,-898.4c0,-44.5 -17.9,-84.3 -46.9,-113.5c-29.3,-29.1 -69.1,-47 -113.5,-47l0,-44.5l0,-44.6c68.7,0 131.4,28 176.4,73.1c45.1,45 73.1,107.7 73.1,176.5l0,898.4c0,68.8 -28,131.5 -73.1,176.5c-45,45.1 -107.7,73.1 -176.4,73.1l-2524.23,0c-68.77,0 -131.44,-28 -176.45,-73.1c-45.09,-45 -73.11,-107.7 -73.08,-176.5l0,-898.4c-0.03,-68.8 27.99,-131.5 73.08,-176.5c45.01,-45.1 107.68,-73.1 176.45,-73.1l2524.23,0l0,44.6" id="path40"/>
        </g>
        <g id="g42" transform="scale(1.1091899871826172) ">
          <path fill="#ffc937" fill-rule="nonzero" d="m8181.03,15276.7l-252.77,0c-89.63,0 -162.28,72.6 -162.28,162.3l0,698.7c0,89.6 72.65,162.3 162.28,162.3l252.77,0l0,-1023.3" id="path44"/>
        </g>
        <g id="g46" transform="scale(1.1091899871826172) ">
          <path fill="#ffc937" fill-rule="nonzero" d="m8739.2,15276.7l-415.06,0l0,1023.3l415.06,0l0,-1023.3" id="path48"/>
        </g>
        <g id="g50" transform="scale(1.1091899871826172) ">
          <path fill="#ffc937" fill-rule="nonzero" d="m9297.35,15276.7l-415.05,0l0,1023.3l415.05,0l0,-1023.3" id="path52"/>
        </g>
        <g id="g54" transform="scale(1.1091899871826172) ">
          <path fill="#ffc937" fill-rule="nonzero" d="m9855.5,15276.7l-414.99,0l0,1023.3l414.99,0l0,-1023.3" id="path56"/>
        </g>
        <g id="g58" transform="scale(1.1091899871826172) ">
          <path fill="#ffc937" fill-rule="nonzero" d="m10251.4,15276.7l-252.73,0l0,1023.3l252.73,0c89.7,0 162.3,-72.7 162.3,-162.3l0,-698.7c0,-89.7 -72.6,-162.3 -162.3,-162.3" id="path60"/>
        </g>
        <g id="g62" transform="scale(1.1050100326538086) ">
          <path fill="#ffffff" fill-rule="nonzero" d="m10704.7,15395.9l-90.2,0l0,904.1l90.2,0c54.9,0 99.5,-44.6 99.5,-99.5l0,-705c0,-55 -44.6,-99.6 -99.5,-99.6" id="path64"/>
        </g>
        <g id="g66" transform="scale(1.1080800294876099) ">
          <path fill="#597ff5" fill-rule="nonzero" d="m10675,15353.3l0,45.1l-44.8,0l0,811.3l44.8,0c15.1,0 28.3,-6 38.3,-15.8c9.8,-10 15.8,-23.2 15.9,-38.3l0,-703c-0.1,-15.1 -6.1,-28.4 -15.9,-38.3c-10,-9.9 -23.2,-15.9 -38.3,-15.9l0,-45.1l0,-45.1c39.7,0 76.1,16.2 102.1,42.3c26.1,25.9 42.3,62.3 42.2,102.1l0,703c0.1,39.7 -16.1,76.1 -42.2,102.1c-26,26 -62.4,42.3 -102.1,42.3l-135,0l0,-991.8l135,0l0,45.1" id="path68"/>
        </g>
        <path fill="#597ff5" fill-rule="nonzero" d="m11128.5,9678.83l-3721.72,0l0,-329.65l3721.72,0l0,329.65" id="path70"/>
        <g id="g72" transform="scale(1.1280699968338013) ">
          <path fill="#e9e8e8" fill-rule="nonzero" d="m8843.84,1930.37c-4117.91,0 -7456.12,167.1 -7456.12,373.11c0,206.02 3338.21,373.12 7456.12,373.12c4117.86,0 7456.16,-167.1 7456.16,-373.12c0,-206.01 -3338.3,-373.11 -7456.16,-373.11" id="path74"/>
        </g>
        <path fill="#1f217a" fill-rule="nonzero" d="m3441.07,8812.07l8379.23,0l0,539.14l-8379.23,0l0,-539.14" id="path76"/>
        <path fill="#0b2d4e" fill-rule="nonzero" d="m3810,8275.4l7641.4,0l0,539.18l-7641.4,0.01l0,-539.19" id="path78"/>
        <path fill="#0b2d4e" fill-rule="nonzero" d="m10995.9,2598.5l-502.9,0l-622.02,5676.9l502.92,0l622,-5676.9" id="path80"/>
        <path fill="#0b2d4e" fill-rule="nonzero" d="m4256.11,2598.5l502.92,0l622,5676.9l-502.92,0l-622,-5676.9" id="path82"/>
        <path fill="#597ff5" fill-rule="nonzero" d="m7790.03,9486.93l-1177.78,3315.37c-37.58,105.8 -153.81,161.1 -259.6,123.5c-105.79,-37.5 -161.09,-153.8 -123.5,-259.6l1177.78,-3315.36l383.1,136.09" id="path84"/>
        <g id="g86" transform="scale(1.0119099617004395) ">
          <path fill="#181a69" fill-rule="nonzero" d="m15845.6,5792.19l405,0c27.3,0 49.4,22.14 49.4,49.41l0,1784.74l-454.4,0l0,-1834.15" id="path88"/>
        </g>
        <g id="g90" transform="scale(1.0119099617004395) ">
          <path fill="#181a69" fill-rule="nonzero" d="m15845.6,7626.34l454.4,0l0,4713.66c0,43.7 -35.4,79.1 -79.1,79.1l-375.3,0l0,-4792.76" id="path92"/>
        </g>
        <g id="g94" transform="scale(1.0119099617004395) ">
          <path fill="#181a69" fill-rule="nonzero" d="m12773.1,5792.19l3447.8,0c43.7,0 79.1,35.38 79.1,79.06l0,260.1c0,43.68 -35.4,79.16 -79.1,79.16l-3447.8,0c-43.7,0 -79,-35.48 -79,-79.16l0,-260.1c0,-43.68 35.3,-79.06 79,-79.06" id="path96"/>
        </g>
        <path fill="#597ff5" fill-rule="nonzero" d="m12128.9,6284.5l3594.5,0c182.3,0 330,147.7 330,330l0,186.5c0,182.3 -147.7,330 -330,330l-3594.5,0c-182.3,0 -330,-147.7 -330,-330l0,-186.5c0,-182.3 147.7,-330 330,-330" id="path98"/>
        <path fill="#3f4ade" fill-rule="nonzero" d="m15703,6284.5l-3553.7,0c-193.5,0 -350.4,156.9 -350.4,350.4l0,145.7c0,136.5 78.2,254.5 192.1,312.3c-12.2,-35.5 -19.1,-73.5 -19.1,-113.2l0,-145.7c0,-193.5 156.9,-350.4 350.5,-350.4l3553.6,0c57.1,0 110.8,13.9 158.4,38.1c-47.1,-137.9 -177.5,-237.2 -331.4,-237.2" id="path100"/>
        <path fill="#181a69" fill-rule="nonzero" d="m13696.2,4938.6l459.8,0l0,1170.3l-459.8,0l0,-1170.3" id="path102"/>
        <path fill="#181a69" fill-rule="nonzero" d="m13580.2,4276.5l691.9,0l0,1170.3l-691.9,0l0,-1170.3" id="path104"/>
        <path fill="#181a69" fill-rule="nonzero" d="m12877.7,3422.1l241.9,0c0,404.4 263.3,733.4 587.1,733.4l1482.1,0c323.8,0 587.2,-329 587.2,-733.4l241.8,0c0,537.8 -371.8,975.3 -829,975.3l-1482.1,0c-457.1,0 -829,-437.5 -829,-975.3" id="path106"/>
        <path fill="#181a69" fill-rule="nonzero" d="m11764.4,3422.1l241.8,0c0,404.4 263.4,733.4 587.1,733.4l1482.2,0c323.8,0 587.1,-329 587.1,-733.4l241.9,0c0,537.8 -371.9,975.3 -829,975.3l-1482.2,0c-457.1,0 -828.9,-437.5 -828.9,-975.3" id="path108"/>
        <path fill="#181a69" fill-rule="nonzero" d="m15543.3,3028.4c0,-195.3 158.3,-353.6 353.6,-353.6c195.3,0 353.6,158.3 353.6,353.6c0,195.3 -158.3,353.6 -353.6,353.6c-195.3,0 -353.6,-158.3 -353.6,-353.6" id="path110"/>
        <g id="g112" transform="scale(1.0022300481796265) ">
          <path fill="#181a69" fill-rule="nonzero" d="m16300,3021.67c0,242.16 -196.3,438.42 -438.4,438.42c-242.2,0 -438.4,-196.26 -438.4,-438.42" id="path114"/>
        </g>
        <path fill="#181a69" fill-rule="nonzero" d="m14424.2,3028.4c0,-195.3 158.3,-353.6 353.6,-353.6c195.3,0 353.6,158.3 353.6,353.6c0,195.3 -158.3,353.6 -353.6,353.6c-195.3,0 -353.6,-158.3 -353.6,-353.6" id="path116"/>
        <path fill="#181a69" fill-rule="nonzero" d="m15217.2,3028.4c0,242.7 -196.7,439.4 -439.4,439.4c-242.7,0 -439.4,-196.7 -439.4,-439.4" id="path118"/>
        <path fill="#181a69" fill-rule="nonzero" d="m12648.1,3028.4c0,-195.3 158.3,-353.6 353.6,-353.6c195.3,0 353.6,158.3 353.6,353.6c0,195.3 -158.3,353.6 -353.6,353.6c-195.3,0 -353.6,-158.3 -353.6,-353.6" id="path120"/>
        <path fill="#181a69" fill-rule="nonzero" d="m13441.1,3028.4c0,242.7 -196.7,439.4 -439.4,439.4c-242.6,0 -439.4,-196.7 -439.4,-439.4" id="path122"/>
        <path fill="#181a69" fill-rule="nonzero" d="m11529,3028.4c0,-195.3 158.3,-353.6 353.6,-353.6c195.3,0 353.7,158.3 353.7,353.6c0,195.3 -158.4,353.6 -353.7,353.6c-195.3,0 -353.6,-158.3 -353.6,-353.6" id="path124"/>
        <path fill="#181a69" fill-rule="nonzero" d="m12322,3028.4c0,242.7 -196.7,439.4 -439.4,439.4c-242.6,0 -439.3,-196.7 -439.3,-439.4" id="path126"/>
        <path fill="#597ff5" fill-rule="nonzero" d="m16034.4,12567l-404.1,0c-127,0 -230,-102.9 -230,-230l0,-4389.8c0,-127.1 103,-230 230,-230l404.1,0l0,4849.8" id="path128"/>
        <g id="g130" transform="scale(1.0307899713516235) ">
          <path fill="#181a69" fill-rule="nonzero" d="m16300,6761.16l-354.3,0l0,456.15l354.3,0l0,-456.15" id="path132"/>
        </g>
        <path fill="#e5785c" fill-rule="nonzero" d="m9167.41,2629.3c50.87,-18.6 102.56,-37.4 156.58,-41.3c128.3,-9.2 254.14,130.6 291.43,238.7c71.39,206.9 -6.77,355.9 20.72,568.5c27.66,213.9 91.83,408.3 179.43,605c98.52,221.2 206.03,437.7 308.33,658c96.1,207.1 185.9,419 258.3,636.1c103.3,309.7 171.9,631 247.4,947.7c77.7,326.3 109.9,663.5 94.8,998.7c-6.6,148.2 -30.3,311.7 -143.8,407.3c-145.4,122.4 -379.6,70.3 -516.3,-61.8c-193.92,-187.5 -257.06,-482.2 -303.81,-737c-103.41,-563.7 -230.74,-1122.5 -348.12,-1683.3c-62.38,-298.1 -116.91,-597.7 -167.71,-898c-25.83,-152.6 -53.7,-322.9 -111.24,-464.7c-103.26,-254.6 -257.33,-451.3 -499.62,-586c-129.4,-71.9 -303.17,-117.9 -399.73,-236.1c-13.26,-16.3 -18.51,-41.1 -6.47,-58.2c5.97,-8.6 15.21,-14.1 24.24,-19.2c134.94,-77.1 283.92,-129.2 437.29,-154c72.19,-11.7 151.38,-5.9 220.02,-25.9c87.3,-25.5 172.83,-63.3 258.26,-94.5" id="path134"/>
        <path fill="#061f33" fill-rule="nonzero" d="m10000.6,4397.4c41.3,86.7 82.7,173.4 123.3,260.8c96.1,207.1 185.9,419 258.3,636.1c103.3,309.7 171.9,631 247.4,947.7c77.7,326.3 109.9,663.5 94.8,998.7c-6.6,148.2 -30.3,311.7 -143.8,407.3c-145.4,122.4 -379.6,70.3 -516.3,-61.8c-193.92,-187.5 -257.06,-482.2 -303.81,-737c-103.41,-563.7 -230.74,-1122.5 -348.12,-1683.3c-33.32,-159.2 -64.4,-318.9 -93.86,-478.8" id="path136"/>
        <path fill="#f8a17a" fill-rule="nonzero" d="m14211.5,8890.27c-539.7,-31.46 -1058.8,-253.21 -1559,-442.89c-590.7,-223.98 -1182.1,-404.58 -1795.2,-548.88c-358.2,-84.4 -868.3,-235.5 -890.66,-683.3c-21.41,-428.5 483.76,-581.1 839.56,-565.8c648.7,28 1298.2,8.5 1947.2,14c484.4,4.1 972,7.3 1450.6,90.1c422.8,73.2 780.7,236.4 951.1,658.4c182.4,451.7 32.6,1074.78 -356.6,1377.12c-92.1,71.52 -212.1,97.05 -328.6,102.67c-87.6,4.23 -173.6,3.52 -258.4,-1.42" id="path138"/>
        <path fill="#f8a17a" fill-rule="nonzero" d="m12125.8,3357.5c-52.4,212.6 -198.9,295.2 -291.2,488.7c-92.9,194.6 -144.6,392.7 -177.8,605.4c-37.4,239.3 -64.7,479.5 -98.4,720c-31.7,226.1 -71.4,452.8 -128.5,674.5c-60.5,235.2 -133.2,495.3 -262.1,701.3c-154.3,246.7 -311.2,491.7 -466.8,737.6c-42.4,66.9 -85.7,134.9 -145.7,186.6c-192.1,165.3 -447.2,51.1 -535.3,-163c-73.5,-179 -26.02,-326.1 43.6,-494.4c219.2,-529.5 415.7,-1067.9 621.7,-1602.6c109.4,-284.1 226.3,-565.4 346.7,-845.1c61.2,-142.2 130.2,-300.3 158.9,-450.7c30.1,-157.9 55,-295.9 -14.5,-449.2c-35.5,-78.3 -118.8,-157.6 -185,-211.8c-40.5,-33.2 -85.2,-60.7 -129.9,-88.2c-102.7,-63.2 -205.5,-126.4 -308.3,-189.6c-31.9,-19.5 -64.2,-39.5 -89.6,-67c-25.3,-27.5 -43.4,-63.9 -40.5,-101.2c3.5,-47.3 40.1,-87 82.8,-107.8c63.6,-31.1 125.1,-30.7 191.8,-15.6c386.3,87.7 772.7,175.4 1159.1,263.1c52.8,12 106.5,24.2 153.9,50.3c112.7,62 142.5,247.7 115.1,358.7" id="path140"/>
        <path fill="#0b2d4e" fill-rule="nonzero" d="m11607.4,4802c-16.1,123.1 -31.7,246.3 -49,369.6c-31.7,226.1 -71.4,452.8 -128.5,674.5c-60.5,235.2 -133.2,495.3 -262.1,701.3c-23.3,37.2 -46.9,74.2 -70.3,111.4c551.8,13 1104,-0.1 1655.9,4.6c484.4,4.1 972,7.3 1450.6,90.1c422.8,73.2 780.7,236.4 951.1,658.4c182.4,451.7 32.6,1074.78 -356.6,1377.12c-92.1,71.53 -212.1,97.05 -328.6,102.67c-87.6,4.23 -173.6,3.52 -258.4,-1.42c-539.7,-31.45 -1058.9,-253.21 -1559,-442.89c-590.7,-223.98 -1182.1,-404.58 -1795.2,-548.88c-358.2,-84.4 -868.3,-235.5 -890.66,-683.3c-3.28,-65.6 5.89,-124.6 24.86,-177.7c13.1,-73.4 40.2,-146.1 72.1,-223.3c219.2,-529.5 415.7,-1067.9 621.7,-1602.6c79.8,-207.3 163.6,-413 249.8,-617.7" id="path142"/>
        <path fill="#597ff5" fill-rule="nonzero" d="m12178.5,3333.6c-26.4,83.4 -69.6,162.5 -123,232.9c-8.2,10.8 -105.5,101.4 -106,99.7c-28.6,-100 -81.2,-183.2 -136.1,-270c-61.8,-97.7 -191.4,-150 -294.6,-190.2c-152,-59.3 -315.8,-89.7 -479,-85.8c-67.5,1.6 -136.8,9.4 -196.5,41c-7.1,3.8 -14.4,8 -22.5,8.5c-9.1,0.6 -17.9,-3.6 -26.1,-7.8c-121.1,-61 -240.7,-127.4 -365.4,-180.8c-96.2,-41.1 -221.8,-67.7 -288.4,-155.8c-39.9,-52.7 -44.1,-136.1 4.8,-180.6c93.7,-85.1 227.5,-97 348.3,-96.8c144,0.2 287,1.8 430.3,18.6c204.6,23.9 406.7,66.3 604.6,123.1c100.2,28.7 199.4,61.2 297.4,96.7c89.1,32.3 194.2,60.6 275.5,109.4c136.9,82.4 117.9,307.6 76.7,437.9" id="path144"/>
        <path fill="#597ff5" fill-rule="nonzero" d="m9651.93,3319.4c-181.04,-139.1 -335.88,-263.2 -567.54,-307.4c-119.01,-22.8 -242.08,-25 -361.72,-5.7c-61.17,9.9 -121.44,25.4 -179.62,46.8c-25.12,9.2 -47.33,18.2 -66.4,34.1c-16.81,13.9 -19.72,30.2 -45.83,34.2c-23.02,3.6 -46.25,-3.1 -68.59,-9.7c-188.76,-55.9 -378.22,-112 -557.49,-193.3c-50.27,-22.8 -101.51,-49 -134.8,-93.1c-39.9,-52.7 -44.1,-136.1 4.86,-180.6c129.71,-117.9 329.56,-93.7 489.41,-96.6c314.65,-5.8 633.88,50.6 947.39,25.5c149.46,-11.9 297.27,-14.8 447.83,9.1c115.96,18.5 182.88,95.9 193.79,211c17.06,180.1 -18.54,364.8 -101.29,525.7" id="path146"/>
        <path fill="#f8a17a" fill-rule="nonzero" d="m10032.9,9703.8c84.6,-61.81 244.7,-48.42 344.7,-55.91c104.4,-7.8 206.5,-22.47 311.8,-19.37c62.6,1.84 132.6,26.84 155.3,85.19c7.6,19.59 9,40.98 9.9,61.97c3.1,73.41 -0.8,144.34 -11.7,216.24c-7.2,47.78 -5.2,119.18 -69,126.58c-23.6,2.7 -47.1,-4.5 -70.4,-9.4c-89.3,-18.8 -183,-2.8 -268.2,29.7c-72.2,27.5 -139.4,66.4 -205.1,106.7c-62.9,38.6 -134.6,58.1 -203.3,84.8c-112.79,43.8 -250.91,70.5 -345.94,-18.9c-127.35,-119.7 -247.62,-256.5 -315.35,-420.43c-15.77,-38.18 -29.1,-79.2 -23.67,-120.15c5.43,-40.95 34.6,-81.35 75.48,-87.31c45.79,-6.68 85.45,28.95 120.49,59.18c78.77,67.95 188.94,184.99 307.22,157.56c84.59,-19.62 119.94,-144.65 185.07,-194.46l2.7,-1.99" id="path148"/>
        <g id="g150" transform="scale(1.0321799516677856) ">
          <path fill="#0b2d4e" fill-rule="nonzero" d="m13324.6,14318.5c-181.6,180.4 -370.8,390.3 -431.8,646.1c-53.6,225.3 -124.7,426.4 -6.3,649.2c146.2,275 432.2,402.9 728.3,430.6c358.2,33.5 689.6,43.9 1018.5,-132.9c216.7,-116.5 399.6,-297 516.4,-513.7c52,-96.4 98.2,-203.7 109.7,-313c16.9,-159.1 1.7,-301.5 87.4,-446.4c168.2,-284.8 470.8,-459 514,-815.9c37.5,-308.8 -152,-618.6 -85.5,-922.4c35,-159.8 136.8,-295.5 237.3,-424.7c100.4,-129.1 204.7,-262.1 246,-420.4c41.4,-158.3 2.4,-350.1 -135.4,-438.4c-42.5,-27.3 -92.8,-44 -128,-80.3c-63.2,-65.1 -57.3,-167.7 -78.2,-256c-41.1,-174.8 -193.4,-300.7 -349.3,-389.8c-296.2,-169.2 -643,-254.7 -982.5,-221.4c-339.4,33.4 -669.1,189.3 -895.1,444.8c-161.7,182.7 -268.1,412.3 -311.2,652.4c-69.8,387.5 22,783.4 100.1,1169.3c50.5,249.8 95.4,504.6 87,760.5c-4,123.5 -17.4,254.2 -54.7,372.5c-33.7,106.9 -105.8,169.7 -186.7,249.9" id="path152"/>
        </g>
        <g id="g154" transform="scale(1.03889000415802) ">
          <path fill="#0b2d4e" fill-rule="nonzero" d="m15728.4,11457.3c16,19.3 35,30.4 58.3,37.5c23.3,7 51,9.2 81,9.1c34.8,0 72.6,-2.8 110.7,-2.8c26.5,0 53.2,1.4 79.4,6.5c35.1,6.9 67.5,21.1 96.1,40.4c42.9,29.1 77.7,69.6 102.5,115.7c24.8,46.1 39.9,97.9 42.9,150c0.5,7.9 0.7,15.8 0.7,23.7c0,64.3 -14.8,126.9 -39,185.7c-24,58.8 -57.5,114 -95,164c-79.6,105.9 -177.3,193.4 -262.2,288.6c-34.1,38.3 -66.5,78.5 -93.2,121c-26.5,42.6 -47.2,87.3 -58.5,134.8c-7.5,31.8 -10.7,64 -10.7,96.9c-0.1,86.8 22.5,177.2 44.8,266.6c36.6,147.2 62.2,297.2 62.2,444.3c0,107.9 -13.8,214.3 -47.4,316.7c-33.6,102.4 -87,200.7 -165.6,291.9c-52,60.5 -110.7,113 -168.5,164.9c-57.9,51.9 -115,103.1 -164.6,160.3c-24.5,28.1 -47.6,55.8 -64.8,84.5c-17.3,28.7 -28.9,57.9 -31.7,90.4c-1.1,12.3 -1.6,24.8 -1.6,37.4c0,40.5 4.9,83.1 9.9,126.4c5.1,43.4 10.4,87.4 10.6,131.3l0,0c0,1.5 0,3 0,4.5c0,203 -63.3,400.8 -170.9,571.8c-107.6,171 -259.4,315.4 -437.4,411.7c-189.6,102.5 -405.1,152.4 -619.5,152.4c-258.2,0 -515,-72.3 -722.8,-213.7c-207.8,-141.2 -366.5,-352.4 -425.8,-627.4l47,-10.2c56.9,262.5 207.1,462.4 405.8,597.8c198.8,135.4 446.6,205.4 695.8,205.4c206.9,0 414.8,-48.3 596.6,-146.6c170.3,-92.2 316.4,-231 419.5,-395c103.2,-164.1 163.6,-353.3 163.6,-546.2c0,-1.5 0,-2.9 0,-4.3l0,0c-0.2,-40.1 -5.1,-82.5 -10.2,-125.9c-5.1,-43.4 -10.3,-87.7 -10.3,-132c0,-13.9 0.5,-27.7 1.7,-41.6c3.7,-41.5 18.6,-78.2 38.5,-111.1c19.9,-33 44.8,-62.6 69.6,-91.2c52.4,-60.2 111,-112.6 168.8,-164.5c57.9,-51.8 114.9,-103.1 164.3,-160.5c74.4,-86.5 124.5,-178.8 156.3,-275.5c31.7,-96.7 44.9,-197.9 44.9,-301.7c0.1,-141.5 -24.7,-287.8 -60.7,-432.7c-22,-89.2 -46.2,-183.1 -46.2,-278.2c0,-36 3.5,-72.1 11.9,-108c12.8,-53.8 36,-103.4 64.7,-149.2c28.6,-45.9 62.9,-88.1 98,-127.5c87.4,-97.8 183.9,-184.5 259.6,-285.4c35.6,-47.4 66.8,-99.3 89,-153.5c22.2,-54.2 35.4,-110.5 35.4,-167.4c0,-7 -0.2,-13.9 -0.6,-20.9c-3.4,-59.6 -25.7,-120.2 -61.5,-168c-17.9,-23.9 -39.1,-44.6 -62.9,-60.6c-23.7,-16 -50,-27.5 -78.3,-33.1c-21.7,-4.2 -45.5,-5.6 -70.2,-5.6c-35.6,0 -73.3,2.8 -110.7,2.9c-32.2,-0.1 -64.3,-2.2 -94.7,-11.2c-30.4,-8.9 -59.3,-25.6 -81.7,-53.1l37.1,-30.5" id="path156"/>
        </g>
        <path fill="#061f33" fill-rule="nonzero" d="m14312.5,13901.2c-19.5,58.5 -30.4,117 -28.1,171c1.1,24.7 5.5,54.6 28.4,64.1c11.5,4.7 24.6,2.6 36.4,-1.2c57.3,-18.6 94.4,-72.2 134.3,-117.4c179.7,-203.4 501.4,-346.5 760.1,-415.3c121.1,-32.2 263.8,-64.7 315,-178.9c49.5,-110.5 -15,-236.2 -20.8,-357c-3.6,-76.8 17.8,-154.6 60.3,-218.7c53,-80.1 136.8,-138 180.5,-223.6c30,-58.6 38.6,-125.8 41.2,-191.6c3.5,-88.8 -3.9,-180.4 -42.8,-260.2c-67.8,-139.1 -226.9,-220.5 -381.6,-218.5c-154.6,2 -302,78 -413.5,185.2c-111.5,107.2 -190.6,243.7 -255,384.4c-103.8,226.5 -172.9,468.7 -205,715.8c-13.4,103.1 10.1,255.7 -28.8,349.1c-45.2,108.7 -141,193.7 -180.6,312.8" id="path158"/>
        <path fill="#f8a17a" fill-rule="nonzero" d="m13207.7,10448.1c266.8,-92.2 560.3,-100.6 834.4,-34.6c288.8,69.6 660.7,231.7 750.8,531.2c80.4,267 174.6,526.8 218.1,803.7c67.1,426.9 22.5,869.7 -122.1,1276.5c-73.3,206.2 -179.4,384.5 -289,571.8c-113.3,193.8 -189.6,427.4 -257.1,642.6c-8.9,28.2 3.8,15.6 -20.6,35.6c-78.4,64.3 -202.4,57.5 -294.8,16.5c-92.3,-41 -164.5,-109.3 -247.3,-163.7c-89.8,-59 -204.2,-118.3 -208.9,-219.1c-1.4,-30.4 8.2,-60.6 17.7,-90.2c67,-209.1 215.7,-498.6 96.6,-706.1c-139.8,-243.6 -350.7,-429.4 -538.1,-634.1c-206.9,-226.1 -462.9,-504.3 -560.7,-799.4c-46.8,-140.9 -26.5,-295.9 16.5,-438.1c96.4,-318.4 190.8,-620.5 519,-759.7c28.1,-12 56.7,-22.9 85.5,-32.9" id="path160"/>
        <path fill="#e5785c" fill-rule="nonzero" d="m13712.9,13430.8c-28.4,135.6 -89.1,273.6 -125.6,387.7c-9.5,29.6 -19.1,59.9 -17.7,90.3c4.6,100.8 119.1,160 208.9,219c82.8,54.4 154.9,122.7 247.3,163.7c92.3,41 216.4,47.8 294.8,-16.4c24.4,-20 11.7,-7.4 20.5,-35.6c31.4,-100 64.9,-203.9 102.9,-306c-196.6,-245.8 -453.3,-445.2 -731.1,-502.7" id="path162"/>
        <path fill="#f8a17a" fill-rule="nonzero" d="m14744,14502.3c69,158.7 113.6,318.4 128,461c62.2,615.4 -549.8,1044.9 -1124.4,837.6c-196.7,-71 -384.2,-232.2 -467.1,-422.1c-126.6,-289.9 -213.3,-598.7 -419.1,-846c-7.2,-8.7 -14.5,-17.4 -18.6,-27.8c-15.1,-39 21.8,-78.9 59.3,-97.3c81.1,-40 108.4,-58.2 121.5,-150.9c17.9,-126.3 53.1,-251.6 114.9,-363.8c84.1,-152.8 241.5,-263 413.8,-289.8c521.4,-81.2 976,403.6 1191.7,899.1" id="path164"/>
        <path fill="#f8a17a" fill-rule="nonzero" d="m11453.8,11477.5c-173.6,236.5 -434.5,407.2 -720.7,471.5c-135.5,30.5 -253.9,83.5 -389.5,113.5c-80.5,17.8 -164.9,36.8 -247.8,26.9c-33.7,-4.1 -59.2,-4.7 -74.3,-35.5c-3.3,-6.7 -7.6,-77.2 10.4,-68.1c-26.7,-13.5 -32.93,-51.4 -20.7,-78.7c12.3,-27.3 37.7,-46.1 62.8,-62.6c-22.8,-45.9 -14.5,-105.4 20,-143.3c7.9,-8.7 17.5,-17.5 18.4,-29.2c0.5,-7 -2.3,-13.7 -4.7,-20.2c-17.6,-47.2 1.1,-87.3 46.2,-106.9c49.8,-21.7 103,-17.9 153.7,-36.3c64.4,-23.3 127.3,-46.8 193.7,-64.4c119.9,-31.7 256.9,-20.2 372.3,-63c44.2,-16.4 81,-48 116.7,-78.9c34.5,-29.9 69,-59.8 103.4,-89.6" id="path166"/>
        <path fill="#e5785c" fill-rule="nonzero" d="m13278.7,15374.7c0.6,1.4 1.2,2.7 1.8,4.1c82.9,189.9 270.4,351.1 467,422.1c574.7,207.3 1186.7,-222.2 1124.5,-837.6c-14.4,-142.6 -59,-302.3 -128,-461c-50.9,-117 -115.4,-233.3 -190.7,-341.9c-39.3,76.7 -51.9,156.3 -46.8,236.7c4.4,68.3 21.6,137.1 46,204.9c41.5,115.1 48,251.1 -57,340.9c-60.2,51.6 -154.2,63.8 -221.1,21.1c-53.1,-34 -86.2,-97.4 -96.8,-158.1c-4.9,-28.3 -16.4,-147.4 -69.7,-89c-60.8,66.6 -78.4,158.7 -128.1,232.3c-50.7,75 -103.4,134.6 -186.7,174.3c-107.1,51 -224.4,77.6 -331,129.5c-65.5,31.9 -129.1,72.4 -183.4,121.7" id="path168"/>
        <g id="g170" transform="scale(1.0026899576187134) ">
          <path fill="#0b2d4e" fill-rule="nonzero" d="m14408.5,14300.9c-20.7,-88.9 -18.7,-180.8 19.7,-274.3c75.8,-184.8 285.4,-308 482.1,-274c108.6,18.8 204.8,78.7 304.2,126.3c335.6,160.3 735.4,180.7 1085.5,55.2c-12.1,201.7 -185.6,363.7 -376.4,430.3c-190.9,66.6 -398.2,58.8 -600.3,58.1c-45.8,-0.2 -92.7,0.3 -135.5,16.7c-54.6,21 -96.7,66.1 -128.9,115c-77,116.6 -100.7,264.6 -115.6,401.1c-18.2,168.7 -55.2,337.2 -129.6,490.6c-107.3,221 -303.7,410.1 -545,455.8c-73.4,13.9 -148.6,14.5 -223.2,12.2c-169.6,-5.3 -340.9,-25.7 -498.4,-88.9c-80.2,-32.1 -157.2,-76.2 -215.5,-139.9c-23.3,-25.4 -44.3,-56.8 -42.1,-91.1c1.4,-22 12.2,-42.2 23.1,-61.3c49.9,-87.2 125.9,-160.9 208,-219.3c96.4,-68.4 207.5,-113.8 304.5,-181.4c75.5,-52.6 117.7,-119.9 155.3,-201.9c36.9,-80.5 39.1,-174 88.1,-249.5c43,-66.1 73.7,49.2 83.2,76.2c20.2,58 63.2,115 120.9,139.7c72.9,31.1 163.3,3.8 214.2,-56.8c88.6,-105.5 60,-238.3 0.5,-344.7c-35.2,-62.7 -63.4,-127.6 -78.8,-194.1" id="path172"/>
        </g>
        <path fill="#80b1ff" fill-rule="nonzero" d="m12603.2,11240.7c-43,142.2 -63.3,297.2 -16.5,438.1c97.8,295.1 353.8,573.3 560.7,799.4c87,95.1 179,186.1 266.7,280.6c240.4,-46.3 612.3,77.7 804.6,174c222.3,111.2 389.8,262.6 504.4,449.7c63.1,-114.4 120.7,-230.7 165.8,-357.6c144.6,-406.8 189.2,-849.6 122.1,-1276.5c-52.7,-335.6 -120.7,-643 -124.5,-988.1c-7.8,-712.6 -83.7,-1380.96 110.3,-2082.04c45.4,-164.05 5.8,-238.33 -152.5,-279.59c-122,-31.77 -241.2,-72.97 -364.2,-102.57c-349.6,-84.1 -708.8,-131.4 -1068.1,-143.3c-343.1,-11.3 -710.6,18.4 -982.9,227.45c17.5,-13.45 207.7,409.27 220.6,448.48c51.4,157.1 76.6,315.49 82.7,479.95c14.7,402.84 27.4,806.72 21.1,1209.92c-4.3,268.7 -73.1,467.3 -150.3,722.1" id="path174"/>
        <path fill="#f8a17a" fill-rule="nonzero" d="m13290.5,11608.3c-123.3,-205.2 -269,-399.2 -403.9,-596.9c-184.4,-270.1 -427.5,-487.5 -296.4,-850.8c25,-69.3 65.8,-137.7 131.6,-170.89c117.6,-59.27 208.8,19.69 304.4,79.19c307,190.9 568.1,525.4 816.5,785.5c299.8,313.8 595.3,631.7 886.4,953.7c76.4,84.5 153.5,170.8 202.3,273.7c101.1,213.1 56,494.8 -109.8,663.5c-330.6,336.6 -799.2,-6.2 -1016.5,-290c-202.2,-264.1 -344,-563.2 -514.6,-847" id="path176"/>
        <path fill="#f8a17a" fill-rule="nonzero" d="m12406.4,10656c-550.6,-82.7 -1064.4,-291.1 -1582.9,-484c-112.5,-41.9 -291.6,-113.3 -373.6,-200.75c-55.4,-59.24 -78.1,-156.72 -30.4,-222.37c15.8,-21.77 37.8,-38.31 60.7,-52.42c98.4,-60.62 221.1,-80.64 333.7,-54.46c189.4,44.05 397.6,54.54 595,78.62c372.6,45.44 743.4,104.77 1112.3,173.4c119.5,22.24 250.4,46.29 359.9,101.18c97.7,48.9 190.8,155.7 248.5,248.5c8.1,13.1 15.9,26.8 18.6,42c2.9,16.4 -0.3,33.2 -4.4,49.3c-34.4,134.1 -121.3,212.3 -240,270.8c-145.4,71.6 -337.1,74.3 -497.4,50.2" id="path178"/>
        <path fill="#f8a17a" fill-rule="nonzero" d="m12784.4,10816.1c-431.9,351.6 -931.8,591.2 -1423.5,844.9c-106.7,55 -280.1,139.4 -399.9,141.1c-81.1,1.1 -168.5,-47.7 -184.9,-127.2c-5.5,-26.3 -2.9,-53.7 2.1,-80.1c12.4,-66 38.1,-136.5 89.8,-181.6c185.7,-161.8 366.6,-328.3 553.2,-489c284.3,-244.9 577.8,-479.2 876.9,-705.9c96.9,-73.4 202.8,-154 317.1,-198c101.9,-39.31 243.5,-36.34 351,-16.5c15.1,2.8 30.5,6.3 43.6,14.6c14.1,8.8 24.4,22.5 33.5,36.4c76,115.6 75.3,232.6 38.7,359.7c-44.9,155.7 -171.9,299.3 -297.6,401.6" id="path180"/>
        <path fill="#ffffff" fill-rule="nonzero" d="m9507.05,12611.8c32.84,67.9 26.97,139.2 6.26,204c-19.91,66.1 -55.44,123.1 -93.92,185.4c-38.88,61.5 -78.57,128.5 -102.88,209.1c-24.65,81.5 -17.6,172.9 5.06,250.3c48.96,157.7 149.21,273.9 218.27,392.8c34.61,60.2 62.93,121.3 74.12,188.9c12.58,67 8.26,138.3 -24.64,205.6c57.05,-49.9 84.69,-130.8 88.42,-209.2c3.57,-79.1 -16.41,-159.4 -46.76,-230c-59.95,-143.3 -149.81,-259.5 -184.78,-385.2c-19.83,-62.3 -24.71,-122.6 -10.63,-182.9c11.77,-61.9 44.12,-124.3 73.22,-192c30.88,-66.2 60.43,-142.6 66.98,-221.2c6.68,-77.4 -11.04,-164.9 -68.72,-215.6" id="path182"/>
        <path fill="#ffc937" fill-rule="nonzero" d="m9760.5,11256.5l-445.65,0c-121.5,0 -220,98.5 -220,220l0,1048.6l885.65,0l0,-1048.6c0,-121.5 -98.5,-220 -220,-220" id="path184"/>
        <path fill="#ffc937" fill-rule="nonzero" d="m10042.3,11596.9c-136.61,0 -247.37,112.4 -247.37,251.1c0,138.6 110.76,251 247.37,251c136.7,0 247.4,-112.4 247.4,-251c0,-138.7 -110.7,-251.1 -247.4,-251.1zm0,641.2c-212.33,0 -384.5,-174.6 -384.5,-390.1c0,-215.5 172.17,-390.2 384.5,-390.2c212.4,0 384.6,174.7 384.6,390.2c0,215.5 -172.2,390.1 -384.6,390.1" id="path186"/>
        <path fill="#ffd263" fill-rule="nonzero" d="m9227.27,11738c-26.33,0 -47.88,21.5 -47.88,47.9l0,617.4c0,26.3 21.55,47.8 47.88,47.8c26.34,0 47.89,-21.5 47.89,-47.8l0,-617.4c0,-26.4 -21.55,-47.9 -47.89,-47.9" id="path188"/>
        <path fill="#efb126" fill-rule="nonzero" d="m9775.96,12525.1l0,-1044.3c0,-123.9 -100.42,-224.3 -224.29,-224.3l204.53,0c123.88,0 224.29,100.4 224.29,224.3l0,1044.3l-204.53,0" id="path190"/>
        <path fill="#4287f5" fill-rule="nonzero" d="m14252.8,11295.6c-10,-12.4 -19.9,-24.8 -29.6,-37.4c-283.1,-363.7 -597.7,-698.9 -920.6,-1031.1c-68.8,-70.9 -138.7,-142 -221.8,-195.3c-212.5,-136.68 -520.7,-200.12 -767.1,-239.48c-87.5,-13.98 -949.8,-154.83 -966.7,-101.47c-61.7,194.82 -90.1,400.15 -83.6,604.45c0.8,25.4 3,52.8 19.7,71.9c12.7,14.5 31.6,21.6 49.8,28c180.9,63.9 365.1,118.7 551.6,164c121.7,29.6 245.3,50.5 368,75.5c110,22.4 225.1,38.7 321.1,101.8c18.8,12.3 36.5,26.3 53.8,40.6c107,88.3 172.1,201.2 250.2,315.2c136.9,199.6 273.7,399.2 410.6,598.7c173.2,252.7 330.6,520.6 517,764.1c217.2,283.8 685.9,626.6 1016.5,290c165.7,-168.8 210.9,-450.4 109.8,-663.5c-48.8,-102.9 -126,-189.2 -202.3,-273.7c-154.3,-170.7 -331.2,-333 -476.4,-512.3" id="path192"/>
        <g id="g194" transform="scale(1.001039981842041) ">
          <path fill="#80b1ff" fill-rule="nonzero" d="m13927.4,16248.1c52.3,5.7 104.7,11.4 157,16.4c52.4,4.8 105,8.7 157.6,11.2c105.3,5.3 211.3,4.9 316.8,-6.7c105.3,-11.7 210.3,-36 309.2,-76.6c98.7,-40.7 192.1,-96.9 270.9,-170.9c39.3,-36.9 75.6,-77.6 105.4,-123.1c29.9,-45.3 54.5,-94.4 72.2,-145.8c35.8,-103 45.2,-213 38.6,-320.1c-6.2,-107.2 -30.1,-213 -58.7,-314.3c-13.6,-50.6 -26.7,-100.6 -33.1,-150.7c-6.8,-50 -5.9,-99.9 7.1,-146.9c12.8,-47.9 34.4,-93.1 63.4,-133.7c29,-40.7 64.7,-76.9 103.9,-109.7c78.8,-65.6 169.6,-118.6 256.9,-179.1c43.7,-30.3 86.8,-62.4 126.8,-99c40,-36.4 76.4,-77.9 105.5,-124.7c29.1,-46.6 50.2,-98.4 61.9,-152c11.8,-53.6 14.6,-108.3 12.7,-162c-4.5,-107.5 -26.2,-211.1 -37.4,-314.6c-5.8,-51.6 -8.2,-103.4 -3.7,-154.5c0.4,-12.9 2.7,-25.4 4.7,-38c1,-6.3 1.8,-12.7 3.1,-19l4.8,-18.5l4.7,-18.5c1.8,-6.1 4.4,-12 6.5,-17.9c4.6,-11.9 8.4,-24.1 14.2,-35.5c21.7,-46.3 52.6,-88.4 85.1,-129.4c32.6,-41 67.1,-81.2 96.7,-125.4c29.6,-44.1 54.7,-91 74.8,-139.8c20,-48.9 35.1,-99.7 45,-151.4c-12.3,51.1 -29.8,100.9 -51.8,148.4c-21.8,47.6 -48.3,93 -78.9,135.2c-30.5,42.3 -66,80.9 -100.4,121c-34.1,40.1 -67.7,82.2 -92.5,130.6c-23.9,48.7 -38.7,101.7 -44.6,155.3c-6.1,53.6 -4.8,107.6 -0.3,160.5c8.8,106 28.9,209.6 31.1,312.7c0.8,51.4 -2.9,102.5 -14.6,151.4c-11.5,49.1 -31.1,95.8 -58.2,138.1c-26.9,42.3 -60.9,80.3 -99,114.3c-38.1,34 -79.9,64.5 -122.9,93.7c-86.1,58.5 -177.9,111.8 -261.5,180.6c-41.4,34.5 -80.5,73.5 -112.8,118.5c-32.2,44.8 -57.1,95.8 -71.4,149.5c-15,54.7 -15.5,112.2 -7.9,166.2c7.2,54.3 21.2,106.3 35.1,157.1c14.3,50.9 27.5,100.6 37.6,151.5c10,50.7 17.2,101.9 21,153.2c7.5,102.4 -0.5,206.3 -32.8,302.8c-32.3,96.3 -88.9,184 -163.1,254.8c-36.9,35.6 -77.1,68 -120.4,95.8c-43.4,28 -89.2,52.2 -136.4,73.3c-94.8,41.9 -196.2,67.9 -299.6,82.4c-103.3,15.2 -208.3,19.4 -313.3,17.8c-52.4,-0.7 -105,-2.8 -157.4,-5.6c-52.5,-2.5 -105.1,-5.7 -157.6,-8.9" id="path196"/>
        </g>
        <path fill="#4287f5" fill-rule="nonzero" d="m12275.7,11250.2c199.8,-136.3 399.5,-272.6 599.3,-408.9c163.9,-111.7 270.6,-271.2 220.1,-480.1c-13,-53.5 -36.7,-105.1 -73.9,-145.5c-42.3,-45.9 -99.8,-75.3 -159.1,-94.4c-210.2,-67.6 -405.9,-9.9 -584.1,107.3c-355.6,233.9 -697.5,488.6 -1023.3,762.5c-23,19.4 -46.8,39.8 -59.3,67.2c-32.2,70.4 83.8,185.1 123.1,239.2c71.5,98.3 186.2,180.6 274.8,265.3c39.3,37.5 79,22.3 126.1,4.7c200.5,-74.9 379.5,-196.7 556.3,-317.3" id="path198"/>
        <path fill="#f8a17a" fill-rule="nonzero" d="m10440.7,11971.2c-93.3,42.4 -190.4,87.8 -252.9,169.1c-25.9,33.7 -75.7,116 -2.9,126.1c45.3,6.2 94.1,-57.9 128.7,-80c34,-21.7 75.6,-26.5 115.5,-32.2c288.2,-41.2 583.8,-168.9 733.6,-418.5" id="path200"/>
        <path fill="#f8a17a" fill-rule="nonzero" d="m10423.6,12006.6c-10.3,23.7 -33.9,38.7 -57.2,49.9c-79.5,38.1 -171,48.9 -258.1,35.4c-32.5,-5 -67,-14.8 -87.7,-40.4c-20.83,-25.6 -19,-71 10.7,-85.3c-29.3,-19.5 -45.91,-56.6 -40.97,-91.4c4.95,-34.9 31.17,-65.8 64.77,-76.4c-2.8,0.9 -14.9,-48.2 -14.5,-54c1.8,-24.1 16.4,-45.2 34.4,-60.5c38.6,-32.7 90.4,-46.1 141,-48.4c50.5,-2.2 100.9,5.6 151.3,10.3c25,2.4 51.2,4.3 72.6,17.6c41.9,26 45.1,96 5.7,125.7c24.6,-18.6 48.4,88.7 43.4,103.5c-12.2,36.9 -54.3,41.5 -88.7,50.8c24.1,10 33.4,39.7 23.3,63.2" id="path202"/>
      </g>
    </g>
  </g>
</svg>