<svg width="2750" height="2449.9734" xmlns="http://www.w3.org/2000/svg">
 <metadata id="metadata8">image/svg+xml</metadata>

 <g>
  <title>background</title>
  <rect fill="none" id="canvas_background" height="2451.9734" width="2752" y="-1" x="-1"/>
 </g>
 <g>
  <title>Layer 1</title>
  <g id="g10" transform="matrix(1.3333333,0,0,-1.3333333,0,2449.9733) ">
   <g id="g12" transform="scale(0.10000000149011612) ">
    <g id="g14" transform="scale(1.0478299856185913) ">
     <path fill="#f5f5fe" fill-rule="nonzero" d="m16300,8784.85c0,-3718.27 -3014.2,-6732.6 -6732.59,-6732.6c-3718.32,0 -6732.6,3014.33 -6732.6,6732.6c0,3718.35 3014.28,6732.65 6732.6,6732.65c3718.39,0 6732.59,-3014.3 6732.59,-6732.65" id="path16"/>
    </g>
    <g id="g18" transform="scale(1.2408100366592407) ">
     <path fill="#c8d4f9" fill-rule="nonzero" d="m3008.52,3562.03c72.03,-33.53 145.36,-59.8 220,-62.86c151.22,-6.05 280.4,83.33 409.9,172.71c126.09,87.04 252.5,174.08 399.85,173.03c230.17,-1.77 417.97,-221.79 648.08,-216.55c299.34,6.77 388.99,308.59 579.45,475.9c193.59,170.13 482.34,409.16 756.72,373.46c284.41,-36.91 486.46,-337.6 772.56,-357.51c204.21,-14.1 388.12,120.89 531.45,267.57c143.33,146.68 273.07,316.25 457.21,405.95c178.08,86.71 396.24,85.42 573.3,-3.47c170.54,-85.59 293.92,-240.65 439.07,-364.68c145.23,-124.03 342.52,-221.63 522.56,-158.77c129.43,45.21 217.84,161.75 315.52,258.22c179.32,177.22 421.61,301.5 673.31,296.1c382.1,-8.22 646.5,-283.61 910.8,-522.4c195.9,-176.9 400.3,-535.7 696,-536.35c164.3,-0.32 297.8,111.14 430.4,222.6c139.1,116.86 277.2,233.8 449.2,221.71c310.8,-21.92 465.5,-452.37 775.2,-487.18c158.9,-17.9 311.8,73.42 459.5,164.81c187.3,115.73 366.3,231.46 538.8,125c167.9,-103.72 205.5,-378.95 398.4,-420.13c194.9,-41.67 340.7,199.79 538,227.84c158.1,22.4 306.5,-105.42 363.3,-255.16c432.9,-1142 -1815.4,-1252.97 -2424.8,-1252.97c-609.7,0 -1166.9,79.38 -1593.4,210.5c-661.1,-445.59 -1981.96,-749.59 -3503.95,-749.59c-1528.87,0 -2854.95,306.82 -3512.94,755.64c-429.01,-134.67 -993.83,-216.55 -1612.85,-216.55c-503.78,0 -1016.61,47.55 -1503.1,183.99c-279.9,78.58 -875.785,214.29 -864.584,600.82c6.416,221.14 199.784,402.39 412.274,461.39c111.39,30.95 229.98,35.46 343.36,12.97c227.06,-44.89 476.95,-190.36 668.09,-59.39c74.26,50.85 121.36,136.28 199.68,180.61c168.74,95.5 346.78,-40.22 533.64,-127.26" id="path20"/>
    </g>
    <g id="g22" transform="scale(1.2300599813461304) ">
     <path fill="#ffffff" fill-rule="nonzero" d="m16300,3088.22l-16300,0l0,-3088.22l16300,0l0,3088.22" id="path24"/>
    </g>
    <g id="g26" transform="scale(1.1273000240325928) ">
     <path fill="#f5f5fe" fill-rule="nonzero" d="m1642.5,15266.5c-8.43,50.9 58.97,153.6 132.51,151.9c29.25,-0.6 57.86,-8.2 87.05,-6.8c77.81,3.8 118.15,64.4 148.14,114.6c29.99,50.1 89.71,107.3 165.55,94.6c109.18,-18.3 164.21,-162.4 288.31,-54.2c81.25,70.8 87.35,169.8 179.34,238.5c63.14,47.1 165.82,75 250.48,49c110.48,-34 151.57,-143.6 269.21,-162.6c130.31,-21.1 224,78 265.6,149.5c50.47,86.7 69.22,180.5 112.44,268.8c40.03,81.7 120.5,191.2 264.69,188.8c121.92,-2 175.64,-79.2 235.49,-140.4c77.84,-79.7 239.58,-365.9 420.97,-331.4c70.73,13.5 106.06,69.7 169.88,94.8c102.6,40.4 233.38,-15.1 295.19,-85.1c61.83,-69.9 86.33,-154.3 156.18,-220.4c18.07,-17.2 40.01,-33.3 68.4,-41.1c97.57,-26.7 188.4,55.5 292.87,61.6c72.11,4.2 139,-29.7 180.44,-71c41.44,-41.3 64.05,-90.2 95.76,-135.5c8.82,-12.6 18.85,-25.3 34.81,-33.9c45.83,-24.6 110.31,-3.9 166.45,5.8c138.71,23.9 296.29,-39.8 335.42,-135.5l-4615.18,0" id="path28"/>
    </g>
    <g id="g30" transform="scale(1.0810699462890625) ">
     <path fill="#f5f5fe" fill-rule="nonzero" d="m16294.3,15545.3c5.7,34.9 -40.4,105.1 -90.6,103.9c-20,-0.4 -39.6,-5.6 -59.6,-4.6c-53.2,2.6 -80.7,44 -101.3,78.3c-20.4,34.3 -61.3,73.4 -113.1,64.7c-74.6,-12.5 -112.3,-111 -197.1,-37.1c-55.6,48.4 -59.8,116.1 -122.7,163c-43.1,32.3 -113.3,51.4 -171.2,33.6c-75.5,-23.3 -103.6,-98.2 -184,-111.2c-89.1,-14.4 -153.1,53.3 -181.6,102.2c-34.5,59.3 -47.3,123.4 -76.9,183.8c-27.3,55.9 -82.3,130.7 -180.9,129.1c-83.4,-1.4 -120.1,-54.2 -161,-96c-53.3,-54.5 -163.8,-250.1 -287.8,-226.6c-48.4,9.2 -72.6,47.6 -116.1,64.8c-70.2,27.7 -159.6,-10.3 -201.9,-58.1c-42.2,-47.8 -59,-105.5 -106.7,-150.8c-12.4,-11.7 -27.4,-22.7 -46.8,-28c-66.7,-18.3 -128.8,37.9 -200.3,42.1c-49.2,2.8 -95,-20.3 -123.3,-48.6c-28.3,-28.2 -43.8,-61.6 -65.5,-92.6c-6,-8.6 -12.8,-17.3 -23.7,-23.2c-31.4,-16.8 -75.4,-2.6 -113.8,4c-94.9,16.3 -202.6,-27.2 -229.3,-92.7l3155.2,0" id="path32"/>
    </g>
    <g id="g34" transform="scale(1.119420051574707) ">
     <path fill="#ffffff" fill-rule="nonzero" d="m10272.3,14987.9l-2531.06,0c-113.54,0 -205.56,92.1 -205.56,205.6l0,901c0,113.5 92.02,205.5 205.56,205.5l2531.06,0c113.6,0 205.6,-92 205.6,-205.5l0,-901c0,-113.5 -92,-205.6 -205.6,-205.6" id="path36"/>
    </g>
    <g id="g38" transform="scale(1.1224900484085083) ">
     <path fill="#597ff5" fill-rule="nonzero" d="m10244.3,14947l0,44.5l-2524.23,0c-44.46,0 -84.29,17.9 -113.46,47c-29.11,29.2 -46.97,69 -47,113.5l0,898.4c0.03,44.5 17.89,84.3 47,113.5c29.17,29.1 69,47 113.46,47l2524.23,0c44.4,0 84.2,-17.9 113.5,-47c29,-29.2 46.9,-69 46.9,-113.5l0,-898.4c0,-44.5 -17.9,-84.3 -46.9,-113.5c-29.3,-29.1 -69.1,-47 -113.5,-47l0,-44.5l0,-44.6c68.7,0 131.4,28 176.4,73.1c45.1,45 73.1,107.7 73.1,176.5l0,898.4c0,68.8 -28,131.5 -73.1,176.5c-45,45.1 -107.7,73.1 -176.4,73.1l-2524.23,0c-68.77,0 -131.44,-28 -176.45,-73.1c-45.09,-45 -73.11,-107.7 -73.08,-176.5l0,-898.4c-0.03,-68.8 27.99,-131.5 73.08,-176.5c45.01,-45.1 107.68,-73.1 176.45,-73.1l2524.23,0l0,44.6" id="path40"/>
    </g>
    <g id="g42" transform="scale(1.1091899871826172) ">
     <path fill="#ffc937" fill-rule="nonzero" d="m8181.03,15276.7l-252.77,0c-89.63,0 -162.28,72.6 -162.28,162.3l0,698.7c0,89.6 72.65,162.3 162.28,162.3l252.77,0l0,-1023.3" id="path44"/>
    </g>
    <g id="g46" transform="scale(1.1091899871826172) ">
     <path fill="#ffc937" fill-rule="nonzero" d="m8739.2,15276.7l-415.06,0l0,1023.3l415.06,0l0,-1023.3" id="path48"/>
    </g>
    <g id="g50" transform="scale(1.1091899871826172) ">
     <path fill="#ffc937" fill-rule="nonzero" d="m9297.35,15276.7l-415.05,0l0,1023.3l415.05,0l0,-1023.3" id="path52"/>
    </g>
    <g id="g54" transform="scale(1.1091899871826172) ">
     <path fill="#ffc937" fill-rule="nonzero" d="m9855.5,15276.7l-414.99,0l0,1023.3l414.99,0l0,-1023.3" id="path56"/>
    </g>
    <g id="g58" transform="scale(1.1091899871826172) ">
     <path fill="#ffc937" fill-rule="nonzero" d="m10251.4,15276.7l-252.73,0l0,1023.3l252.73,0c89.7,0 162.3,-72.7 162.3,-162.3l0,-698.7c0,-89.7 -72.6,-162.3 -162.3,-162.3" id="path60"/>
    </g>
    <g id="g62" transform="scale(1.1050100326538086) ">
     <path fill="#ffffff" fill-rule="nonzero" d="m10704.7,15395.9l-90.2,0l0,904.1l90.2,0c54.9,0 99.5,-44.6 99.5,-99.5l0,-705c0,-55 -44.6,-99.6 -99.5,-99.6" id="path64"/>
    </g>
    <g id="g66" transform="scale(1.1080800294876099) ">
     <path fill="#597ff5" fill-rule="nonzero" d="m10675,15353.3l0,45.1l-44.8,0l0,811.3l44.8,0c15.1,0 28.3,-6 38.3,-15.8c9.8,-10 15.8,-23.2 15.9,-38.3l0,-703c-0.1,-15.1 -6.1,-28.4 -15.9,-38.3c-10,-9.9 -23.2,-15.9 -38.3,-15.9l0,-45.1l0,-45.1c39.7,0 76.1,16.2 102.1,42.3c26.1,25.9 42.3,62.3 42.2,102.1l0,703c0.1,39.7 -16.1,76.1 -42.2,102.1c-26,26 -62.4,42.3 -102.1,42.3l-135,0l0,-991.8l135,0l0,45.1" id="path68"/>
    </g>
    <path fill="#597ff5" fill-rule="nonzero" d="m11128.5,9678.83l-3721.72,0l0,-329.65l3721.72,0l0,329.65" id="path70"/>
    <g id="g72" transform="scale(1.1280699968338013) ">
     <path fill="#e9e8e8" fill-rule="nonzero" d="m8843.84,1930.37c-4117.91,0 -7456.12,167.1 -7456.12,373.11c0,206.02 3338.21,373.12 7456.12,373.12c4117.86,0 7456.16,-167.1 7456.16,-373.12c0,-206.01 -3338.3,-373.11 -7456.16,-373.11" id="path74"/>
    </g>
    <path fill="#1f217a" fill-rule="nonzero" d="m3441.07,8812.07l8379.23,0l0,539.14l-8379.23,0l0,-539.14" id="path76"/>
    <path fill="#0b2d4e" fill-rule="nonzero" d="m3810,8275.4l7641.4,0l0,539.18l-7641.4,0.01l0,-539.19" id="path78"/>
    <path fill="#0b2d4e" fill-rule="nonzero" d="m10995.9,2598.5l-502.9,0l-622.02,5676.9l502.92,0l622,-5676.9" id="path80"/>
    <path fill="#0b2d4e" fill-rule="nonzero" d="m4256.11,2598.5l502.92,0l622,5676.9l-502.92,0l-622,-5676.9" id="path82"/>
    <path fill="#597ff5" fill-rule="nonzero" d="m7790.03,9486.93l-1177.78,3315.37c-37.58,105.8 -153.81,161.1 -259.6,123.5c-105.79,-37.5 -161.09,-153.8 -123.5,-259.6l1177.78,-3315.36l383.1,136.09" id="path84"/>
    <g id="g86" transform="scale(1.0119099617004395) ">
     <path fill="#181a69" fill-rule="nonzero" d="m15845.6,5792.19l405,0c27.3,0 49.4,22.14 49.4,49.41l0,1784.74l-454.4,0l0,-1834.15" id="path88"/>
    </g>
    <g id="g90" transform="scale(1.0119099617004395) ">
     <path fill="#181a69" fill-rule="nonzero" d="m15845.6,7626.34l454.4,0l0,4713.66c0,43.7 -35.4,79.1 -79.1,79.1l-375.3,0l0,-4792.76" id="path92"/>
    </g>
    <g id="g94" transform="scale(1.0119099617004395) ">
     <path fill="#181a69" fill-rule="nonzero" d="m12773.1,5792.19l3447.8,0c43.7,0 79.1,35.38 79.1,79.06l0,260.1c0,43.68 -35.4,79.16 -79.1,79.16l-3447.8,0c-43.7,0 -79,-35.48 -79,-79.16l0,-260.1c0,-43.68 35.3,-79.06 79,-79.06" id="path96"/>
    </g>
    <path fill="#597ff5" fill-rule="nonzero" d="m12128.9,6284.5l3594.5,0c182.3,0 330,147.7 330,330l0,186.5c0,182.3 -147.7,330 -330,330l-3594.5,0c-182.3,0 -330,-147.7 -330,-330l0,-186.5c0,-182.3 147.7,-330 330,-330" id="path98"/>
    <path fill="#3f4ade" fill-rule="nonzero" d="m15703,6284.5l-3553.7,0c-193.5,0 -350.4,156.9 -350.4,350.4l0,145.7c0,136.5 78.2,254.5 192.1,312.3c-12.2,-35.5 -19.1,-73.5 -19.1,-113.2l0,-145.7c0,-193.5 156.9,-350.4 350.5,-350.4l3553.6,0c57.1,0 110.8,13.9 158.4,38.1c-47.1,-137.9 -177.5,-237.2 -331.4,-237.2" id="path100"/>
    <path fill="#181a69" fill-rule="nonzero" d="m13696.2,4938.6l459.8,0l0,1170.3l-459.8,0l0,-1170.3" id="path102"/>
    <path fill="#181a69" fill-rule="nonzero" d="m13580.2,4276.5l691.9,0l0,1170.3l-691.9,0l0,-1170.3" id="path104"/>
    <path fill="#181a69" fill-rule="nonzero" d="m12877.7,3422.1l241.9,0c0,404.4 263.3,733.4 587.1,733.4l1482.1,0c323.8,0 587.2,-329 587.2,-733.4l241.8,0c0,537.8 -371.8,975.3 -829,975.3l-1482.1,0c-457.1,0 -829,-437.5 -829,-975.3" id="path106"/>
    <path fill="#181a69" fill-rule="nonzero" d="m11764.4,3422.1l241.8,0c0,404.4 263.4,733.4 587.1,733.4l1482.2,0c323.8,0 587.1,-329 587.1,-733.4l241.9,0c0,537.8 -371.9,975.3 -829,975.3l-1482.2,0c-457.1,0 -828.9,-437.5 -828.9,-975.3" id="path108"/>
    <path fill="#181a69" fill-rule="nonzero" d="m15543.3,3028.4c0,-195.3 158.3,-353.6 353.6,-353.6c195.3,0 353.6,158.3 353.6,353.6c0,195.3 -158.3,353.6 -353.6,353.6c-195.3,0 -353.6,-158.3 -353.6,-353.6" id="path110"/>
    <g id="g112" transform="scale(1.0022300481796265) ">
     <path fill="#181a69" fill-rule="nonzero" d="m16300,3021.67c0,242.16 -196.3,438.42 -438.4,438.42c-242.2,0 -438.4,-196.26 -438.4,-438.42" id="path114"/>
    </g>
    <path fill="#181a69" fill-rule="nonzero" d="m14424.2,3028.4c0,-195.3 158.3,-353.6 353.6,-353.6c195.3,0 353.6,158.3 353.6,353.6c0,195.3 -158.3,353.6 -353.6,353.6c-195.3,0 -353.6,-158.3 -353.6,-353.6" id="path116"/>
    <path fill="#181a69" fill-rule="nonzero" d="m15217.2,3028.4c0,242.7 -196.7,439.4 -439.4,439.4c-242.7,0 -439.4,-196.7 -439.4,-439.4" id="path118"/>
    <path fill="#181a69" fill-rule="nonzero" d="m12648.1,3028.4c0,-195.3 158.3,-353.6 353.6,-353.6c195.3,0 353.6,158.3 353.6,353.6c0,195.3 -158.3,353.6 -353.6,353.6c-195.3,0 -353.6,-158.3 -353.6,-353.6" id="path120"/>
    <path fill="#181a69" fill-rule="nonzero" d="m13441.1,3028.4c0,242.7 -196.7,439.4 -439.4,439.4c-242.6,0 -439.4,-196.7 -439.4,-439.4" id="path122"/>
    <path fill="#181a69" fill-rule="nonzero" d="m11529,3028.4c0,-195.3 158.3,-353.6 353.6,-353.6c195.3,0 353.7,158.3 353.7,353.6c0,195.3 -158.4,353.6 -353.7,353.6c-195.3,0 -353.6,-158.3 -353.6,-353.6" id="path124"/>
    <path fill="#181a69" fill-rule="nonzero" d="m12322,3028.4c0,242.7 -196.7,439.4 -439.4,439.4c-242.6,0 -439.3,-196.7 -439.3,-439.4" id="path126"/>
    <path fill="#597ff5" fill-rule="nonzero" d="m16034.4,12567l-404.1,0c-127,0 -230,-102.9 -230,-230l0,-4389.8c0,-127.1 103,-230 230,-230l404.1,0l0,4849.8" id="path128"/>
    <g id="g130" transform="scale(1.0307899713516235) ">
     <path fill="#181a69" fill-rule="nonzero" d="m16300,6761.16l-354.3,0l0,456.15l354.3,0l0,-456.15" id="path132"/>
    </g>
    <path fill="#e5785c" fill-rule="nonzero" d="m9167.41,2629.3c50.87,-18.6 102.56,-37.4 156.58,-41.3c128.3,-9.2 254.14,130.6 291.43,238.7c71.39,206.9 -6.77,355.9 20.72,568.5c27.66,213.9 91.83,408.3 179.43,605c98.52,221.2 206.03,437.7 308.33,658c96.1,207.1 185.9,419 258.3,636.1c103.3,309.7 171.9,631 247.4,947.7c77.7,326.3 109.9,663.5 94.8,998.7c-6.6,148.2 -30.3,311.7 -143.8,407.3c-145.4,122.4 -379.6,70.3 -516.3,-61.8c-193.92,-187.5 -257.06,-482.2 -303.81,-737c-103.41,-563.7 -230.74,-1122.5 -348.12,-1683.3c-62.38,-298.1 -116.91,-597.7 -167.71,-898c-25.83,-152.6 -53.7,-322.9 -111.24,-464.7c-103.26,-254.6 -257.33,-451.3 -499.62,-586c-129.4,-71.9 -303.17,-117.9 -399.73,-236.1c-13.26,-16.3 -18.51,-41.1 -6.47,-58.2c5.97,-8.6 15.21,-14.1 24.24,-19.2c134.94,-77.1 283.92,-129.2 437.29,-154c72.19,-11.7 151.38,-5.9 220.02,-25.9c87.3,-25.5 172.83,-63.3 258.26,-94.5" id="path134"/>
    <path fill="#061f33" fill-rule="nonzero" d="m10000.6,4397.4c41.3,86.7 82.7,173.4 123.3,260.8c96.1,207.1 185.9,419 258.3,636.1c103.3,309.7 171.9,631 247.4,947.7c77.7,326.3 109.9,663.5 94.8,998.7c-6.6,148.2 -30.3,311.7 -143.8,407.3c-145.4,122.4 -379.6,70.3 -516.3,-61.8c-193.92,-187.5 -257.06,-482.2 -303.81,-737c-103.41,-563.7 -230.74,-1122.5 -348.12,-1683.3c-33.32,-159.2 -64.4,-318.9 -93.86,-478.8" id="path136"/>
    <path fill="#f8a17a" fill-rule="nonzero" d="m14211.5,8890.27c-539.7,-31.46 -1058.8,-253.21 -1559,-442.89c-590.7,-223.98 -1182.1,-404.58 -1795.2,-548.88c-358.2,-84.4 -868.3,-235.5 -890.66,-683.3c-21.41,-428.5 483.76,-581.1 839.56,-565.8c648.7,28 1298.2,8.5 1947.2,14c484.4,4.1 972,7.3 1450.6,90.1c422.8,73.2 780.7,236.4 951.1,658.4c182.4,451.7 32.6,1074.78 -356.6,1377.12c-92.1,71.52 -212.1,97.05 -328.6,102.67c-87.6,4.23 -173.6,3.52 -258.4,-1.42" id="path138"/>
    <path fill="#f8a17a" fill-rule="nonzero" d="m12125.8,3357.5c-52.4,212.6 -198.9,295.2 -291.2,488.7c-92.9,194.6 -144.6,392.7 -177.8,605.4c-37.4,239.3 -64.7,479.5 -98.4,720c-31.7,226.1 -71.4,452.8 -128.5,674.5c-60.5,235.2 -133.2,495.3 -262.1,701.3c-154.3,246.7 -311.2,491.7 -466.8,737.6c-42.4,66.9 -85.7,134.9 -145.7,186.6c-192.1,165.3 -447.2,51.1 -535.3,-163c-73.5,-179 -26.02,-326.1 43.6,-494.4c219.2,-529.5 415.7,-1067.9 621.7,-1602.6c109.4,-284.1 226.3,-565.4 346.7,-845.1c61.2,-142.2 130.2,-300.3 158.9,-450.7c30.1,-157.9 55,-295.9 -14.5,-449.2c-35.5,-78.3 -118.8,-157.6 -185,-211.8c-40.5,-33.2 -85.2,-60.7 -129.9,-88.2c-102.7,-63.2 -205.5,-126.4 -308.3,-189.6c-31.9,-19.5 -64.2,-39.5 -89.6,-67c-25.3,-27.5 -43.4,-63.9 -40.5,-101.2c3.5,-47.3 40.1,-87 82.8,-107.8c63.6,-31.1 125.1,-30.7 191.8,-15.6c386.3,87.7 772.7,175.4 1159.1,263.1c52.8,12 106.5,24.2 153.9,50.3c112.7,62 142.5,247.7 115.1,358.7" id="path140"/>
    <path fill="#0b2d4e" fill-rule="nonzero" d="m11607.4,4802c-16.1,123.1 -31.7,246.3 -49,369.6c-31.7,226.1 -71.4,452.8 -128.5,674.5c-60.5,235.2 -133.2,495.3 -262.1,701.3c-23.3,37.2 -46.9,74.2 -70.3,111.4c551.8,13 1104,-0.1 1655.9,4.6c484.4,4.1 972,7.3 1450.6,90.1c422.8,73.2 780.7,236.4 951.1,658.4c182.4,451.7 32.6,1074.78 -356.6,1377.12c-92.1,71.53 -212.1,97.05 -328.6,102.67c-87.6,4.23 -173.6,3.52 -258.4,-1.42c-539.7,-31.45 -1058.9,-253.21 -1559,-442.89c-590.7,-223.98 -1182.1,-404.58 -1795.2,-548.88c-358.2,-84.4 -868.3,-235.5 -890.66,-683.3c-3.28,-65.6 5.89,-124.6 24.86,-177.7c13.1,-73.4 40.2,-146.1 72.1,-223.3c219.2,-529.5 415.7,-1067.9 621.7,-1602.6c79.8,-207.3 163.6,-413 249.8,-617.7" id="path142"/>
    <path fill="#597ff5" fill-rule="nonzero" d="m12178.5,3333.6c-26.4,83.4 -69.6,162.5 -123,232.9c-8.2,10.8 -105.5,101.4 -106,99.7c-28.6,-100 -81.2,-183.2 -136.1,-270c-61.8,-97.7 -191.4,-150 -294.6,-190.2c-152,-59.3 -315.8,-89.7 -479,-85.8c-67.5,1.6 -136.8,9.4 -196.5,41c-7.1,3.8 -14.4,8 -22.5,8.5c-9.1,0.6 -17.9,-3.6 -26.1,-7.8c-121.1,-61 -240.7,-127.4 -365.4,-180.8c-96.2,-41.1 -221.8,-67.7 -288.4,-155.8c-39.9,-52.7 -44.1,-136.1 4.8,-180.6c93.7,-85.1 227.5,-97 348.3,-96.8c144,0.2 287,1.8 430.3,18.6c204.6,23.9 406.7,66.3 604.6,123.1c100.2,28.7 199.4,61.2 297.4,96.7c89.1,32.3 194.2,60.6 275.5,109.4c136.9,82.4 117.9,307.6 76.7,437.9" id="path144"/>
    <path fill="#597ff5" fill-rule="nonzero" d="m9651.93,3319.4c-181.04,-139.1 -335.88,-263.2 -567.54,-307.4c-119.01,-22.8 -242.08,-25 -361.72,-5.7c-61.17,9.9 -121.44,25.4 -179.62,46.8c-25.12,9.2 -47.33,18.2 -66.4,34.1c-16.81,13.9 -19.72,30.2 -45.83,34.2c-23.02,3.6 -46.25,-3.1 -68.59,-9.7c-188.76,-55.9 -378.22,-112 -557.49,-193.3c-50.27,-22.8 -101.51,-49 -134.8,-93.1c-39.9,-52.7 -44.1,-136.1 4.86,-180.6c129.71,-117.9 329.56,-93.7 489.41,-96.6c314.65,-5.8 633.88,50.6 947.39,25.5c149.46,-11.9 297.27,-14.8 447.83,9.1c115.96,18.5 182.88,95.9 193.79,211c17.06,180.1 -18.54,364.8 -101.29,525.7" id="path146"/>
    <path fill="#f8a17a" fill-rule="nonzero" d="m10032.9,9703.8c84.6,-61.81 244.7,-48.42 344.7,-55.91c104.4,-7.8 206.5,-22.47 311.8,-19.37c62.6,1.84 132.6,26.84 155.3,85.19c7.6,19.59 9,40.98 9.9,61.97c3.1,73.41 -0.8,144.34 -11.7,216.24c-7.2,47.78 -5.2,119.18 -69,126.58c-23.6,2.7 -47.1,-4.5 -70.4,-9.4c-89.3,-18.8 -183,-2.8 -268.2,29.7c-72.2,27.5 -139.4,66.4 -205.1,106.7c-62.9,38.6 -134.6,58.1 -203.3,84.8c-112.79,43.8 -250.91,70.5 -345.94,-18.9c-127.35,-119.7 -247.62,-256.5 -315.35,-420.43c-15.77,-38.18 -29.1,-79.2 -23.67,-120.15c5.43,-40.95 34.6,-81.35 75.48,-87.31c45.79,-6.68 85.45,28.95 120.49,59.18c78.77,67.95 188.94,184.99 307.22,157.56c84.59,-19.62 119.94,-144.65 185.07,-194.46l2.7,-1.99" id="path148"/>
    <g id="g150" transform="scale(1.0321799516677856) ">
     <path fill="#0b2d4e" fill-rule="nonzero" d="m13324.6,14318.5c-181.6,180.4 -370.8,390.3 -431.8,646.1c-53.6,225.3 -124.7,426.4 -6.3,649.2c146.2,275 432.2,402.9 728.3,430.6c358.2,33.5 689.6,43.9 1018.5,-132.9c216.7,-116.5 399.6,-297 516.4,-513.7c52,-96.4 98.2,-203.7 109.7,-313c16.9,-159.1 1.7,-301.5 87.4,-446.4c168.2,-284.8 470.8,-459 514,-815.9c37.5,-308.8 -152,-618.6 -85.5,-922.4c35,-159.8 136.8,-295.5 237.3,-424.7c100.4,-129.1 204.7,-262.1 246,-420.4c41.4,-158.3 2.4,-350.1 -135.4,-438.4c-42.5,-27.3 -92.8,-44 -128,-80.3c-63.2,-65.1 -57.3,-167.7 -78.2,-256c-41.1,-174.8 -193.4,-300.7 -349.3,-389.8c-296.2,-169.2 -643,-254.7 -982.5,-221.4c-339.4,33.4 -669.1,189.3 -895.1,444.8c-161.7,182.7 -268.1,412.3 -311.2,652.4c-69.8,387.5 22,783.4 100.1,1169.3c50.5,249.8 95.4,504.6 87,760.5c-4,123.5 -17.4,254.2 -54.7,372.5c-33.7,106.9 -105.8,169.7 -186.7,249.9" id="path152"/>
    </g>
    <g id="g154" transform="scale(1.03889000415802) ">
     <path fill="#0b2d4e" fill-rule="nonzero" d="m15728.4,11457.3c16,19.3 35,30.4 58.3,37.5c23.3,7 51,9.2 81,9.1c34.8,0 72.6,-2.8 110.7,-2.8c26.5,0 53.2,1.4 79.4,6.5c35.1,6.9 67.5,21.1 96.1,40.4c42.9,29.1 77.7,69.6 102.5,115.7c24.8,46.1 39.9,97.9 42.9,150c0.5,7.9 0.7,15.8 0.7,23.7c0,64.3 -14.8,126.9 -39,185.7c-24,58.8 -57.5,114 -95,164c-79.6,105.9 -177.3,193.4 -262.2,288.6c-34.1,38.3 -66.5,78.5 -93.2,121c-26.5,42.6 -47.2,87.3 -58.5,134.8c-7.5,31.8 -10.7,64 -10.7,96.9c-0.1,86.8 22.5,177.2 44.8,266.6c36.6,147.2 62.2,297.2 62.2,444.3c0,107.9 -13.8,214.3 -47.4,316.7c-33.6,102.4 -87,200.7 -165.6,291.9c-52,60.5 -110.7,113 -168.5,164.9c-57.9,51.9 -115,103.1 -164.6,160.3c-24.5,28.1 -47.6,55.8 -64.8,84.5c-17.3,28.7 -28.9,57.9 -31.7,90.4c-1.1,12.3 -1.6,24.8 -1.6,37.4c0,40.5 4.9,83.1 9.9,126.4c5.1,43.4 10.4,87.4 10.6,131.3l0,0c0,1.5 0,3 0,4.5c0,203 -63.3,400.8 -170.9,571.8c-107.6,171 -259.4,315.4 -437.4,411.7c-189.6,102.5 -405.1,152.4 -619.5,152.4c-258.2,0 -515,-72.3 -722.8,-213.7c-207.8,-141.2 -366.5,-352.4 -425.8,-627.4l47,-10.2c56.9,262.5 207.1,462.4 405.8,597.8c198.8,135.4 446.6,205.4 695.8,205.4c206.9,0 414.8,-48.3 596.6,-146.6c170.3,-92.2 316.4,-231 419.5,-395c103.2,-164.1 163.6,-353.3 163.6,-546.2c0,-1.5 0,-2.9 0,-4.3l0,0c-0.2,-40.1 -5.1,-82.5 -10.2,-125.9c-5.1,-43.4 -10.3,-87.7 -10.3,-132c0,-13.9 0.5,-27.7 1.7,-41.6c3.7,-41.5 18.6,-78.2 38.5,-111.1c19.9,-33 44.8,-62.6 69.6,-91.2c52.4,-60.2 111,-112.6 168.8,-164.5c57.9,-51.8 114.9,-103.1 164.3,-160.5c74.4,-86.5 124.5,-178.8 156.3,-275.5c31.7,-96.7 44.9,-197.9 44.9,-301.7c0.1,-141.5 -24.7,-287.8 -60.7,-432.7c-22,-89.2 -46.2,-183.1 -46.2,-278.2c0,-36 3.5,-72.1 11.9,-108c12.8,-53.8 36,-103.4 64.7,-149.2c28.6,-45.9 62.9,-88.1 98,-127.5c87.4,-97.8 183.9,-184.5 259.6,-285.4c35.6,-47.4 66.8,-99.3 89,-153.5c22.2,-54.2 35.4,-110.5 35.4,-167.4c0,-7 -0.2,-13.9 -0.6,-20.9c-3.4,-59.6 -25.7,-120.2 -61.5,-168c-17.9,-23.9 -39.1,-44.6 -62.9,-60.6c-23.7,-16 -50,-27.5 -78.3,-33.1c-21.7,-4.2 -45.5,-5.6 -70.2,-5.6c-35.6,0 -73.3,2.8 -110.7,2.9c-32.2,-0.1 -64.3,-2.2 -94.7,-11.2c-30.4,-8.9 -59.3,-25.6 -81.7,-53.1l37.1,-30.5" id="path156"/>
    </g>
    <path fill="#061f33" fill-rule="nonzero" d="m14312.5,13901.2c-19.5,58.5 -30.4,117 -28.1,171c1.1,24.7 5.5,54.6 28.4,64.1c11.5,4.7 24.6,2.6 36.4,-1.2c57.3,-18.6 94.4,-72.2 134.3,-117.4c179.7,-203.4 501.4,-346.5 760.1,-415.3c121.1,-32.2 263.8,-64.7 315,-178.9c49.5,-110.5 -15,-236.2 -20.8,-357c-3.6,-76.8 17.8,-154.6 60.3,-218.7c53,-80.1 136.8,-138 180.5,-223.6c30,-58.6 38.6,-125.8 41.2,-191.6c3.5,-88.8 -3.9,-180.4 -42.8,-260.2c-67.8,-139.1 -226.9,-220.5 -381.6,-218.5c-154.6,2 -302,78 -413.5,185.2c-111.5,107.2 -190.6,243.7 -255,384.4c-103.8,226.5 -172.9,468.7 -205,715.8c-13.4,103.1 10.1,255.7 -28.8,349.1c-45.2,108.7 -141,193.7 -180.6,312.8" id="path158"/>
    <path fill="#f8a17a" fill-rule="nonzero" d="m13207.7,10448.1c266.8,-92.2 560.3,-100.6 834.4,-34.6c288.8,69.6 660.7,231.7 750.8,531.2c80.4,267 174.6,526.8 218.1,803.7c67.1,426.9 22.5,869.7 -122.1,1276.5c-73.3,206.2 -179.4,384.5 -289,571.8c-113.3,193.8 -189.6,427.4 -257.1,642.6c-8.9,28.2 3.8,15.6 -20.6,35.6c-78.4,64.3 -202.4,57.5 -294.8,16.5c-92.3,-41 -164.5,-109.3 -247.3,-163.7c-89.8,-59 -204.2,-118.3 -208.9,-219.1c-1.4,-30.4 8.2,-60.6 17.7,-90.2c67,-209.1 215.7,-498.6 96.6,-706.1c-139.8,-243.6 -350.7,-429.4 -538.1,-634.1c-206.9,-226.1 -462.9,-504.3 -560.7,-799.4c-46.8,-140.9 -26.5,-295.9 16.5,-438.1c96.4,-318.4 190.8,-620.5 519,-759.7c28.1,-12 56.7,-22.9 85.5,-32.9" id="path160"/>
    <path fill="#e5785c" fill-rule="nonzero" d="m13712.9,13430.8c-28.4,135.6 -89.1,273.6 -125.6,387.7c-9.5,29.6 -19.1,59.9 -17.7,90.3c4.6,100.8 119.1,160 208.9,219c82.8,54.4 154.9,122.7 247.3,163.7c92.3,41 216.4,47.8 294.8,-16.4c24.4,-20 11.7,-7.4 20.5,-35.6c31.4,-100 64.9,-203.9 102.9,-306c-196.6,-245.8 -453.3,-445.2 -731.1,-502.7" id="path162"/>
    <path fill="#f8a17a" fill-rule="nonzero" d="m14744,14502.3c69,158.7 113.6,318.4 128,461c62.2,615.4 -549.8,1044.9 -1124.4,837.6c-196.7,-71 -384.2,-232.2 -467.1,-422.1c-126.6,-289.9 -213.3,-598.7 -419.1,-846c-7.2,-8.7 -14.5,-17.4 -18.6,-27.8c-15.1,-39 21.8,-78.9 59.3,-97.3c81.1,-40 108.4,-58.2 121.5,-150.9c17.9,-126.3 53.1,-251.6 114.9,-363.8c84.1,-152.8 241.5,-263 413.8,-289.8c521.4,-81.2 976,403.6 1191.7,899.1" id="path164"/>
    <path fill="#f8a17a" fill-rule="nonzero" d="m11453.8,11477.5c-173.6,236.5 -434.5,407.2 -720.7,471.5c-135.5,30.5 -253.9,83.5 -389.5,113.5c-80.5,17.8 -164.9,36.8 -247.8,26.9c-33.7,-4.1 -59.2,-4.7 -74.3,-35.5c-3.3,-6.7 -7.6,-77.2 10.4,-68.1c-26.7,-13.5 -32.93,-51.4 -20.7,-78.7c12.3,-27.3 37.7,-46.1 62.8,-62.6c-22.8,-45.9 -14.5,-105.4 20,-143.3c7.9,-8.7 17.5,-17.5 18.4,-29.2c0.5,-7 -2.3,-13.7 -4.7,-20.2c-17.6,-47.2 1.1,-87.3 46.2,-106.9c49.8,-21.7 103,-17.9 153.7,-36.3c64.4,-23.3 127.3,-46.8 193.7,-64.4c119.9,-31.7 256.9,-20.2 372.3,-63c44.2,-16.4 81,-48 116.7,-78.9c34.5,-29.9 69,-59.8 103.4,-89.6" id="path166"/>
    <path fill="#e5785c" fill-rule="nonzero" d="m13278.7,15374.7c0.6,1.4 1.2,2.7 1.8,4.1c82.9,189.9 270.4,351.1 467,422.1c574.7,207.3 1186.7,-222.2 1124.5,-837.6c-14.4,-142.6 -59,-302.3 -128,-461c-50.9,-117 -115.4,-233.3 -190.7,-341.9c-39.3,76.7 -51.9,156.3 -46.8,236.7c4.4,68.3 21.6,137.1 46,204.9c41.5,115.1 48,251.1 -57,340.9c-60.2,51.6 -154.2,63.8 -221.1,21.1c-53.1,-34 -86.2,-97.4 -96.8,-158.1c-4.9,-28.3 -16.4,-147.4 -69.7,-89c-60.8,66.6 -78.4,158.7 -128.1,232.3c-50.7,75 -103.4,134.6 -186.7,174.3c-107.1,51 -224.4,77.6 -331,129.5c-65.5,31.9 -129.1,72.4 -183.4,121.7" id="path168"/>
    <g id="g170" transform="scale(1.0026899576187134) ">
     <path fill="#0b2d4e" fill-rule="nonzero" d="m14408.5,14300.9c-20.7,-88.9 -18.7,-180.8 19.7,-274.3c75.8,-184.8 285.4,-308 482.1,-274c108.6,18.8 204.8,78.7 304.2,126.3c335.6,160.3 735.4,180.7 1085.5,55.2c-12.1,201.7 -185.6,363.7 -376.4,430.3c-190.9,66.6 -398.2,58.8 -600.3,58.1c-45.8,-0.2 -92.7,0.3 -135.5,16.7c-54.6,21 -96.7,66.1 -128.9,115c-77,116.6 -100.7,264.6 -115.6,401.1c-18.2,168.7 -55.2,337.2 -129.6,490.6c-107.3,221 -303.7,410.1 -545,455.8c-73.4,13.9 -148.6,14.5 -223.2,12.2c-169.6,-5.3 -340.9,-25.7 -498.4,-88.9c-80.2,-32.1 -157.2,-76.2 -215.5,-139.9c-23.3,-25.4 -44.3,-56.8 -42.1,-91.1c1.4,-22 12.2,-42.2 23.1,-61.3c49.9,-87.2 125.9,-160.9 208,-219.3c96.4,-68.4 207.5,-113.8 304.5,-181.4c75.5,-52.6 117.7,-119.9 155.3,-201.9c36.9,-80.5 39.1,-174 88.1,-249.5c43,-66.1 73.7,49.2 83.2,76.2c20.2,58 63.2,115 120.9,139.7c72.9,31.1 163.3,3.8 214.2,-56.8c88.6,-105.5 60,-238.3 0.5,-344.7c-35.2,-62.7 -63.4,-127.6 -78.8,-194.1" id="path172"/>
    </g>
    <path fill="#80b1ff" fill-rule="nonzero" d="m12603.2,11240.7c-43,142.2 -63.3,297.2 -16.5,438.1c97.8,295.1 353.8,573.3 560.7,799.4c87,95.1 179,186.1 266.7,280.6c240.4,-46.3 612.3,77.7 804.6,174c222.3,111.2 389.8,262.6 504.4,449.7c63.1,-114.4 120.7,-230.7 165.8,-357.6c144.6,-406.8 189.2,-849.6 122.1,-1276.5c-52.7,-335.6 -120.7,-643 -124.5,-988.1c-7.8,-712.6 -83.7,-1380.96 110.3,-2082.04c45.4,-164.05 5.8,-238.33 -152.5,-279.59c-122,-31.77 -241.2,-72.97 -364.2,-102.57c-349.6,-84.1 -708.8,-131.4 -1068.1,-143.3c-343.1,-11.3 -710.6,18.4 -982.9,227.45c17.5,-13.45 207.7,409.27 220.6,448.48c51.4,157.1 76.6,315.49 82.7,479.95c14.7,402.84 27.4,806.72 21.1,1209.92c-4.3,268.7 -73.1,467.3 -150.3,722.1" id="path174"/>
    <path fill="#f8a17a" fill-rule="nonzero" d="m13290.5,11608.3c-123.3,-205.2 -269,-399.2 -403.9,-596.9c-184.4,-270.1 -427.5,-487.5 -296.4,-850.8c25,-69.3 65.8,-137.7 131.6,-170.89c117.6,-59.27 208.8,19.69 304.4,79.19c307,190.9 568.1,525.4 816.5,785.5c299.8,313.8 595.3,631.7 886.4,953.7c76.4,84.5 153.5,170.8 202.3,273.7c101.1,213.1 56,494.8 -109.8,663.5c-330.6,336.6 -799.2,-6.2 -1016.5,-290c-202.2,-264.1 -344,-563.2 -514.6,-847" id="path176"/>
    <path fill="#f8a17a" fill-rule="nonzero" d="m12406.4,10656c-550.6,-82.7 -1064.4,-291.1 -1582.9,-484c-112.5,-41.9 -291.6,-113.3 -373.6,-200.75c-55.4,-59.24 -78.1,-156.72 -30.4,-222.37c15.8,-21.77 37.8,-38.31 60.7,-52.42c98.4,-60.62 221.1,-80.64 333.7,-54.46c189.4,44.05 397.6,54.54 595,78.62c372.6,45.44 743.4,104.77 1112.3,173.4c119.5,22.24 250.4,46.29 359.9,101.18c97.7,48.9 190.8,155.7 248.5,248.5c8.1,13.1 15.9,26.8 18.6,42c2.9,16.4 -0.3,33.2 -4.4,49.3c-34.4,134.1 -121.3,212.3 -240,270.8c-145.4,71.6 -337.1,74.3 -497.4,50.2" id="path178"/>
    <path fill="#f8a17a" fill-rule="nonzero" d="m12784.4,10816.1c-431.9,351.6 -931.8,591.2 -1423.5,844.9c-106.7,55 -280.1,139.4 -399.9,141.1c-81.1,1.1 -168.5,-47.7 -184.9,-127.2c-5.5,-26.3 -2.9,-53.7 2.1,-80.1c12.4,-66 38.1,-136.5 89.8,-181.6c185.7,-161.8 366.6,-328.3 553.2,-489c284.3,-244.9 577.8,-479.2 876.9,-705.9c96.9,-73.4 202.8,-154 317.1,-198c101.9,-39.31 243.5,-36.34 351,-16.5c15.1,2.8 30.5,6.3 43.6,14.6c14.1,8.8 24.4,22.5 33.5,36.4c76,115.6 75.3,232.6 38.7,359.7c-44.9,155.7 -171.9,299.3 -297.6,401.6" id="path180"/>
    <path fill="#ffffff" fill-rule="nonzero" d="m9507.05,12611.8c32.84,67.9 26.97,139.2 6.26,204c-19.91,66.1 -55.44,123.1 -93.92,185.4c-38.88,61.5 -78.57,128.5 -102.88,209.1c-24.65,81.5 -17.6,172.9 5.06,250.3c48.96,157.7 149.21,273.9 218.27,392.8c34.61,60.2 62.93,121.3 74.12,188.9c12.58,67 8.26,138.3 -24.64,205.6c57.05,-49.9 84.69,-130.8 88.42,-209.2c3.57,-79.1 -16.41,-159.4 -46.76,-230c-59.95,-143.3 -149.81,-259.5 -184.78,-385.2c-19.83,-62.3 -24.71,-122.6 -10.63,-182.9c11.77,-61.9 44.12,-124.3 73.22,-192c30.88,-66.2 60.43,-142.6 66.98,-221.2c6.68,-77.4 -11.04,-164.9 -68.72,-215.6" id="path182"/>
    <path fill="#ffc937" fill-rule="nonzero" d="m9760.5,11256.5l-445.65,0c-121.5,0 -220,98.5 -220,220l0,1048.6l885.65,0l0,-1048.6c0,-121.5 -98.5,-220 -220,-220" id="path184"/>
    <path fill="#ffc937" fill-rule="nonzero" d="m10042.3,11596.9c-136.61,0 -247.37,112.4 -247.37,251.1c0,138.6 110.76,251 247.37,251c136.7,0 247.4,-112.4 247.4,-251c0,-138.7 -110.7,-251.1 -247.4,-251.1zm0,641.2c-212.33,0 -384.5,-174.6 -384.5,-390.1c0,-215.5 172.17,-390.2 384.5,-390.2c212.4,0 384.6,174.7 384.6,390.2c0,215.5 -172.2,390.1 -384.6,390.1" id="path186"/>
    <path fill="#ffd263" fill-rule="nonzero" d="m9227.27,11738c-26.33,0 -47.88,21.5 -47.88,47.9l0,617.4c0,26.3 21.55,47.8 47.88,47.8c26.34,0 47.89,-21.5 47.89,-47.8l0,-617.4c0,-26.4 -21.55,-47.9 -47.89,-47.9" id="path188"/>
    <path fill="#efb126" fill-rule="nonzero" d="m9775.96,12525.1l0,-1044.3c0,-123.9 -100.42,-224.3 -224.29,-224.3l204.53,0c123.88,0 224.29,100.4 224.29,224.3l0,1044.3l-204.53,0" id="path190"/>
    <path fill="#4287f5" fill-rule="nonzero" d="m14252.8,11295.6c-10,-12.4 -19.9,-24.8 -29.6,-37.4c-283.1,-363.7 -597.7,-698.9 -920.6,-1031.1c-68.8,-70.9 -138.7,-142 -221.8,-195.3c-212.5,-136.68 -520.7,-200.12 -767.1,-239.48c-87.5,-13.98 -949.8,-154.83 -966.7,-101.47c-61.7,194.82 -90.1,400.15 -83.6,604.45c0.8,25.4 3,52.8 19.7,71.9c12.7,14.5 31.6,21.6 49.8,28c180.9,63.9 365.1,118.7 551.6,164c121.7,29.6 245.3,50.5 368,75.5c110,22.4 225.1,38.7 321.1,101.8c18.8,12.3 36.5,26.3 53.8,40.6c107,88.3 172.1,201.2 250.2,315.2c136.9,199.6 273.7,399.2 410.6,598.7c173.2,252.7 330.6,520.6 517,764.1c217.2,283.8 685.9,626.6 1016.5,290c165.7,-168.8 210.9,-450.4 109.8,-663.5c-48.8,-102.9 -126,-189.2 -202.3,-273.7c-154.3,-170.7 -331.2,-333 -476.4,-512.3" id="path192"/>
    <g id="g194" transform="scale(1.001039981842041) ">
     <path fill="#80b1ff" fill-rule="nonzero" d="m13927.4,16248.1c52.3,5.7 104.7,11.4 157,16.4c52.4,4.8 105,8.7 157.6,11.2c105.3,5.3 211.3,4.9 316.8,-6.7c105.3,-11.7 210.3,-36 309.2,-76.6c98.7,-40.7 192.1,-96.9 270.9,-170.9c39.3,-36.9 75.6,-77.6 105.4,-123.1c29.9,-45.3 54.5,-94.4 72.2,-145.8c35.8,-103 45.2,-213 38.6,-320.1c-6.2,-107.2 -30.1,-213 -58.7,-314.3c-13.6,-50.6 -26.7,-100.6 -33.1,-150.7c-6.8,-50 -5.9,-99.9 7.1,-146.9c12.8,-47.9 34.4,-93.1 63.4,-133.7c29,-40.7 64.7,-76.9 103.9,-109.7c78.8,-65.6 169.6,-118.6 256.9,-179.1c43.7,-30.3 86.8,-62.4 126.8,-99c40,-36.4 76.4,-77.9 105.5,-124.7c29.1,-46.6 50.2,-98.4 61.9,-152c11.8,-53.6 14.6,-108.3 12.7,-162c-4.5,-107.5 -26.2,-211.1 -37.4,-314.6c-5.8,-51.6 -8.2,-103.4 -3.7,-154.5c0.4,-12.9 2.7,-25.4 4.7,-38c1,-6.3 1.8,-12.7 3.1,-19l4.8,-18.5l4.7,-18.5c1.8,-6.1 4.4,-12 6.5,-17.9c4.6,-11.9 8.4,-24.1 14.2,-35.5c21.7,-46.3 52.6,-88.4 85.1,-129.4c32.6,-41 67.1,-81.2 96.7,-125.4c29.6,-44.1 54.7,-91 74.8,-139.8c20,-48.9 35.1,-99.7 45,-151.4c-12.3,51.1 -29.8,100.9 -51.8,148.4c-21.8,47.6 -48.3,93 -78.9,135.2c-30.5,42.3 -66,80.9 -100.4,121c-34.1,40.1 -67.7,82.2 -92.5,130.6c-23.9,48.7 -38.7,101.7 -44.6,155.3c-6.1,53.6 -4.8,107.6 -0.3,160.5c8.8,106 28.9,209.6 31.1,312.7c0.8,51.4 -2.9,102.5 -14.6,151.4c-11.5,49.1 -31.1,95.8 -58.2,138.1c-26.9,42.3 -60.9,80.3 -99,114.3c-38.1,34 -79.9,64.5 -122.9,93.7c-86.1,58.5 -177.9,111.8 -261.5,180.6c-41.4,34.5 -80.5,73.5 -112.8,118.5c-32.2,44.8 -57.1,95.8 -71.4,149.5c-15,54.7 -15.5,112.2 -7.9,166.2c7.2,54.3 21.2,106.3 35.1,157.1c14.3,50.9 27.5,100.6 37.6,151.5c10,50.7 17.2,101.9 21,153.2c7.5,102.4 -0.5,206.3 -32.8,302.8c-32.3,96.3 -88.9,184 -163.1,254.8c-36.9,35.6 -77.1,68 -120.4,95.8c-43.4,28 -89.2,52.2 -136.4,73.3c-94.8,41.9 -196.2,67.9 -299.6,82.4c-103.3,15.2 -208.3,19.4 -313.3,17.8c-52.4,-0.7 -105,-2.8 -157.4,-5.6c-52.5,-2.5 -105.1,-5.7 -157.6,-8.9" id="path196"/>
    </g>
    <path fill="#4287f5" fill-rule="nonzero" d="m12275.7,11250.2c199.8,-136.3 399.5,-272.6 599.3,-408.9c163.9,-111.7 270.6,-271.2 220.1,-480.1c-13,-53.5 -36.7,-105.1 -73.9,-145.5c-42.3,-45.9 -99.8,-75.3 -159.1,-94.4c-210.2,-67.6 -405.9,-9.9 -584.1,107.3c-355.6,233.9 -697.5,488.6 -1023.3,762.5c-23,19.4 -46.8,39.8 -59.3,67.2c-32.2,70.4 83.8,185.1 123.1,239.2c71.5,98.3 186.2,180.6 274.8,265.3c39.3,37.5 79,22.3 126.1,4.7c200.5,-74.9 379.5,-196.7 556.3,-317.3" id="path198"/>
    <path fill="#f8a17a" fill-rule="nonzero" d="m10440.7,11971.2c-93.3,42.4 -190.4,87.8 -252.9,169.1c-25.9,33.7 -75.7,116 -2.9,126.1c45.3,6.2 94.1,-57.9 128.7,-80c34,-21.7 75.6,-26.5 115.5,-32.2c288.2,-41.2 583.8,-168.9 733.6,-418.5" id="path200"/>
    <path fill="#f8a17a" fill-rule="nonzero" d="m10423.6,12006.6c-10.3,23.7 -33.9,38.7 -57.2,49.9c-79.5,38.1 -171,48.9 -258.1,35.4c-32.5,-5 -67,-14.8 -87.7,-40.4c-20.83,-25.6 -19,-71 10.7,-85.3c-29.3,-19.5 -45.91,-56.6 -40.97,-91.4c4.95,-34.9 31.17,-65.8 64.77,-76.4c-2.8,0.9 -14.9,-48.2 -14.5,-54c1.8,-24.1 16.4,-45.2 34.4,-60.5c38.6,-32.7 90.4,-46.1 141,-48.4c50.5,-2.2 100.9,5.6 151.3,10.3c25,2.4 51.2,4.3 72.6,17.6c41.9,26 45.1,96 5.7,125.7c24.6,-18.6 48.4,88.7 43.4,103.5c-12.2,36.9 -54.3,41.5 -88.7,50.8c24.1,10 33.4,39.7 23.3,63.2" id="path202"/>
    <g id="g204" transform="scale(2.2778899669647217) ">
     <path fill="#f5f5fe" fill-rule="nonzero" d="m16300,4041.61c0,-1710.42 -1386.5,-3097.008 -3097,-3097.008c-1710.4,0 -3097,1386.588 -3097,3097.008c0,1710.42 1386.6,3097 3097,3097c1710.5,0 3097,-1386.58 3097,-3097" id="path206"/>
    </g>
    <g id="g208" transform="scale(2.4601199626922607) ">
     <path fill="#dbcdfe" fill-rule="nonzero" d="m9667.4,1797.11c36.35,-16.91 73.34,-30.16 110.97,-31.67c76.26,-3.09 141.42,41.99 206.74,87.11c63.59,43.9 127.39,87.8 201.69,87.23c116.1,-0.89 210.8,-111.82 326.9,-109.22c150.9,3.41 196.1,155.64 292.2,240.03c97.7,85.81 243.3,206.37 381.7,188.4c143.4,-18.65 245.3,-170.31 389.6,-180.31c103,-7.16 195.8,60.97 268.1,134.91c72.3,73.98 137.7,159.5 230.6,204.75c89.8,43.77 199.8,43.08 289.1,-1.71c86,-43.17 148.3,-121.42 221.5,-183.94c73.2,-62.55 172.7,-111.78 263.6,-80.07c65.2,22.76 109.8,81.54 159.1,130.19c90.4,89.39 212.6,152.07 339.6,149.35c192.7,-4.15 326,-143.01 459.4,-263.49c98.7,-89.22 201.9,-270.15 351,-270.51c82.9,-0.16 150.2,56.05 217.1,112.27c70.1,58.98 139.8,117.92 226.5,111.82c156.8,-11.05 234.8,-228.16 391,-245.72c80.2,-9.02 157.3,37.08 231.8,83.13c94.4,58.37 184.7,116.78 271.8,63.04c84.6,-52.31 103.6,-191.12 200.8,-211.9c98.4,-21.01 171.9,100.81 271.5,114.92c79.7,11.3 154.5,-53.13 183.2,-128.69c218.3,-575.99 -915.7,-631.96 -1223,-631.96c-307.5,0 -588.6,40.03 -803.7,106.17c-333.4,-224.71 -999.6,-378.032 -1767.3,-378.032c-771.1,0 -1439.9,154.712 -1771.8,381.122c-216.4,-67.97 -501.3,-109.26 -813.44,-109.26c-254.09,0 -512.78,23.98 -758.13,92.84c-141.18,39.59 -441.73,108.08 -436.08,302.99c3.25,111.58 100.77,202.96 207.96,232.71c56.17,15.61 115.97,17.89 173.16,6.59c114.51,-22.69 240.56,-96.06 336.98,-30c37.43,25.65 61.21,68.73 100.72,91.09c85.08,48.17 174.87,-20.28 269.13,-64.18" id="path210"/>
    </g>
    <g id="g212" transform="scale(2.4601199626922607) ">
     <path fill="#ffffff" fill-rule="nonzero" d="m16300,1544.64l-8150,0l0,-1544.11125l8150,0l0,1544.11125" id="path214"/>
    </g>
    <g id="g216" transform="scale(1.6628400087356567) ">
     <path fill="#f5f5fe" fill-rule="nonzero" d="m13171.2,10350.5c-5.7,34.5 40,104.1 89.8,103c19.8,-0.4 39.3,-5.6 59,-4.6c52.8,2.6 80.1,43.7 100.5,77.7c20.3,34 60.8,72.7 112.2,64.1c74,-12.4 111.3,-110.1 195.4,-36.7c55.1,48 59.3,115.1 121.6,161.6c42.9,32 112.4,50.9 169.9,33.2c74.8,-23 102.7,-97.3 182.5,-110.2c88.3,-14.3 151.8,52.9 180,101.4c34.3,58.8 46.9,122.4 76.2,182.2c27.2,55.4 81.8,129.6 179.5,128c82.6,-1.3 119.1,-53.7 159.7,-95.2c52.7,-54 162.4,-248 285.3,-224.6c48,9.1 71.9,47.2 115.2,64.2c69.5,27.5 158.2,-10.2 200.1,-57.6c41.9,-47.4 58.5,-104.7 105.9,-149.5c12.2,-11.6 27.1,-22.6 46.4,-27.8c66.1,-18.1 127.7,37.6 198.5,41.7c48.9,2.9 94.2,-20.1 122.3,-48.1c28.1,-28 43.4,-61.1 65,-91.8c5.9,-8.6 12.7,-17.3 23.5,-23.1c31.1,-16.6 74.9,-2.6 112.9,4c94,16.2 200.9,-27 227.4,-91.9l-3128.8,0" id="path218"/>
    </g>
    <g id="g220" transform="scale(2.3111400604248047) ">
     <path fill="#f5f5fe" fill-rule="nonzero" d="m16297.3,7272.18c2.7,16.28 -18.8,49.12 -42.3,48.6c-9.4,-0.21 -18.6,-2.64 -27.9,-2.18c-24.9,1.21 -37.8,20.59 -47.4,36.63c-9.6,16.04 -28.7,34.33 -52.9,30.26c-34.9,-5.86 -52.5,-51.93 -92.2,-17.34c-26,22.64 -28,54.31 -57.4,76.26c-20.1,15.07 -53,24 -80.1,15.67c-35.3,-10.87 -48.4,-45.89 -86.1,-51.99c-41.6,-6.75 -71.6,24.95 -84.9,47.81c-16.2,27.75 -22.1,57.74 -36,85.97c-12.7,26.13 -38.5,61.14 -84.6,60.38c-39,-0.64 -56.2,-25.32 -75.3,-44.92c-24.9,-25.48 -76.6,-116.99 -134.6,-105.95c-22.7,4.3 -34,22.26 -54.4,30.31c-32.8,12.93 -74.6,-4.85 -94.4,-27.21c-19.7,-22.36 -27.6,-49.35 -49.9,-70.51c-5.8,-5.47 -12.8,-10.63 -21.9,-13.12c-31.2,-8.54 -60.2,17.73 -93.7,19.68c-23,1.35 -44.4,-9.49 -57.6,-22.7c-13.3,-13.21 -20.6,-28.83 -30.7,-43.32c-2.8,-4.03 -6,-8.11 -11.1,-10.85c-14.7,-7.85 -35.3,-1.23 -53.2,1.86c-44.4,7.63 -94.8,-12.73 -107.3,-43.34l1475.9,0" id="path222"/>
    </g>
    <g id="g224" transform="scale(2.358750104904175) ">
     <path fill="#e9e8e8" fill-rule="nonzero" d="m12734.1,919.555c-1969.4,0 -3565.93,79.874 -3565.93,178.405c0,98.52 1596.53,178.44 3565.93,178.44c1969.4,0 3565.9,-79.92 3565.9,-178.44c0,-98.531 -1596.5,-178.405 -3565.9,-178.405" id="path226"/>
    </g>
    <g id="g228" transform="scale(2.144860029220581) ">
     <path fill="#381f7a" fill-rule="nonzero" d="m16086.2,2680.08l213.8,0l0,1010.47l-213.8,0l0,-1010.47" id="path230"/>
    </g>
    <g id="g232" transform="scale(2.194279909133911) ">
     <path fill="#381f7a" fill-rule="nonzero" d="m15373.7,2667.81l889.8,0c20.1,0 36.5,16.31 36.5,36.45l0,311.77c0,20.14 -16.4,36.46 -36.5,36.46l-889.8,0c-20.1,0 -36.4,-16.32 -36.4,-36.46l0,-311.77c0,-20.14 16.3,-36.45 36.4,-36.45" id="path234"/>
    </g>
    <g id="g236" transform="scale(2.224090099334717) ">
     <path fill="#9b87ff" fill-rule="nonzero" d="m14582.4,2821.78l1527.9,0c104.7,0 189.7,84.98 189.7,189.79c0,104.8 -85,189.74 -189.7,189.74l-1527.9,0c-104.8,0 -189.8,-84.94 -189.8,-189.74c0,-104.81 85,-189.79 189.8,-189.79" id="path238"/>
    </g>
    <g id="g240" transform="scale(2.2235100269317627) ">
     <path fill="#cbcad2" fill-rule="nonzero" d="m16151.4,2822.52l-65.7,0l28.8,0c71.5,0 133.9,39.62 166.2,98.13c6.7,2.34 13.1,5.13 19.3,8.28c-21.1,-61.84 -79.6,-106.41 -148.6,-106.41m-1015.8,0l-577.8,0c-83.9,0 -152.4,65.8 -156.9,148.55c18.8,-84.96 94.7,-148.55 185.3,-148.55l549.4,0" id="path242"/>
    </g>
    <g id="g244" transform="scale(1.9761699438095093) ">
     <path fill="#cbcad2" fill-rule="nonzero" d="m16203.3,3435.84c3.5,64.72 41.9,120.08 96.7,147.86c-1.7,-4.96 -3.2,-10.02 -4.5,-15.18c-46.1,-29.96 -79.9,-77.27 -92.2,-132.68" id="path246"/>
    </g>
    <g id="g248" transform="scale(2.2208800315856934) ">
     <path fill="#8372d2" fill-rule="nonzero" d="m16133.6,2825.87l-28.8,0l-951.2,0l-550.1,0c-90.8,0 -166.7,63.66 -185.5,148.72c-0.2,2.88 -0.3,5.72 -0.3,8.65l0,65.38c0,2.92 0.1,5.76 0.3,8.64c10.9,49.31 41,91.41 82,118.06c-2.9,-11.93 -4.6,-24.4 -4.6,-37.28l0,-65.42c0,-86.91 70.5,-157.33 157.4,-157.33l1595.4,0c18.2,0 35.6,3.15 51.8,8.83c-32.4,-58.59 -94.8,-98.25 -166.4,-98.25" id="path250"/>
    </g>
    <g id="g252" transform="scale(2.144860029220581) ">
     <path fill="#381f7a" fill-rule="nonzero" d="m16086.2,2300.38l213.8,0l0,544.05l-213.8,0l0,-544.05" id="path254"/>
    </g>
    <g id="g256" transform="scale(2.1519598960876465) ">
     <path fill="#381f7a" fill-rule="nonzero" d="m15979.4,1986.01l320.6,0l0,542.25l-320.6,0l0,-542.25" id="path258"/>
    </g>
    <g id="g260" transform="scale(2.258739948272705) ">
     <path fill="#381f7a" fill-rule="nonzero" d="m14913.8,1514.96l106.8,0c0,178.51 116.3,323.76 259.2,323.76l654.2,0c143,0 259.2,-145.25 259.2,-323.76l106.8,0c0,237.39 -164.2,430.55 -366,430.55l-654.2,0c-201.8,0 -366,-193.16 -366,-430.55" id="path262"/>
    </g>
    <g id="g264" transform="scale(2.1906399726867676) ">
     <path fill="#381f7a" fill-rule="nonzero" d="m14870.7,1562.06l110.1,0c0,184.05 119.9,333.83 267.3,333.83l674.6,0c147.4,0 267.2,-149.78 267.2,-333.83l110.1,0c0,244.77 -169.3,443.93 -377.3,443.93l-674.6,0c-208.1,0 -377.4,-199.16 -377.4,-443.93" id="path266"/>
    </g>
    <g id="g268" transform="scale(2.2513198852539062) ">
     <path fill="#9b87ff" fill-rule="nonzero" d="m14765.9,3407.86l1346.7,0c103.5,0 187.4,77.91 187.4,173.99l0,1175.31c0,441.21 -385.4,798.9 -860.8,798.9l0,0c-475.4,0 -860.8,-357.69 -860.8,-798.9l0,-1175.31c0,-96.08 83.9,-173.99 187.5,-173.99" id="path270"/>
    </g>
    <g id="g272" transform="scale(2.272979974746704) ">
     <path fill="#381f7a" fill-rule="nonzero" d="m15989.7,1332.79c0,-85.66 69.5,-155.13 155.2,-155.13c85.7,0 155.1,69.47 155.1,155.13c0,85.66 -69.4,155.13 -155.1,155.13c-85.7,0 -155.2,-69.47 -155.2,-155.13" id="path274"/>
    </g>
    <g id="g276" transform="scale(2.2782199382781982) ">
     <path fill="#381f7a" fill-rule="nonzero" d="m16300,1329.72c0,106.23 -86.1,192.3 -192.3,192.3c-106.2,0 -192.3,-86.07 -192.3,-192.3" id="path278"/>
    </g>
    <g id="g280" transform="scale(2.2045199871063232) ">
     <path fill="#381f7a" fill-rule="nonzero" d="m15980.1,1374.18c0,-88.32 71.6,-159.95 160,-159.95c88.3,0 159.9,71.63 159.9,159.95c0,88.31 -71.6,159.94 -159.9,159.94c-88.4,0 -160,-71.63 -160,-159.94" id="path282"/>
    </g>
    <g id="g284" transform="scale(2.2097699642181396) ">
     <path fill="#381f7a" fill-rule="nonzero" d="m16300,1370.91c0,109.52 -88.7,198.26 -198.3,198.26c-109.4,0 -198.2,-88.74 -198.2,-198.26" id="path286"/>
    </g>
    <g id="g288" transform="scale(2.0958800315856934) ">
     <path fill="#381f7a" fill-rule="nonzero" d="m15963.5,1445.41c0,-92.9 75.4,-168.24 168.3,-168.24c92.9,0 168.2,75.34 168.2,168.24c0,92.9 -75.3,168.23 -168.2,168.23c-92.9,0 -168.3,-75.33 -168.3,-168.23" id="path290"/>
    </g>
    <g id="g292" transform="scale(2.1011199951171875) ">
     <path fill="#381f7a" fill-rule="nonzero" d="m16300,1441.8c0,115.18 -93.3,208.51 -208.5,208.51c-115.2,0 -208.5,-93.33 -208.5,-208.51" id="path294"/>
    </g>
    <g id="g296" transform="scale(2.0274200439453125) ">
     <path fill="#381f7a" fill-rule="nonzero" d="m15952.2,1494.21c0,-96.03 77.8,-173.91 173.9,-173.91c96,0 173.9,77.88 173.9,173.91c0,96.04 -77.9,173.92 -173.9,173.92c-96.1,0 -173.9,-77.88 -173.9,-173.92" id="path298"/>
    </g>
    <g id="g300" transform="scale(2.032670021057129) ">
     <path fill="#381f7a" fill-rule="nonzero" d="m16300,1490.36c0,119.05 -96.5,215.53 -215.5,215.53c-119.1,0 -215.6,-96.48 -215.6,-215.53" id="path302"/>
    </g>
    <g id="g304" transform="scale(2.2262299060821533) ">
     <path fill="#cbcad2" fill-rule="nonzero" d="m16295.1,3446.28c0,0 0,0 0.1,0c0,0 -0.1,0 -0.1,0m1,0.04c0,0 0,0 0.1,0c0,0 -0.1,0 -0.1,0m0.9,0c0,0 0.1,0 0.1,0c0,0 -0.1,0 -0.1,0m1,0c0,0 0.1,0 0.1,0c0,0 0,0 -0.1,0m2,0.05l0,0l0,0m-1557.2,1365.76c0,0.17 0,0.33 0,0.48c0,-0.16 0,-0.31 0,-0.48m0,1.37c0,0.17 0,0.34 0,0.51c0,-0.19 0,-0.32 0,-0.51m0,1.34c0,0.2 0,0.38 0,0.59c0,-0.19 0,-0.4 0,-0.59m0,1.36c0,0.19 0,0.35 0,0.54c0,-0.19 0,-0.35 0,-0.54m0,1.36c0,0.19 0,0.38 0,0.57c0,-0.19 0,-0.38 0,-0.57m0,1.36c0,0.18 0,0.36 0,0.53c0,-0.16 0,-0.36 0,-0.53m0,1.36c0,0.18 0,0.37 0,0.56c0,-0.19 0,-0.37 0,-0.56m0,1.35c0,0.19 0,0.34 0,0.53c0,-0.16 0,-0.37 0,-0.53m0.1,1.38c0,0.17 0,0.34 0,0.51c0,-0.16 0,-0.35 0,-0.51m0,1.35c0,0.18 0,0.34 0,0.52c0,-0.19 0,-0.33 0,-0.52m0,1.35c0,0.19 0,0.34 0,0.53c0,-0.19 0,-0.34 0,-0.53m0,1.43c0,0.14 0.1,0.28 0.1,0.42c0,-0.14 -0.1,-0.29 -0.1,-0.42m0.1,1.44c0,0.1 0,0.24 0,0.34c0,-0.11 0,-0.23 0,-0.34m0.2,7.18c0,0.03 0,0.08 0,0.11c0,-0.03 0,-0.08 0,-0.11m0,1.34c0,0.08 0,0.15 0,0.22c0,-0.08 0,-0.14 0,-0.22m0.1,1.4c0,0.04 0,0.1 0,0.15c0,-0.03 0,-0.13 0,-0.15m0,1.37c0,0.05 0,0.1 0,0.15c0,-0.03 0,-0.12 0,-0.15m0.1,1.37c0,0.06 0,0.1 0,0.16c0,-0.06 0,-0.11 0,-0.16m0,1.39c0,0.03 0,0.09 0,0.12c0,-0.03 0,-0.09 0,-0.12" id="path306"/>
    </g>
    <g id="g308" transform="scale(2.2498300075531006) ">
     <path fill="#8372d2" fill-rule="nonzero" d="m16123.2,3410.12l-583.7,0l-203.8,0l-560,0c-103.6,0 -187.6,77.96 -187.6,174.1l0,1176.09c0,0.45 0,0.89 0,1.33c0,0.16 0,0.31 0,0.48c0,0.28 0,0.58 0,0.87c0,0.19 0,0.32 0,0.51c0,0.27 0,0.55 0,0.82c0,0.18 0,0.39 0,0.58c0,0.24 0,0.52 0,0.77c0,0.18 0,0.34 0,0.53c0,0.28 0,0.54 0,0.81c0,0.19 0,0.37 0,0.56c0,0.26 0,0.53 0,0.79c0,0.16 0,0.36 0,0.52c0,0.27 0,0.54 0,0.82c0,0.19 0,0.37 0,0.56c0,0.26 0,0.52 0,0.78c0,0.16 0,0.36 0,0.52c0.1,0.27 0.1,0.57 0.1,0.84c0,0.17 0,0.35 0,0.51c0,0.27 0,0.56 0,0.83c0,0.19 0,0.32 0,0.51c0,0.27 0,0.55 0,0.82c0,0.19 0,0.34 0,0.53c0,0.29 0,0.6 0,0.89c0,0.13 0.1,0.28 0.1,0.41c0,0.35 0,0.67 0,1.01c0,0.11 0,0.23 0,0.34c0.1,2.27 0.1,4.5 0.2,6.77c0,0.03 0,0.08 0,0.11c0,0.41 0,0.81 0,1.22c0,0.08 0,0.13 0,0.21c0,0.39 0,0.78 0.1,1.17c0,0.02 0,0.12 0,0.15c0,0.41 0,0.8 0,1.21c0,0.03 0,0.12 0,0.14c0,0.4 0.1,0.82 0.1,1.21c0,0.06 0,0.1 0,0.16c0,0.41 0,0.81 0,1.22c0,0.03 0,0.08 0,0.11c9.4,222.65 116.8,421.89 283.4,561.61c-114,-135.59 -182.2,-306.06 -182.2,-491.4l0,-1176.09c0,-96.14 84,-174.06 187.6,-174.06l1347.6,0c26.6,0 51.9,5.2 74.9,14.54c-25.1,-66.14 -91.8,-114.1 -171,-116.32l-0.1,0c-0.6,0 -1.2,-0.05 -1.8,-0.05c0,0 -0.1,0 -0.1,0c-0.3,0 -0.6,0 -0.9,0c0,0 -0.1,0 -0.1,0c-0.2,0 -0.5,0 -0.8,0c-0.1,0 -0.1,0 -0.1,0c-0.3,-0.04 -0.6,-0.04 -0.8,-0.04c-0.1,0 -0.2,0 -0.2,0c-0.3,0 -0.6,0 -0.9,0l0,0" id="path310"/>
    </g>
    <g id="g312" transform="scale(1.8717999458312988) ">
     <path fill="#381f7a" fill-rule="nonzero" d="m11823.4,4703.18l4476.6,0l0,288.03l-4476.6,0l0,-288.03" id="path314"/>
    </g>
    <g id="g316" transform="scale(1.8491699695587158) ">
     <path fill="#0b2d4e" fill-rule="nonzero" d="m12167.7,4470.56l4132.3,0l0,291.54l-4132.3,0l0,-291.54" id="path318"/>
    </g>
    <g id="g320" transform="scale(1.82122004032135) ">
     <path fill="#0b2d4e" fill-rule="nonzero" d="m16300,1422.01l-276.1,0l-341.6,3117.14l276.2,0l341.5,-3117.14" id="path322"/>
    </g>
    <g id="g324" transform="scale(1.4767500162124634) ">
     <path fill="#0b2d4e" fill-rule="nonzero" d="m15538.3,1753.72l340.5,0l421.2,3844.25l-340.5,0l-421.2,-3844.25" id="path326"/>
    </g>
    <g id="g328" transform="scale(1.9057899713516235) ">
     <path fill="#e5785c" fill-rule="nonzero" d="m15477.5,1380.74c26.6,-9.76 53.6,-19.57 81.9,-21.61c67.1,-4.78 133,68.37 152.4,124.88c37.4,108.3 -3.5,186.22 10.9,297.46c14.5,111.92 48.1,213.61 93.9,316.51c51.5,115.75 107.8,229.04 161.3,344.27c50.3,108.35 97.3,219.23 135.1,332.83c54.1,161.98 90,330.1 129.4,495.8c40.7,170.75 57.6,347.16 49.7,522.46c-3.5,77.56 -15.9,163.14 -75.3,213.14c-76,64.02 -198.6,36.79 -270,-32.32c-101.5,-98.07 -134.6,-252.28 -159,-385.61c-54.1,-294.89 -120.8,-587.27 -182.2,-880.69c-32.6,-155.94 -61.1,-312.68 -87.7,-469.78c-13.5,-79.86 -28.1,-168.96 -58.2,-243.15c-54,-133.18 -134.6,-236.13 -261.4,-306.6c-67.7,-37.62 -158.6,-61.65 -209.2,-123.51c-6.9,-8.51 -9.6,-21.52 -3.3,-30.49c3.1,-4.41 7.9,-7.29 12.6,-10.02c70.7,-40.3 148.6,-67.59 228.9,-80.55c37.7,-6.14 79.1,-3.09 115,-13.54c45.7,-13.32 90.5,-33.1 135.2,-49.48" id="path330"/>
    </g>
    <g id="g332" transform="scale(1.9057899713516235) ">
     <path fill="#061f33" fill-rule="nonzero" d="m15913.4,2305.82c21.6,45.34 43.3,90.73 64.5,136.43c50.3,108.35 97.3,219.23 135.1,332.83c54.1,161.98 90,330.1 129.4,495.8c40.7,170.75 57.6,347.16 49.7,522.46c-3.5,77.56 -15.9,163.14 -75.3,213.14c-76,64.02 -198.6,36.79 -270,-32.32c-101.5,-98.07 -134.6,-252.28 -159,-385.61c-54.1,-294.89 -120.8,-587.27 -182.2,-880.69c-17.4,-83.27 -33.6,-166.81 -49.1,-250.5" id="path334"/>
    </g>
    <g id="g336" transform="scale(2.1870501041412354) ">
     <path fill="#f8a17a" fill-rule="nonzero" d="m15786.6,4057.6c-246,-14.35 -482.7,-115.44 -710.7,-201.92c-269.3,-102.13 -539,-184.48 -818.5,-250.23c-163.3,-38.45 -395.8,-107.36 -406,-311.51c-9.8,-195.38 220.5,-264.93 382.7,-257.98c295.8,12.76 591.9,3.89 887.8,6.36c220.8,1.87 443.1,3.34 661.3,41.11c192.8,33.37 355.9,107.77 433.6,300.17c83.2,205.94 14.9,490 -162.6,627.84c-41.9,32.6 -96.7,44.24 -149.8,46.81c-39.9,1.92 -79.1,1.6 -117.8,-0.65" id="path338"/>
    </g>
    <g id="g340" transform="scale(1.9922599792480469) ">
     <path fill="#f8a17a" fill-rule="nonzero" d="m16286.3,1685.27c-26.3,106.41 -99.6,147.72 -145.8,244.6c-46.5,97.37 -72.3,196.51 -89,303.02c-18.7,119.76 -32.3,239.93 -49.2,360.29c-15.9,113.19 -35.7,226.63 -64.3,337.56c-30.3,117.75 -66.7,247.91 -131.2,351.05c-77.3,123.43 -155.8,246.06 -233.7,369.08c-21.1,33.53 -42.8,67.56 -72.9,93.41c-96.1,82.77 -223.8,25.6 -267.8,-81.56c-36.8,-89.6 -13.1,-163.23 21.8,-247.41c109.7,-265.02 208,-534.47 311.1,-802.1c54.8,-142.2 113.2,-282.95 173.5,-422.94c30.6,-71.17 65.2,-150.33 79.5,-225.57c15.1,-79.01 27.6,-148.12 -7.2,-224.82c-17.8,-39.2 -59.4,-78.86 -92.5,-106.01c-20.3,-16.61 -42.8,-30.37 -65.1,-44.12c-51.4,-31.62 -102.8,-63.24 -154.3,-94.87c-16,-9.83 -32.1,-19.82 -44.8,-33.58c-12.7,-13.75 -21.8,-31.97 -20.3,-50.64c1.8,-23.7 20.1,-43.57 41.4,-53.96c31.9,-15.56 62.7,-15.36 96,-7.78c193.4,43.87 386.7,87.74 580.1,131.66c26.5,5.97 53.3,12.15 77.1,25.2c56.4,31.01 71.3,123.92 57.6,179.49" id="path342"/>
    </g>
    <g id="g344" transform="scale(2.187040090560913) ">
     <path fill="#0b2d4e" fill-rule="nonzero" d="m14599.4,2193.74c-7.3,56.1 -14.4,112.3 -22.3,168.49c-14.5,103.11 -32.5,206.44 -58.5,307.49c-27.7,107.27 -60.8,225.84 -119.6,319.8c-10.6,16.92 -21.4,33.79 -32,50.7c251.6,6 503.3,0 754.9,2.11c220.8,1.87 443.1,3.34 661.4,41.1c192.7,33.38 355.9,107.77 433.6,300.18c83.1,205.94 14.8,490 -162.6,627.84c-42,32.6 -96.7,44.25 -149.8,46.81c-39.9,1.92 -79.2,1.6 -117.8,-0.65c-246.1,-14.35 -482.7,-115.44 -710.8,-201.91c-269.3,-102.14 -538.9,-184.49 -818.4,-250.24c-163.4,-38.45 -395.9,-107.36 -406.1,-311.51c-1.5,-29.91 2.7,-56.84 11.3,-81.03c6,-33.47 18.4,-66.62 33,-101.78c99.9,-241.42 189.4,-486.86 283.4,-730.66c36.4,-94.52 74.5,-188.29 113.9,-281.62" id="path346"/>
    </g>
    <g id="g348" transform="scale(1.9974900484085083) ">
     <path fill="#597ff5" fill-rule="nonzero" d="m16270,1668.95c-13.2,41.6 -34.8,81.1 -61.5,116.19c-4.1,5.41 -52.6,50.66 -52.9,49.81c-14.3,-49.91 -40.5,-91.41 -67.9,-134.77c-30.9,-48.76 -95.6,-74.84 -147.1,-94.96c-75.8,-29.59 -157.6,-44.76 -239.1,-42.81c-33.7,0.8 -68.3,4.71 -98,20.48c-3.6,1.85 -7.2,3.95 -11.3,4.25c-4.5,0.3 -8.9,-1.85 -13,-3.9c-60.4,-30.49 -120.2,-63.63 -182.4,-90.27c-48,-20.52 -110.7,-33.79 -144,-77.74c-19.9,-26.34 -22,-67.99 2.4,-90.17c46.8,-42.5 113.6,-48.41 173.9,-48.36c71.9,0.1 143.2,0.95 214.8,9.31c102.1,11.92 203,33.1 301.8,61.43c50,14.37 99.5,30.54 148.4,48.31c44.5,16.07 97,30.24 137.5,54.62c68.4,41.1 58.9,153.49 38.4,218.58" id="path350"/>
    </g>
    <g id="g352" transform="scale(1.8455599546432495) ">
     <path fill="#597ff5" fill-rule="nonzero" d="m16236.1,1798.64c-97.8,-75.15 -181.5,-142.18 -306.6,-166.07c-64.3,-12.3 -130.8,-13.55 -195.5,-3.09c-33,5.37 -65.6,13.76 -97,25.3c-13.6,4.99 -25.6,9.87 -35.9,18.43c-9.1,7.53 -10.6,16.31 -24.7,18.47c-12.5,1.95 -25,-1.68 -37.1,-5.25c-102,-30.18 -204.3,-60.47 -301.2,-104.41c-27.1,-12.31 -54.8,-26.5 -72.8,-50.29c-21.6,-28.5 -23.8,-73.58 2.6,-97.58c70.1,-63.73 178.1,-50.61 264.4,-52.24c170,-3.08 342.5,27.37 511.9,13.82c80.7,-6.45 160.6,-8.02 241.9,4.93c62.6,9.97 98.8,51.8 104.7,114c9.2,97.27 -10,197.07 -54.7,283.98" id="path354"/>
    </g>
    <g id="g356" transform="scale(1.829360008239746) ">
     <path fill="#597ff5" fill-rule="nonzero" d="m16300,5287.02l-2034.4,0l0,-180.21l2034.4,0l0,180.21" id="path358"/>
    </g>
    <g id="g360" transform="scale(1.6245399713516235) ">
     <path fill="#597ff5" fill-rule="nonzero" d="m16300,5834.43l-725,2040.83c-23.1,65.12 -94.7,99.15 -159.8,76.02c-65.1,-23.13 -99.1,-94.68 -76,-159.8l725,-2040.82l235.8,83.77" id="path362"/>
    </g>
    <g id="g364" transform="scale(1.9565500020980835) ">
     <path fill="#0b2d4e" fill-rule="nonzero" d="m16284.6,5586.63c10.9,-76.87 15.4,-154.67 13.4,-232.27c-4,-150.46 -3.8,-368.96 -210.7,-251.89c-68.9,39.02 -121,101.53 -183.2,150.64c-136.1,107.63 -323.9,146.59 -491.7,102c-101.3,-26.92 -193.9,-83.96 -265.6,-160.32c-68.4,-73.02 -106,-129.86 -191,-184.89c-204.7,-132.53 -516.9,-69.7 -656.7,141.21c-106.5,160.72 -178.9,366.38 -153.1,561.24c23.7,179.49 158,351.98 304,451.57c110.4,75.24 236.7,123.39 364,164.03c341.4,109.12 707.8,151.42 1036.2,-25.18c76.6,-41.19 148.2,-92.95 206.2,-157.77c67.9,-76.03 115.7,-168.23 152.1,-263.52c36.4,-95.03 61.8,-194.15 76.1,-294.85" id="path366"/>
    </g>
    <g id="g368" transform="scale(1.8998299837112427) ">
     <path fill="#e5785c" fill-rule="nonzero" d="m16300,5651.58c-59.4,-40.12 -113.6,-96.15 -161.1,-135.97c-12.3,-10.33 -25,-20.84 -39.8,-26.11c-49.2,-17.47 -99.9,25.75 -145.7,57.22c-42.3,29.03 -89.1,50.22 -126.8,86.43c-37.6,36.19 -65.1,94.28 -49.7,144.36c4.8,15.59 1.3,7.07 13.1,16.82c41.7,34.57 84.9,70.9 126.3,109.05c156.2,-46.08 301.9,-130.04 383.7,-251.8" id="path370"/>
    </g>
    <g id="g372" transform="scale(1.895799994468689) ">
     <path fill="#f8a17a" fill-rule="nonzero" d="m15659.6,5960.69c-89.1,9.98 -175,7.64 -247.8,-7c-314.3,-63.17 -433.6,-431.88 -243.1,-684.84c65.1,-86.55 173.6,-154.82 280.4,-166.88c162.8,-18.42 329.1,-14.24 483,-78.38c5.3,-2.23 10.8,-4.55 16.5,-4.97c21.7,-1.53 35.8,22.85 39.2,44.25c7.4,46.25 12.2,62.53 56.2,83.2c59.8,28.16 116.5,64.72 162.6,112.46c62.9,64.98 93.4,159.76 80.4,249.21c-39.4,270.66 -349,421.81 -627.4,452.95" id="path374"/>
    </g>
    <g id="g376" transform="scale(1.8444000482559204) ">
     <path fill="#e5785c" fill-rule="nonzero" d="m15881.8,5243.88c-0.7,0.08 -1.5,0.16 -2.3,0.25c-109.8,12.4 -221.2,82.57 -288.2,171.53c-195.8,260.01 -73.1,639 249.9,703.93c74.9,15.04 163.2,17.44 254.8,7.19c67.6,-7.56 136.9,-22.08 204,-43.4c-32.9,-32.05 -71.5,-50.98 -113.2,-60.97c-35.4,-8.5 -73.1,-10.55 -111.5,-8.74c-65.1,3.06 -135.4,-14.99 -164.6,-82.53c-16.8,-38.78 -8.3,-88.56 24,-115.88c25.6,-21.7 63,-28.62 95.7,-24.45c15.1,1.94 77.6,14.77 56.2,-21.54c-24.4,-41.44 -68.5,-64.82 -98.2,-101.67c-30.2,-37.57 -52.3,-73.77 -59.4,-122.44c-9.1,-62.49 -4.2,-126.43 -13.9,-188.82c-6,-38.36 -16.7,-77.08 -33.3,-112.46" id="path378"/>
    </g>
    <g id="g380" transform="scale(2.1784799098968506) ">
     <path fill="#3dc8e8" fill-rule="nonzero" d="m15933,3854.25c15.6,2.98 31,6.02 46.5,9.09c82.4,16.35 320.5,27.05 286.8,164.73c-115.8,473.22 -237,969.57 -647,1277.13c-346.4,259.92 -801.7,312.54 -1221.1,256.56c-83.4,-11.14 -165.8,-32.72 -240.3,-72.72c-178.4,-95.73 -289.3,-279.02 -391.5,-453.79c184.5,-97.71 369,-195.41 553.5,-293.12c133.6,-70.74 269,-142.38 384.1,-241.51c94.3,-81.07 232.8,-140.88 285.6,-260.73c60.6,-137.3 51.4,-288.43 -4.5,-423.92c47,-24.79 227.3,-46.73 251.3,-46.64c87.3,0.27 174.2,4.31 260.8,15.01c146.1,17.95 291.3,42.05 435.8,69.91" id="path382"/>
    </g>
    <g id="g384" transform="scale(1.9980900287628174) ">
     <path fill="#0b2d4e" fill-rule="nonzero" d="m15705.7,6007.21c-24.6,47.55 -60.1,90.17 -109.5,127.12c-96.2,71.89 -218.5,115.68 -336.9,132.25c-252.2,35.31 -617.6,-93 -786.1,-287.26c-156.7,-180.61 -256.4,-499.52 -229.6,-738.1c4.1,-36.58 14.7,-72.1 26.7,-106.93c22.8,-66.65 50.8,-132.28 90.8,-190.55c7.2,-10.39 15,-20.29 22.4,-30.44c6.3,-8.51 10.9,-17.97 18,-25.85c17.3,-19.13 44.4,-26.67 68.9,-31.3c8.6,-1.62 18,-2.68 27,-2.18c9,0.52 17.4,3.47 26.3,4.84c13.1,2.02 28.8,1.47 41,6.93c27.7,12.33 49.2,61.31 64.8,108.47c18.2,55.36 23.4,114.32 41.2,169.84c13.8,43.24 39.4,72.87 72.6,102.53c32.5,29.07 76.3,43.69 104.8,77.75c24.9,29.84 -33.9,27.58 -48,28.11c-30.3,1.12 -63.4,13.09 -83.5,36.72c-25.2,29.75 -25.4,76.37 -4.3,109.15c56.9,88.13 151.5,68.67 243.6,8.15c118.6,-78.02 233.1,-224.27 257.3,-296.26c27.3,-81.51 24.8,-170.97 54.5,-251.66c42.5,-115.69 136.4,-213.9 135.5,-343.57c-0.4,-57.1 -19.2,-112.25 -29.8,-168.36c-10.6,-56.12 -12,-118.01 18.7,-166.13c26.3,-41.19 71.8,-65.55 116.4,-85.58c77.3,-34.72 159.7,-62.14 244.4,-61.44c100.3,0.9 194.2,41.54 277.4,94.63c69.1,44.03 164.7,100.1 198.3,176.33c71.4,162.53 59.6,357.28 -64.1,492.5c-89.7,98.15 -220.8,134.99 -296.2,245.82c-71.1,104.61 -114.2,228.29 -122.4,354.6c-5.8,91.44 6,183.03 7,274.65c0.9,87.29 -11.7,166.42 -47.2,235.22" id="path386"/>
    </g>
    <g id="g388" transform="scale(1.9297900199890137) ">
     <path fill="#73b8d4" fill-rule="nonzero" d="m14831.2,5092.51c-19.9,10.66 -38.7,23.19 -56.3,37.34c-17.5,14.38 -33.6,30.38 -48.5,47.4l-10.8,13.07c-1.8,2.14 -3.5,4.45 -5.2,6.7l-5.1,6.8l-5.1,6.8l-4.7,7.02l-4.8,7.02c-1.6,2.35 -3.2,4.67 -4.7,7.1l-8.9,14.44c-3,4.82 -5.6,9.82 -8.5,14.72l-4.2,7.39l-3.9,7.54c-2.5,5.04 -5.2,10.01 -7.7,15.12c-10,20.32 -18.8,41.18 -27,62.3l-5.9,15.93c-2,5.31 -3.6,10.75 -5.4,16.12c-3.7,10.73 -6.6,21.71 -9.7,32.62l-1.1,4.1l-1,4.14l-2,8.27l-1.9,8.28c-0.6,2.76 -1.4,5.51 -1.8,8.3l-3.4,16.68c-0.5,2.79 -1.1,5.56 -1.6,8.36l-1.3,8.4l-2.7,16.8l-2.1,16.88c-1.5,11.24 -2.3,22.55 -3.3,33.85c-0.6,5.65 -0.8,11.31 -1.1,16.98l-0.9,16.99l-0.2,17.02c-0.1,5.68 -0.3,11.35 -0.1,17.02c0.3,11.35 0.3,22.71 1.2,34.04c0.3,5.67 0.5,11.34 1,17l1.6,16.97c4.3,45.25 13.3,90.16 28.2,133.46c15.2,43.14 37.3,84.06 66.1,119.91c14.4,17.91 30.5,34.52 48.2,49.29c17.7,14.75 37.1,27.73 57.7,38.17l7.7,3.91l7.8,3.63c2.6,1.25 5.3,2.36 8,3.47c2.6,1.11 5.2,2.26 7.9,3.32c10.7,4.2 21.5,8.06 32.5,11.42c21.9,6.77 44.2,11.96 66.5,16.35c44.6,8.75 89.5,14.25 133.5,22.34c44,8.11 87.4,18.68 127.5,37.18c40.3,18.29 77.7,42.91 113.6,69.51c36,26.66 70.8,55.31 106.9,82.77c36,27.41 73.6,53.82 114.7,74.55c41,20.77 86.2,35.14 132.7,38.51c46.4,3.48 93.2,-3.3 137.1,-17.78c43.9,-14.54 85.1,-36.68 121.8,-64.47c9.3,-6.9 18.1,-14.3 26.7,-21.93l6.5,-5.79l6.2,-5.95c4.2,-3.98 8.2,-8 12.3,-12.07c16,-16.3 31.3,-33.37 45.6,-51.25c28.5,-35.78 53.7,-74.83 70.4,-118.29c8.4,-21.68 14.3,-44.56 16.4,-68.08c1.1,-11.76 1.1,-23.64 0.2,-35.31c-0.9,-11.67 -2.6,-23.18 -4.7,-34.49c-4.2,-22.62 -9.9,-44.51 -14.5,-66.29c-4.5,-21.73 -7.7,-43.65 -9.4,-65.77c-3.5,-44.23 -1.3,-88.9 5,-133.02c6.3,-44.15 16.7,-87.76 29.4,-130.7c12.6,-42.97 27.7,-85.28 44,-127.2c8.2,-20.95 16.5,-41.81 25.1,-62.62c8.6,-20.82 17.4,-41.69 25.5,-62.89c8.1,-21.19 15.6,-42.72 21.7,-64.76c6.1,-22.02 10.6,-44.62 12.6,-67.57c2,-22.94 1.2,-46.26 -2.9,-69.03c-4,-22.75 -11,-44.44 -17.3,-66c-3.1,-10.78 -6,-21.55 -8.5,-32.35c-2.3,-10.83 -4.1,-21.71 -4.8,-32.6c-0.6,-10.9 0.1,-21.75 2,-32.35c2.3,-10.56 6.1,-20.73 11.1,-30.35c20.5,-38.84 58.9,-66.75 80.8,-107.96c11.1,-20.33 16.5,-43.36 17.8,-66.27c0.3,-11.47 0,-23 -1.9,-34.32c-0.7,-5.69 -2.1,-11.26 -3.3,-16.85c-0.3,-1.4 -0.7,-2.78 -1.1,-4.15l-1.2,-4.11l-1.2,-4.12c-0.3,-1.38 -0.7,-2.75 -1.3,-4.08c-1.9,-5.37 -3.7,-10.79 -6.1,-15.97c-1.2,-2.61 -2.3,-5.27 -3.5,-7.82l-3.9,-7.63c-1.2,-2.57 -2.7,-5.01 -4.1,-7.47c-1.5,-2.45 -2.9,-4.93 -4.4,-7.34l-4.8,-7.1l-2.3,-3.54l-2.6,-3.39l-5.3,-6.78l-5.5,-6.47l-2.8,-3.22c-0.9,-1.07 -2,-2.05 -3,-3.08l-5.9,-6.09c-8.4,-7.73 -17,-15.22 -26.5,-21.42c-18.8,-12.88 -40.1,-21.84 -62.3,-26.2c-22.3,-4.24 -45.5,-3.02 -67.2,2.78c21.9,-5.32 44.9,-6.01 66.9,-1.33c21.9,4.8 42.8,14.1 60.9,27.18c9.3,6.3 17.6,13.8 25.6,21.55l5.8,6.09c1,1.03 2,2 2.8,3.06l2.7,3.22l5.4,6.44l5,6.75l2.4,3.37l2.3,3.51l4.6,7.03c1.4,2.41 2.7,4.85 4.1,7.28c1.4,2.42 2.8,4.84 3.9,7.38l3.7,7.52c1.2,2.51 2.2,5.13 3.3,7.69c2.2,5.1 3.8,10.42 5.7,15.68c0.5,1.3 0.8,2.64 1.2,3.99l1.1,4.02l1.1,4.03c0.3,1.33 0.7,2.68 0.9,4.05c1.1,5.45 2.3,10.86 2.9,16.39c1.7,10.98 1.8,22.1 1.4,33.13c-1.6,22 -7.1,43.87 -18,63.03l-4.1,7.19l-4.5,6.9c-3.2,4.51 -6.5,8.97 -10,13.28c-7,8.67 -14.4,17 -22,25.38c-15.1,16.68 -30.7,33.73 -41.9,54.25c-5.7,10.2 -9.9,21.33 -12.5,32.83c-2.3,11.54 -3.1,23.31 -2.6,34.95c0.6,11.62 2.3,23.08 4.6,34.32c2.5,11.21 5.3,22.25 8.4,33.16c6,21.8 12.6,43.26 16.2,64.99c3.7,21.68 4.2,43.83 1.9,65.8c-2.1,21.97 -6.8,43.72 -12.9,65.11c-6,21.39 -13.6,42.44 -21.8,63.29c-8.2,20.87 -17,41.53 -25.8,62.33c-8.8,20.8 -17.4,41.69 -25.8,62.71c-16.7,42.03 -32.3,84.62 -45.5,128.07c-13.2,43.45 -23.9,87.8 -30.6,132.94c-6.7,45.11 -9.2,91.06 -5.9,136.81c1.6,22.86 4.9,45.66 9.4,68.12c4.6,22.39 10.2,44.19 14.1,65.94c4,21.73 6.1,43.43 4.1,64.79c-2,21.42 -7.5,42.64 -15.4,63.02c-15.7,40.84 -40,78.49 -67.7,113.1c-14,17.29 -28.8,33.87 -44.4,49.69c-3.9,3.95 -7.9,7.9 -11.9,11.69l-6,5.68l-6.1,5.53c-8.3,7.27 -16.8,14.33 -25.6,20.91c-35.2,26.52 -74.6,47.56 -116.4,61.36c-41.7,13.83 -85.9,20.27 -129.5,17.07c-43.6,-3.09 -86.2,-16.46 -125.6,-36.31c-39.5,-19.81 -76.1,-45.45 -111.9,-72.51c-35.7,-27.1 -70.6,-55.8 -107.3,-82.63c-36.6,-26.8 -75.1,-51.98 -117.2,-70.83c-10.5,-4.7 -21.2,-8.99 -32,-12.86c-10.9,-3.76 -21.9,-7.24 -32.9,-10.23c-22.1,-6.09 -44.5,-10.69 -66.8,-14.7c-44.8,-7.95 -89.6,-13.31 -133.5,-21.58c-22,-4.13 -43.8,-9.02 -65,-15.39c-10.6,-3.16 -21.1,-6.8 -31.4,-10.73c-2.6,-1 -5.1,-2.09 -7.7,-3.13c-2.5,-1.04 -5.1,-2.09 -7.6,-3.26l-7.5,-3.41l-7.4,-3.67c-39.5,-19.62 -73.9,-48.57 -101.9,-82.79c-28,-34.27 -49.7,-73.68 -65,-115.37c-14.9,-41.85 -24.4,-85.86 -29.2,-130.32l-1.7,-16.7c-0.5,-5.57 -0.8,-11.16 -1.2,-16.74c-0.9,-11.17 -1.1,-22.36 -1.5,-33.56c-0.3,-5.59 -0.2,-11.19 -0.1,-16.8l0,-16.81l0.7,-16.79c0.2,-5.6 0.3,-11.21 0.8,-16.79c0.9,-11.17 1.4,-22.38 2.8,-33.51l1.9,-16.72l2.3,-16.64l1.2,-8.32c0.4,-2.78 1,-5.52 1.5,-8.29l3,-16.54c0.5,-2.77 1.1,-5.49 1.7,-8.23l1.8,-8.21l1.9,-8.21l0.9,-4.11l1,-4.06c2.9,-10.82 5.6,-21.73 9.1,-32.36c1.7,-5.34 3.3,-10.73 5.1,-16.02l5.6,-15.9c7.8,-21.05 16.2,-41.91 25.7,-62.24c2.4,-5.11 5,-10.08 7.5,-15.13l3.7,-7.55l4,-7.41c2.7,-4.9 5.3,-9.92 8.2,-14.76l8.6,-14.47c11.9,-19.04 24.7,-37.53 39,-54.84c14.5,-17.21 30.1,-33.47 47.2,-48.17c17.2,-14.46 35.7,-27.37 55.4,-38.46" id="path390"/>
    </g>
    <g id="g392" transform="scale(1.931939959526062) ">
     <path fill="#0b2d4e" fill-rule="nonzero" d="m16285.7,5780.27c7.2,69.5 14.3,139.74 14.3,210.38c0,21.21 -0.6,42.45 -2.1,63.72c-5.6,79.02 -24,156.08 -60,222.94c-35.8,66.84 -89.4,123.39 -164.3,160.22c-143.1,70.51 -294.5,103.68 -448.8,103.66c-65.4,0 -131.2,-5.93 -197.2,-17.46c-99.4,-17.35 -193,-51.24 -283.7,-91.38c-90.8,-40.15 -178.8,-86.57 -266.8,-129.29c-83.1,-40.37 -174.4,-70.05 -261.8,-107.86c-87.5,-37.81 -171.2,-83.95 -238,-158.02c-43.6,-48.28 -74.5,-103.33 -94.5,-162.06c-20.1,-58.74 -29.2,-121.15 -29.2,-184.42c0,-98.63 22.1,-199.37 59.9,-292.08c37.7,-92.71 91.1,-177.41 154.1,-243.89c51.9,-54.52 117.3,-92.77 188.5,-117.39c71.2,-24.61 148.2,-35.66 223.5,-35.66c22.3,0 44.5,0.97 66.4,2.86l-2.2,25.79c-21.1,-1.83 -42.6,-2.77 -64.2,-2.77c-72.8,-0.01 -147,10.72 -215.1,34.24c-68,23.53 -129.7,59.79 -178.1,110.75c-60.5,63.79 -112.4,145.91 -149,235.83c-36.6,89.91 -57.9,187.57 -57.9,282.32c0,60.79 8.7,120.37 27.7,176.06c19,55.71 48.2,107.53 89.3,153.08c63.1,69.97 143,114.42 229,151.61c85.9,37.21 177.6,66.95 262.9,108.32c88.5,42.99 176.3,89.26 265.9,128.91c89.7,39.67 181.3,72.72 277.8,89.55c64.6,11.29 128.9,17.08 192.7,17.08c150.6,-0.01 297.9,-32.28 437.4,-100.99c69.7,-34.42 119.2,-86.48 153,-149.26c33.7,-62.75 51.5,-136.29 56.8,-212.51c1.5,-20.59 2.1,-41.22 2.1,-61.9c0.1,-68.88 -7,-138.25 -14.1,-207.74l25.7,-2.64" id="path394"/>
    </g>
    <g id="g396" transform="scale(1.9888099431991577) ">
     <path fill="#f8a17a" fill-rule="nonzero" d="m15886.3,4280.66c2.7,-209.78 14.6,-418.85 47.4,-627.32c15.9,-100.61 43.6,-199.36 63.5,-299.22c13,-65.02 25.4,-130.13 37.1,-195.35c5.2,-28.86 10.4,-58.07 22.6,-84.67c15.8,-34.44 43.4,-62.45 82.9,-63.65c36.4,-1.11 95.5,28.25 99.5,69.43c2,19.76 -3.2,42.59 -2.4,63.21c13.2,315.56 23.2,631.23 34.2,946.89c0,110.57 9.2,221.17 13.5,331.65c4.3,110.44 2.3,221.42 2.6,332.06c0.2,92.33 0.3,184.66 0,276.98c-0.5,190.18 12.8,388.26 -4.2,580.93c-14.8,166.96 -73.1,358.64 -275.4,364.56c-129.7,3.77 -210.9,-114.09 -237,-228.71c-54.1,-237.07 57.2,-476.88 95.2,-707.78c25.2,-152.91 24.3,-308.21 21.7,-462.68c-1.7,-98.94 -2.4,-197.71 -1.2,-296.33" id="path398"/>
    </g>
    <g id="g400" transform="scale(1.9888099431991577) ">
     <path fill="#4287f5" fill-rule="nonzero" d="m15882.6,4280.7c-1,-90.66 -1,-181.31 1.4,-271.97c4.7,-178.1 33.8,-345.33 56.9,-520.81c3,-22.98 6.6,-47.27 21.4,-65.07c23.4,-28.31 65.5,-30.12 102.3,-29.56c53.8,0.7 107.6,1.45 161.3,2.21c14.3,0.2 30.4,1.21 39.6,12.02c7.1,8.24 8.2,20.01 8.8,30.92c19.3,327.88 -2.5,655.87 10.3,983.19c4.3,110.44 2.3,221.42 2.6,332.06c0.2,92.33 0.3,184.66 0,276.98c-0.5,190.18 12.8,388.26 -4.2,580.93c-14.8,166.96 -73.1,358.64 -275.4,364.56c-129.7,3.77 -210.9,-114.09 -237,-228.71c-54.1,-237.07 57.2,-476.88 95.2,-707.78c25.2,-152.91 24.3,-308.21 21.7,-462.68c-1.6,-98.75 -3.9,-197.52 -4.9,-296.29" id="path402"/>
    </g>
    <g id="g404" transform="scale(2.007889986038208) ">
     <path fill="#f8a17a" fill-rule="nonzero" d="m16131.1,2856.88c0.9,3.69 1.6,7.12 2.1,10.26c9.3,53.54 -2.4,108.22 -14.1,161.31c-12.6,57.13 -25.1,114.25 -37.7,171.43c-2.3,10.76 -111.8,-3.64 -120.3,-5.28c-25.1,-4.93 -49.7,-15.09 -68.2,-32.77c-4.2,-3.99 -8.2,-8.52 -10.1,-14.05c-1.6,-4.98 -1.5,-10.46 -1.4,-15.78c1.9,-61.11 -11.7,-114.35 -21.1,-173.92c-10.1,-64.05 -10.7,-129.14 -15.9,-193.68c-2.8,-34.87 -5,-72.22 12.6,-102.45c20.1,-34.47 60.6,-50.45 98.1,-64.1c53.7,-19.52 109.6,-39.39 166.6,-35.06c61.1,4.58 119.4,38.7 153.3,89.75c16.9,25.35 25,65.24 -0.5,81.92c-34.5,22.56 -76.3,-27.14 -117.2,-21.66c-70.6,9.51 -37.3,97.02 -26.2,144.08" id="path406"/>
    </g>
    <g id="g408" transform="scale(1.4716399908065796) ">
     <path fill="#ffffff" fill-rule="nonzero" d="m16181.9,7266.36c22.3,46.01 18.3,94.37 4.3,138.22c-13.5,44.84 -37.6,83.46 -63.7,125.67c-26.3,41.62 -53.2,87 -69.7,141.64c-16.7,55.24 -11.9,117.18 3.5,169.57c33.1,106.85 101.1,185.61 147.8,266.17c23.5,40.77 42.7,82.16 50.2,127.99c8.6,45.38 5.7,93.72 -16.6,139.29c38.6,-33.82 57.3,-88.65 59.9,-141.72c2.4,-53.63 -11.1,-108.05 -31.7,-155.89c-40.6,-97.03 -101.5,-175.81 -125.2,-260.98c-13.4,-42.16 -16.8,-83.02 -7.2,-123.91c8,-41.92 29.8,-84.22 49.6,-130.11c20.9,-44.8 40.9,-96.57 45.3,-149.82c4.6,-52.46 -7.4,-111.75 -46.5,-146.12" id="path410"/>
    </g>
    <g id="g412" transform="scale(1.4899400472640991) ">
     <path fill="#ffc937" fill-rule="nonzero" d="m16145.6,6270.15l-283.9,0c-85.3,0 -154.4,69.11 -154.4,154.36l0,694.59l592.7,0l0,-694.59c0,-85.25 -69.1,-154.36 -154.4,-154.36" id="path414"/>
    </g>
    <g id="g416" transform="scale(1.5172499418258667) ">
     <path fill="#ffc937" fill-rule="nonzero" d="m16047.3,6381.02c-89.8,0 -162.6,73.86 -162.6,164.97c0,91.12 72.8,164.99 162.6,164.99c89.8,0 162.5,-73.87 162.5,-164.99c0,-91.11 -72.7,-164.97 -162.5,-164.97zm0,421.39c-139.6,0 -252.8,-114.8 -252.8,-256.42c0,-141.61 113.2,-256.41 252.8,-256.41c139.5,0 252.7,114.8 252.7,256.41c0,141.62 -113.2,256.42 -252.7,256.42" id="path418"/>
    </g>
    <g id="g420" transform="scale(1.4467999935150146) ">
     <path fill="#ffd263" fill-rule="nonzero" d="m16267,6788.99c-18.1,0 -33,14.84 -33,32.99l0,425.48c0,18.15 14.9,32.99 33,32.99c18.1,0 33,-14.84 33,-32.99l0,-425.48c0,-18.15 -14.9,-32.99 -33,-32.99" id="path422"/>
    </g>
    <g id="g424" transform="scale(1.4899400472640991) ">
     <path fill="#efb126" fill-rule="nonzero" d="m16163.1,7119.1l0,-698.85c0,-82.91 -67.2,-150.1 -150.1,-150.1l136.9,0c82.9,0 150.1,67.19 150.1,150.1l0,698.85l-136.9,0" id="path426"/>
    </g>
    <g id="g428" transform="scale(1.9496400356292725) ">
     <path fill="#ffffff" fill-rule="nonzero" d="m16182,8635.16l-1453.3,0c-65.2,0 -118,52.84 -118,118.02l0,517.3c0,65.18 52.8,118.02 118,118.02l1453.3,0c65.2,0 118,-52.84 118,-118.02l0,-517.3c0,-65.18 -52.8,-118.02 -118,-118.02" id="path430"/>
    </g>
    <g id="g432" transform="scale(1.9527100324630737) ">
     <path fill="#597ff5" fill-rule="nonzero" d="m16156.6,8621.59l0,25.61l-1451,0c-25.6,0.01 -48.5,10.28 -65.2,27.01c-16.8,16.77 -27.1,39.67 -27.1,65.22l0,516.49c0,25.55 10.3,48.44 27.1,65.21c16.7,16.73 39.6,27 65.2,27.02l1451,0c25.5,-0.02 48.4,-10.29 65.2,-27.02c16.7,-16.77 27,-39.66 27,-65.21l0,-516.49c0,-25.55 -10.3,-48.45 -27,-65.22c-16.8,-16.73 -39.7,-27 -65.2,-27.01l0,-25.61l0,-25.6c39.5,-0.01 75.5,16.09 101.4,42.01c25.9,25.88 42,61.9 42,101.43l0,516.49c0,39.53 -16.1,75.55 -42,101.42c-25.9,25.92 -61.9,42.03 -101.4,42.02l-1451,0c-39.6,0.01 -75.6,-16.1 -101.4,-42.02c-26,-25.87 -42.1,-61.89 -42.1,-101.42l0,-516.49c0,-39.53 16.1,-75.55 42.1,-101.43c25.8,-25.92 61.8,-42.02 101.4,-42.01l1451,0l0,25.6" id="path434"/>
    </g>
    <g id="g436" transform="scale(1.786769986152649) ">
     <path fill="#ffc937" fill-rule="nonzero" d="m16300,9515.7l-156.9,0c-55.7,0 -100.8,45.09 -100.8,100.74l0,433.76c0,55.7 45.1,100.8 100.8,100.8l156.9,0l0,-635.3" id="path438"/>
    </g>
    <g id="g440" transform="scale(1.8247499465942383) ">
     <path fill="#dbcdfe" fill-rule="nonzero" d="m16300,9317.63l-252.3,0l0,622.04l252.3,0l0,-622.04" id="path442"/>
    </g>
    <g id="g444" transform="scale(1.8627300262451172) ">
     <path fill="#dbcdfe" fill-rule="nonzero" d="m16300,9127.64l-247.2,0l0,609.35l247.2,0l0,-609.35" id="path446"/>
    </g>
    <g id="g448" transform="scale(1.9007099866867065) ">
     <path fill="#dbcdfe" fill-rule="nonzero" d="m16300,8945.24l-242.2,0l0,597.18l242.2,0l0,-597.18" id="path450"/>
    </g>
    <g id="g452" transform="scale(1.938689947128296) ">
     <path fill="#dbcdfe" fill-rule="nonzero" d="m16207.2,8770l-144.6,0l0,585.47l144.6,0c51.2,0 92.8,-41.57 92.8,-92.84l0,-399.79c0,-51.28 -41.6,-92.84 -92.8,-92.84" id="path454"/>
    </g>
    <g id="g456" transform="scale(1.962499976158142) ">
     <path fill="#ffffff" fill-rule="nonzero" d="m16243.9,8698.26l-50.7,0l0,509.04l50.7,0c31,0 56.1,-25.09 56.1,-56.05l0,-396.94c0,-30.96 -25.1,-56.05 -56.1,-56.05" id="path458"/>
    </g>
    <g id="g460" transform="scale(1.9655699729919434) ">
     <path fill="#597ff5" fill-rule="nonzero" d="m16218.6,8684.69l0,25.43l-25.2,0l0,457.38l25.2,0c8.5,-0.02 16,-3.38 21.6,-8.94c5.5,-5.61 8.9,-13.08 8.9,-21.59l0,-396.32c0,-8.51 -3.4,-15.99 -8.9,-21.59c-5.6,-5.56 -13.1,-8.93 -21.6,-8.94l0,-25.43l0,-25.44c22.4,-0.02 42.9,9.14 57.5,23.84c14.7,14.64 23.9,35.16 23.9,57.56l0,396.32c0,22.4 -9.2,42.91 -23.9,57.56c-14.6,14.69 -35.1,23.86 -57.5,23.84l-76.1,0l0,-559.12l76.1,0l0,25.44" id="path462"/>
    </g>
   </g>
  </g>
 </g>
</svg>