<?xml version="1.0" standalone="no"?>
<!DOCTYPE svg PUBLIC "-//W3C//DTD SVG 20010904//EN"
 "http://www.w3.org/TR/2001/REC-SVG-20010904/DTD/svg10.dtd">
<svg version="1.0" xmlns="http://www.w3.org/2000/svg"
 width="742.000000pt" height="531.000000pt" viewBox="0 0 742.000000 531.000000"
 preserveAspectRatio="xMidYMid meet">

<g transform="translate(0.000000,531.000000) scale(0.100000,-0.100000)"
fill="#000000" stroke="none">
<path d="M238 5093 c19 -4 22 -11 24 -61 l1 -57 6 55 c5 47 9 55 31 61 17 5 7
7 -30 7 -30 -1 -45 -3 -32 -5z"/>
<path d="M340 5090 c0 -5 5 -10 10 -10 6 0 10 5 10 10 0 6 -4 10 -10 10 -5 0
-10 -4 -10 -10z"/>
<path d="M443 5040 c0 -36 2 -50 4 -32 2 17 2 47 0 65 -2 17 -4 3 -4 -33z"/>
<path d="M383 5076 c-14 -26 4 -96 25 -96 12 0 13 3 4 12 -16 16 -15 58 1 58
8 0 9 3 1 8 -6 4 -13 14 -16 22 -4 12 -6 11 -15 -4z"/>
<path d="M489 5051 c-21 -16 -22 -22 -11 -45 12 -26 54 -37 67 -17 3 6 -7 9
-21 8 -15 -1 -29 4 -31 11 -3 8 6 12 26 12 34 0 39 11 15 34 -19 20 -17 20
-45 -3z m41 -11 c0 -5 -9 -10 -21 -10 -11 0 -17 5 -14 10 3 6 13 10 21 10 8 0
14 -4 14 -10z"/>
<path d="M340 5019 c0 -24 4 -38 10 -34 6 3 10 22 10 41 0 19 -4 34 -10 34 -5
0 -10 -18 -10 -41z"/>
<path d="M400 4630 c-38 -38 -13 -120 38 -120 10 0 27 7 38 15 17 13 16 13
-14 2 -31 -11 -35 -10 -53 12 -10 13 -19 31 -19 41 0 10 9 28 19 41 18 22 22
23 53 12 30 -11 31 -11 14 2 -27 20 -52 19 -76 -5z"/>
<path d="M623 4580 c0 -41 2 -58 4 -37 2 20 2 54 0 75 -2 20 -4 3 -4 -38z"/>
<path d="M883 4580 c0 -41 2 -58 4 -37 2 20 2 54 0 75 -2 20 -4 3 -4 -38z"/>
<path d="M1192 4643 c26 -4 27 -7 31 -71 l3 -67 2 67 c2 64 3 67 30 71 15 2 0
4 -33 4 -33 0 -48 -2 -33 -4z"/>
<path d="M1491 4628 c0 -9 -7 -19 -13 -21 -10 -4 -10 -6 0 -6 6 -1 12 -12 12
-25 0 -33 10 -56 23 -56 7 0 7 4 -1 12 -18 18 -15 55 6 67 15 9 15 10 0 11 -9
0 -19 8 -21 18 -4 15 -5 15 -6 0z"/>
<path d="M526 4602 c-2 -4 7 -8 21 -7 14 0 28 -6 30 -12 3 -8 -5 -13 -20 -13
-13 0 -30 -7 -37 -15 -18 -22 4 -45 41 -42 26 2 29 5 29 38 0 19 -5 40 -12 47
-14 14 -44 16 -52 4z m54 -50 c0 -12 -23 -32 -37 -32 -7 0 -13 9 -13 20 0 15
7 20 25 20 14 0 25 -4 25 -8z"/>
<path d="M676 4594 c-9 -8 -16 -24 -16 -34 0 -21 25 -50 43 -50 7 0 19 5 27
10 11 8 8 9 -12 4 -34 -8 -55 24 -38 57 9 16 18 19 38 15 20 -5 23 -4 12 4
-21 14 -36 12 -54 -6z"/>
<path d="M774 4565 c1 -42 4 -50 21 -53 18 -4 19 -3 3 10 -9 7 -19 31 -21 53
-3 32 -4 30 -3 -10z"/>
<path d="M828 4564 c-2 -25 0 -48 4 -50 5 -3 8 18 8 45 0 64 -7 66 -12 5z"/>
<path d="M921 4574 c-1 -47 12 -63 51 -61 27 2 28 4 27 52 -2 49 -2 50 -8 11
-6 -38 -33 -68 -47 -53 -4 4 -11 26 -15 50 l-6 42 -2 -41z"/>
<path d="M1040 4595 c-12 -14 -6 -35 10 -35 4 0 6 10 3 21 -5 20 -3 21 21 15
18 -4 25 -3 21 4 -9 15 -41 12 -55 -5z"/>
<path d="M1296 4594 c-9 -8 -16 -24 -16 -34 0 -36 58 -68 74 -41 3 4 -5 6 -18
4 -17 -4 -27 1 -35 16 -11 19 -9 21 24 21 28 0 35 4 35 19 0 17 -18 31 -40 31
-5 0 -16 -7 -24 -16z m52 -11 c2 -9 -7 -13 -28 -13 -28 0 -31 2 -20 15 15 18
41 16 48 -2z"/>
<path d="M1401 4601 c-16 -10 -8 -41 11 -41 10 0 10 2 -1 9 -22 14 -2 33 28
27 19 -5 22 -4 11 4 -18 12 -31 12 -49 1z"/>
<path d="M1079 4552 c21 -15 2 -34 -28 -28 -24 5 -25 5 -4 -6 12 -6 29 -8 38
-4 20 7 16 38 -5 43 -12 4 -13 3 -1 -5z"/>
<path d="M1439 4552 c22 -15 2 -34 -28 -27 -20 5 -23 4 -14 -6 17 -17 65 -3
61 18 -2 9 -10 18 -18 20 -12 4 -13 3 -1 -5z"/>
<path d="M5645 3930 c-3 -5 1 -10 10 -10 9 0 13 5 10 10 -3 6 -8 10 -10 10 -2
0 -7 -4 -10 -10z"/>
<path d="M748 3923 c12 -2 32 -2 45 0 12 2 2 4 -23 4 -25 0 -35 -2 -22 -4z"/>
<path d="M1663 3880 c0 -30 2 -43 4 -27 2 15 2 39 0 55 -2 15 -4 2 -4 -28z"/>
<path d="M4113 3875 c0 -33 2 -45 4 -27 2 18 2 45 0 60 -2 15 -4 0 -4 -33z"/>
<path d="M5548 3923 c6 -2 18 -2 25 0 6 3 1 5 -13 5 -14 0 -19 -2 -12 -5z"/>
<path d="M5178 3907 c-7 -22 7 -80 20 -83 7 -1 8 0 2 3 -12 6 -13 60 -1 65 5
2 3 8 -4 15 -10 9 -14 9 -17 0z"/>
<path d="M1048 3893 c6 -2 18 -2 25 0 6 3 1 5 -13 5 -14 0 -19 -2 -12 -5z"/>
<path d="M1690 3896 c0 -2 7 -7 16 -10 8 -3 12 -2 9 4 -6 10 -25 14 -25 6z"/>
<path d="M2058 3893 c6 -2 18 -2 25 0 6 3 1 5 -13 5 -14 0 -19 -2 -12 -5z"/>
<path d="M2113 3893 c9 -2 23 -2 30 0 6 3 -1 5 -18 5 -16 0 -22 -2 -12 -5z"/>
<path d="M2433 3860 c0 -25 2 -35 4 -22 2 12 2 32 0 45 -2 12 -4 2 -4 -23z"/>
<path d="M2468 3893 c6 -2 18 -2 25 0 6 3 1 5 -13 5 -14 0 -19 -2 -12 -5z"/>
<path d="M2630 3896 c0 -2 7 -7 16 -10 8 -3 12 -2 9 4 -6 10 -25 14 -25 6z"/>
<path d="M2908 3893 c6 -2 18 -2 25 0 6 3 1 5 -13 5 -14 0 -19 -2 -12 -5z"/>
<path d="M2022 3860 c0 -19 2 -27 5 -17 2 9 2 25 0 35 -3 9 -5 1 -5 -18z"/>
<path d="M2353 3850 c0 -25 2 -35 4 -22 2 12 2 32 0 45 -2 12 -4 2 -4 -23z"/>
<path d="M2603 3855 c0 -22 2 -30 4 -17 2 12 2 30 0 40 -3 9 -5 -1 -4 -23z"/>
<path d="M1232 3860 c0 -14 2 -19 5 -12 2 6 2 18 0 25 -3 6 -5 1 -5 -13z"/>
<path d="M2292 3860 c0 -14 2 -19 5 -12 2 6 2 18 0 25 -3 6 -5 1 -5 -13z"/>
<path d="M3800 3868 c0 -4 14 -8 30 -8 17 0 30 2 30 4 0 2 -13 6 -30 8 -16 3
-30 1 -30 -4z"/>
<path d="M237 3855 c-3 -6 10 -9 34 -7 22 2 39 5 39 7 0 9 -70 9 -73 0z"/>
<path d="M833 3863 c9 -2 25 -2 35 0 9 3 1 5 -18 5 -19 0 -27 -2 -17 -5z"/>
<path d="M1338 3863 c7 -3 16 -2 19 1 4 3 -2 6 -13 5 -11 0 -14 -3 -6 -6z"/>
<path d="M2262 3850 c0 -14 2 -19 5 -12 2 6 2 18 0 25 -3 6 -5 1 -5 -13z"/>
<path d="M2843 3863 c9 -2 25 -2 35 0 9 3 1 5 -18 5 -19 0 -27 -2 -17 -5z"/>
<path d="M3113 3863 c9 -2 25 -2 35 0 9 3 1 5 -18 5 -19 0 -27 -2 -17 -5z"/>
<path d="M3180 3862 c0 -5 14 -7 30 -4 17 2 30 6 30 8 0 2 -13 4 -30 4 -16 0
-30 -4 -30 -8z"/>
<path d="M4216 3862 c6 -4 14 -14 17 -22 4 -10 6 -8 6 8 1 15 -5 22 -16 22
-11 0 -14 -3 -7 -8z"/>
<path d="M4632 3850 c0 -14 2 -19 5 -12 2 6 2 18 0 25 -3 6 -5 1 -5 -13z"/>
<path d="M4906 3862 c6 -4 14 -14 17 -22 4 -10 6 -8 6 8 1 15 -5 22 -16 22
-11 0 -14 -3 -7 -8z"/>
<path d="M5046 3862 c6 -4 14 -14 17 -22 4 -10 6 -8 6 8 1 15 -5 22 -16 22
-11 0 -14 -3 -7 -8z"/>
<path d="M5243 3863 c9 -2 25 -2 35 0 9 3 1 5 -18 5 -19 0 -27 -2 -17 -5z"/>
<path d="M667 3829 c7 -7 15 -10 18 -7 3 3 -2 9 -12 12 -14 6 -15 5 -6 -5z"/>
<path d="M1700 3830 c-9 -6 -10 -10 -3 -10 6 0 15 5 18 10 8 12 4 12 -15 0z"/>
<path d="M1977 3829 c7 -7 15 -10 18 -7 3 3 -2 9 -12 12 -14 6 -15 5 -6 -5z"/>
<path d="M593 3823 c9 -2 25 -2 35 0 9 3 1 5 -18 5 -19 0 -27 -2 -17 -5z"/>
<path d="M3828 3823 c7 -3 16 -2 19 1 4 3 -2 6 -13 5 -11 0 -14 -3 -6 -6z"/>
<path d="M5548 3823 c7 -3 16 -2 19 1 4 3 -2 6 -13 5 -11 0 -14 -3 -6 -6z"/>
<path d="M5645 3820 c4 -6 11 -8 16 -5 14 9 11 15 -7 15 -8 0 -12 -5 -9 -10z"/>
<path d="M2318 3793 c7 -3 16 -2 19 1 4 3 -2 6 -13 5 -11 0 -14 -3 -6 -6z"/>
<path d="M242 3438 c-16 -16 -16 -80 0 -96 15 -15 64 -16 73 -2 4 7 -2 9 -18
5 -28 -7 -57 16 -57 45 0 29 29 52 57 45 16 -4 22 -2 18 5 -9 14 -58 13 -73
-2z"/>
<path d="M550 3429 c0 -14 -5 -19 -14 -16 -24 10 -48 -16 -44 -48 3 -26 8 -30
36 -33 l32 -3 0 60 c0 34 -2 61 -5 61 -3 0 -5 -9 -5 -21z m-5 -59 c0 -16 -6
-26 -18 -28 -19 -4 -32 20 -23 44 9 25 41 13 41 -16z"/>
<path d="M1171 3431 c-22 -41 -6 -101 28 -101 10 0 24 -7 31 -15 7 -8 17 -15
22 -15 6 0 6 6 -1 14 -9 10 -7 21 6 45 16 28 17 33 3 58 -20 36 -73 44 -89 14z
m67 -3 c26 -26 8 -88 -24 -88 -19 0 -44 29 -44 50 0 21 25 50 44 50 6 0 17 -5
24 -12z"/>
<path d="M1610 3440 c0 -5 5 -10 10 -10 6 0 10 5 10 10 0 6 -4 10 -10 10 -5 0
-10 -4 -10 -10z"/>
<path d="M4057 3393 c-14 -32 -24 -60 -21 -63 3 -2 10 3 15 13 6 10 22 17 39
17 17 0 33 -7 39 -17 5 -10 12 -16 14 -13 6 7 -44 120 -53 120 -4 0 -19 -26
-33 -57z m47 11 c10 -26 7 -34 -14 -34 -11 0 -20 4 -20 9 0 17 12 41 20 41 4
0 11 -7 14 -16z"/>
<path d="M1560 3425 c0 -8 -6 -15 -12 -15 -10 0 -10 -2 -1 -8 6 -4 13 -21 15
-37 2 -20 9 -31 22 -33 18 -4 19 -3 3 13 -20 20 -22 41 -4 52 10 6 9 12 -5 26
-15 14 -18 14 -18 2z"/>
<path d="M358 3413 c-28 -7 -21 -21 7 -15 14 2 25 0 25 -6 0 -6 -10 -12 -22
-14 -15 -2 -23 -10 -23 -23 0 -15 8 -21 33 -23 30 -3 32 -1 32 27 0 23 -24 66
-33 60 -1 -1 -10 -3 -19 -6z m32 -52 c0 -14 -18 -23 -30 -16 -6 4 -8 11 -5 16
8 12 35 12 35 0z"/>
<path d="M1395 3403 c-18 -18 -19 -45 -3 -61 14 -14 58 -16 58 -4 0 5 -10 8
-21 8 -12 -1 -24 5 -26 12 -3 8 6 12 25 12 25 0 29 3 25 19 -6 25 -39 33 -58
14z m45 -13 c0 -5 -9 -10 -20 -10 -11 0 -20 5 -20 10 0 6 9 10 20 10 11 0 20
-4 20 -10z"/>
<path d="M1487 3408 c-24 -13 -21 -27 8 -40 34 -15 32 -32 -2 -23 -21 5 -25 4
-17 -5 16 -16 59 -8 59 10 0 8 -10 19 -22 25 -13 5 -23 13 -23 17 0 3 10 8 23
10 17 2 18 5 6 10 -8 3 -23 2 -32 -4z"/>
<path d="M1666 3408 c-16 -9 -21 -34 -10 -62 9 -23 51 -20 64 4 22 41 -14 80
-54 58z m42 -32 c2 -10 -1 -23 -7 -29 -15 -15 -46 16 -37 38 8 21 40 15 44 -9z"/>
<path d="M1768 3413 c-14 -3 -18 -14 -17 -46 l2 -42 6 35 c8 45 38 53 47 13
10 -47 12 -49 13 -12 1 31 -14 61 -28 58 -4 -1 -14 -3 -23 -6z"/>
<path d="M4183 3412 c-19 -3 -23 -10 -23 -43 0 -21 5 -39 10 -39 6 0 10 16 10
35 0 28 4 35 20 35 16 0 20 -7 20 -37 0 -27 3 -34 11 -26 13 13 3 70 -14 75
-7 2 -22 2 -34 0z"/>
<path d="M4273 3413 c-23 -9 -14 -40 12 -47 15 -4 23 -11 19 -17 -3 -6 -15 -9
-25 -6 -11 3 -19 1 -19 -5 0 -16 55 -4 58 13 2 9 -9 21 -25 29 l-28 13 30 6
c25 5 27 8 12 14 -10 4 -19 7 -20 6 -1 0 -8 -3 -14 -6z"/>
<path d="M4496 3407 c-12 -9 -17 -23 -14 -42 3 -26 8 -30 36 -33 18 -2 32 1
32 7 0 6 -10 10 -21 8 -12 -1 -24 4 -26 11 -3 7 5 12 21 12 31 0 35 24 7 39
-13 7 -23 6 -35 -2z m39 -17 c3 -5 -3 -10 -14 -10 -12 0 -21 5 -21 10 0 6 6
10 14 10 8 0 18 -4 21 -10z"/>
<path d="M430 3369 c0 -24 4 -38 10 -34 6 3 10 19 10 35 0 19 6 30 18 33 10 3
6 5 -10 6 -26 1 -28 -2 -28 -40z"/>
<path d="M1293 3375 c2 -37 4 -40 35 -43 32 -3 32 -3 31 40 -1 28 -3 34 -6 16
-4 -27 -29 -55 -39 -45 -4 3 -10 21 -15 39 -8 33 -8 33 -6 -7z"/>
<path d="M1610 3370 c0 -22 5 -40 10 -40 6 0 10 18 10 40 0 22 -4 40 -10 40
-5 0 -10 -18 -10 -40z"/>
<path d="M4345 3374 c8 -20 15 -38 15 -40 0 -2 4 -4 9 -4 5 0 12 11 15 25 4
14 10 25 15 25 5 0 12 -11 15 -25 9 -36 21 -31 39 15 8 22 12 40 7 40 -5 0
-13 -12 -18 -27 l-9 -28 -13 28 c-7 15 -16 27 -20 27 -4 0 -13 -12 -20 -27
l-13 -28 -9 28 c-5 15 -14 27 -19 27 -5 0 -2 -16 6 -36z"/>
<path d="M4570 3370 c0 -22 5 -40 10 -40 6 0 10 13 10 30 0 17 7 33 18 39 14
9 13 10 -10 11 -26 0 -28 -3 -28 -40z"/>
<path d="M4543 2960 c20 -13 22 -40 5 -60 -11 -12 -10 -12 5 0 24 18 19 64 -8
68 -18 2 -18 2 -2 -8z"/>
<path d="M1401 2932 c-6 -10 -15 -65 -20 -121 -6 -57 -14 -108 -17 -114 -3 -7
1 -4 10 6 8 11 17 49 21 85 3 37 9 88 14 115 9 51 7 57 -8 29z"/>
<path d="M1441 2934 c0 -11 3 -14 6 -6 3 7 2 16 -1 19 -3 4 -6 -2 -5 -13z"/>
<path d="M4510 2935 c0 -8 4 -15 10 -15 5 0 7 7 4 15 -4 8 -8 15 -10 15 -2 0
-4 -7 -4 -15z"/>
<path d="M1913 2893 c-17 -42 -14 -136 5 -155 9 -9 9 -3 2 23 -14 48 -12 94 4
134 8 19 13 35 10 35 -3 0 -12 -17 -21 -37z"/>
<path d="M2144 2905 c22 -41 20 -123 -3 -168 -10 -20 -15 -34 -10 -31 5 3 16
19 25 36 22 42 16 151 -10 176 -16 16 -16 16 -2 -13z"/>
<path d="M4876 2895 c16 -40 18 -86 4 -134 -7 -27 -7 -32 2 -23 20 20 22 125
4 160 -22 43 -29 41 -10 -3z"/>
<path d="M5274 2896 c-40 -40 -46 -92 -16 -119 24 -22 39 -22 18 -1 -31 30
-11 115 33 139 14 8 20 14 13 15 -8 0 -29 -15 -48 -34z"/>
<path d="M5370 2916 c6 -6 10 -19 11 -30 0 -21 0 -21 9 -1 14 32 11 41 -10 41
-13 0 -16 -4 -10 -10z"/>
<path d="M1557 2898 c-4 -14 -15 -29 -25 -31 -15 -4 -15 -5 0 -6 14 -1 15 -6
6 -37 -11 -40 -5 -64 14 -64 10 0 10 2 1 8 -18 11 4 92 26 92 10 0 12 3 5 8
-7 4 -14 18 -16 32 l-4 25 -7 -27z"/>
<path d="M4640 2894 c-17 -44 -12 -126 10 -161 11 -18 22 -33 25 -33 2 0 -4
15 -15 33 -22 35 -27 117 -10 161 5 14 7 26 5 26 -3 0 -10 -12 -15 -26z"/>
<path d="M5072 2868 c-2 -35 -4 -37 -39 -41 l-38 -4 37 -1 c35 -2 37 -4 41
-39 l4 -38 1 37 c2 35 4 37 40 41 l37 4 -37 1 c-35 2 -37 4 -41 40 l-4 37 -1
-37z"/>
<path d="M1631 2844 c-37 -47 -23 -82 34 -81 29 0 30 3 32 46 3 65 -29 82 -66
35z m51 -19 c-4 -34 -18 -55 -38 -55 -17 0 -19 43 -3 71 16 31 45 20 41 -16z"/>
<path d="M1745 2860 c-4 -6 1 -7 11 -3 14 5 16 2 10 -20 -3 -15 -9 -39 -12
-53 -5 -19 -4 -25 5 -20 6 4 11 15 11 24 0 9 7 30 15 45 8 15 10 25 5 22 -5
-3 -11 -1 -15 5 -8 13 -22 13 -30 0z"/>
<path d="M1818 2861 c10 -6 12 -21 7 -55 -5 -31 -4 -46 4 -46 6 0 8 6 5 13 -3
8 0 26 6 41 11 30 0 56 -24 56 -7 0 -6 -4 2 -9z"/>
<path d="M2018 2863 c15 -6 16 -47 2 -74 -13 -23 -32 -26 -23 -2 4 11 3 14 -6
9 -22 -14 -5 -30 33 -32 21 0 32 3 25 7 -17 10 0 80 20 87 8 3 11 0 7 -7 -4
-6 -2 -11 4 -11 7 0 10 5 8 12 -3 7 -22 13 -44 14 -21 0 -33 -1 -26 -3z"/>
<path d="M4228 2863 c7 -3 16 -2 19 1 4 3 -2 6 -13 5 -11 0 -14 -3 -6 -6z"/>
<path d="M4262 2850 c0 -14 2 -19 5 -12 2 6 2 18 0 25 -3 6 -5 1 -5 -13z"/>
<path d="M4348 2860 c31 -13 27 -30 -8 -30 -24 0 -28 3 -23 18 5 13 3 14 -7 5
-31 -29 -3 -94 39 -92 14 0 14 1 1 6 -17 6 -40 32 -40 45 0 4 16 8 35 8 22 0
35 5 35 13 0 18 -21 37 -39 36 -10 0 -7 -4 7 -9z"/>
<path d="M4428 2858 c-28 -22 -31 -55 -9 -77 12 -12 29 -21 39 -20 13 0 12 2
-5 9 -27 11 -40 54 -23 75 15 18 37 19 43 3 2 -7 8 -10 12 -6 11 10 -4 28 -24
28 -9 0 -24 -6 -33 -12z"/>
<path d="M4515 2860 c-4 -6 7 -10 24 -10 17 0 31 5 31 10 0 6 -11 10 -24 10
-14 0 -28 -4 -31 -10z"/>
<path d="M4749 2861 c17 -11 3 -82 -18 -89 -8 -3 -11 0 -7 7 4 6 2 11 -3 11
-6 0 -11 -6 -11 -14 0 -9 13 -13 43 -13 23 0 34 2 25 5 -21 4 -21 6 -8 52 10
34 2 50 -25 50 -5 0 -4 -4 4 -9z"/>
<path d="M4796 2856 c3 -9 11 -16 16 -16 13 0 5 23 -10 28 -7 2 -10 -2 -6 -12z"/>
<path d="M250 2845 c-10 -12 -10 -15 4 -15 23 0 22 -78 -1 -96 -16 -12 -13
-13 27 -13 40 0 43 1 28 13 -14 10 -18 28 -18 70 0 58 -14 73 -40 41z"/>
<path d="M4202 2833 c2 -9 14 -20 28 -23 31 -7 40 -40 11 -40 -11 0 -25 8 -30
18 -9 15 -10 15 -11 -4 0 -17 6 -21 33 -20 48 2 50 37 2 65 -32 19 -36 19 -33
4z"/>
<path d="M5349 2783 c-13 -16 -12 -17 4 -4 16 13 21 21 13 21 -2 0 -10 -8 -17
-17z"/>
<path d="M1331 2704 c0 -11 3 -14 6 -6 3 7 2 16 -1 19 -3 4 -6 -2 -5 -13z"/>
<path d="M5580 2165 c0 -32 -2 -34 -28 -29 -19 4 -35 0 -52 -14 -52 -42 -13
-131 52 -118 25 5 27 3 31 -37 2 -23 4 20 5 96 1 75 0 137 -3 137 -3 0 -5 -16
-5 -35z m-16 -41 c12 -4 16 -20 16 -55 0 -43 -3 -49 -24 -55 -41 -10 -66 11
-66 56 0 49 30 71 74 54z"/>
<path d="M1401 2152 c-6 -10 -15 -65 -20 -121 -6 -57 -14 -108 -17 -114 -3 -7
1 -4 10 6 8 11 17 49 21 85 3 37 9 88 14 115 9 51 7 57 -8 29z"/>
<path d="M1441 2154 c0 -11 3 -14 6 -6 3 7 2 16 -1 19 -3 4 -6 -2 -5 -13z"/>
<path d="M4251 2158 c0 -10 -8 -18 -16 -18 -20 0 -35 -32 -24 -52 5 -9 23 -19
39 -23 38 -8 47 -23 26 -43 -14 -14 -21 -14 -49 -4 -29 10 -30 10 -12 -3 11
-8 24 -18 29 -22 14 -13 60 33 52 52 -3 9 -22 23 -42 31 -50 21 -43 49 11 48
34 -1 37 0 18 9 -12 5 -24 17 -26 26 -4 14 -5 13 -6 -1z"/>
<path d="M4371 2158 c0 -10 -8 -18 -16 -18 -20 0 -35 -32 -24 -52 5 -9 23 -19
39 -23 38 -8 47 -23 26 -43 -14 -14 -21 -14 -49 -4 -29 10 -30 10 -12 -3 11
-8 24 -18 29 -22 14 -13 60 33 52 52 -3 9 -22 23 -42 31 -50 21 -43 49 11 48
34 -1 37 0 18 9 -12 5 -24 17 -26 26 -4 14 -5 13 -6 -1z"/>
<path d="M1863 2113 c-17 -42 -14 -136 5 -155 9 -9 9 -3 2 23 -14 48 -12 94 4
134 8 19 13 35 10 35 -3 0 -12 -17 -21 -37z"/>
<path d="M2094 2125 c22 -41 20 -123 -3 -168 -10 -20 -15 -34 -10 -31 5 3 16
19 25 36 22 42 16 151 -10 176 -16 16 -16 16 -2 -13z"/>
<path d="M4436 2128 c19 -61 43 -122 43 -112 1 14 -40 134 -46 134 -2 0 -1
-10 3 -22z"/>
<path d="M1777 2118 c-4 -14 -15 -29 -25 -31 -15 -4 -15 -5 -1 -6 14 -1 16 -7
8 -42 -10 -41 -6 -59 12 -59 6 0 7 5 4 10 -4 6 -4 29 0 50 5 28 12 40 23 40
11 0 13 3 6 8 -7 4 -14 18 -16 32 l-4 25 -7 -27z"/>
<path d="M4513 2070 c0 -41 2 -58 4 -37 2 20 2 54 0 75 -2 20 -4 3 -4 -38z"/>
<path d="M4674 2050 c0 -52 1 -74 3 -47 2 26 2 68 0 95 -2 26 -3 4 -3 -48z"/>
<path d="M4810 2130 c0 -5 5 -10 10 -10 6 0 10 5 10 10 0 6 -4 10 -10 10 -5 0
-10 -4 -10 -10z"/>
<path d="M5138 2120 c4 -14 7 -45 7 -70 0 -25 -3 -56 -7 -70 -6 -19 -4 -18 7
5 8 17 14 46 14 65 0 19 -6 49 -14 65 -11 23 -13 24 -7 5z"/>
<path d="M5214 2050 c0 -52 1 -74 3 -47 2 26 2 68 0 95 -2 26 -3 4 -3 -48z"/>
<path d="M4986 2104 c-8 -22 -7 -97 2 -111 4 -6 7 20 7 58 0 38 -1 69 -1 69
-1 0 -5 -7 -8 -16z"/>
<path d="M4552 2045 c1 -42 2 -44 5 -13 8 73 59 78 66 6 l4 -43 1 48 c2 49 2
49 -50 51 -27 2 -28 0 -26 -49z"/>
<path d="M4720 2085 c-12 -14 -6 -35 10 -35 4 0 6 10 3 21 -5 20 -3 21 21 15
18 -4 25 -3 21 4 -9 15 -41 12 -55 -5z"/>
<path d="M4813 2050 c0 -30 2 -43 4 -27 2 15 2 39 0 55 -2 15 -4 2 -4 -28z"/>
<path d="M4862 2045 c1 -49 2 -49 5 -8 7 71 58 67 66 -5 l4 -37 1 41 c2 47
-11 63 -50 61 -27 -2 -28 -4 -26 -52z"/>
<path d="M5030 2096 c0 -5 7 -18 17 -28 15 -17 15 -19 0 -36 -10 -10 -17 -23
-17 -28 0 -5 9 2 20 16 l20 25 20 -25 c11 -14 20 -21 20 -16 0 5 -7 18 -17 28
-15 17 -15 19 0 36 10 10 17 23 17 28 -1 5 -10 -2 -20 -15 l-20 -23 -20 23
c-10 13 -19 20 -20 15z"/>
<path d="M5341 2083 c-1 -14 -9 -23 -23 -26 -23 -4 -23 -4 -1 -6 12 0 24 -9
26 -18 4 -16 5 -16 6 -1 0 9 11 19 24 21 22 4 22 4 0 6 -14 1 -23 9 -26 24 -4
22 -4 22 -6 0z"/>
<path d="M1552 2073 c-41 -36 -31 -94 16 -92 12 0 11 3 -5 9 -27 11 -29 36 -7
68 14 21 52 33 39 12 -3 -5 -1 -10 5 -10 17 0 6 24 -12 28 -8 2 -24 -5 -36
-15z"/>
<path d="M1693 2083 c20 -5 23 -43 6 -76 -12 -22 -12 -22 10 -3 34 31 22 88
-18 85 -12 -1 -12 -2 2 -6z"/>
<path d="M1969 2081 c17 -11 3 -82 -18 -89 -8 -3 -11 0 -7 7 4 6 2 11 -3 11
-6 0 -11 -6 -11 -14 0 -9 13 -13 43 -13 23 0 34 2 25 5 -21 4 -21 6 -8 52 10
34 2 50 -25 50 -5 0 -4 -4 4 -9z"/>
<path d="M2016 2076 c3 -9 11 -16 16 -16 13 0 5 23 -10 28 -7 2 -10 -2 -6 -12z"/>
<path d="M237 2074 c-15 -15 -6 -24 14 -14 25 14 49 6 49 -15 0 -8 -16 -32
-35 -54 -19 -21 -35 -41 -35 -45 0 -3 23 -6 52 -6 51 0 58 15 10 22 l-22 3 27
38 c21 30 25 42 17 55 -11 18 -64 28 -77 16z"/>
<path d="M1647 2062 c-10 -10 -17 -28 -17 -39 0 -24 24 -47 42 -40 8 4 7 6 -4
6 -21 1 -24 40 -8 72 13 24 8 24 -13 1z"/>
<path d="M4759 2042 c21 -15 2 -34 -28 -28 -24 5 -25 5 -4 -6 12 -6 29 -8 38
-4 20 7 16 38 -5 43 -12 4 -13 3 -1 -5z"/>
<path d="M4496 1969 c5 -9 143 -9 148 0 2 3 -31 6 -74 6 -43 0 -77 -3 -74 -6z"/>
<path d="M1331 1924 c0 -11 3 -14 6 -6 3 7 2 16 -1 19 -3 4 -6 -2 -5 -13z"/>
<path d="M237 1293 c-16 -15 -5 -22 18 -11 19 8 29 8 37 0 16 -16 2 -42 -22
-42 -12 0 -18 -4 -15 -10 3 -5 15 -10 26 -10 12 0 19 -7 19 -19 0 -24 -18 -31
-48 -19 -18 6 -23 5 -20 -4 3 -7 20 -13 38 -13 40 0 61 25 43 54 -8 13 -8 22
-1 29 5 5 7 19 3 31 -5 16 -15 21 -39 21 -18 0 -36 -3 -39 -7z"/>
<path d="M752 773 c267 -2 708 -2 980 0 271 1 52 2 -487 2 -539 0 -761 -1
-493 -2z"/>
<path d="M3375 755 l-25 -24 0 -256 0 -256 25 -24 24 -25 826 0 826 0 24 25
25 24 0 256 0 256 -25 24 -24 25 -826 0 -826 0 -24 -25z m532 -222 c3 -8 -6
-10 -31 -6 -29 4 -36 2 -36 -10 0 -10 13 -20 33 -25 27 -7 32 -13 32 -38 0
-28 -2 -29 -44 -29 -24 0 -46 5 -48 11 -2 7 9 11 29 10 43 -1 46 16 5 30 -59
20 -43 77 21 72 20 -2 37 -8 39 -15z m445 0 c22 -20 23 -70 1 -95 -11 -12 -30
-18 -60 -18 l-43 0 0 65 0 65 42 0 c24 0 49 -7 60 -17z m238 -13 c0 -32 9 -37
28 -18 6 6 15 8 19 5 4 -4 -1 -15 -10 -24 -16 -16 -15 -18 5 -40 25 -27 5 -33
-24 -6 -16 14 -18 14 -18 1 0 -24 -90 -23 -110 0 -11 14 -22 17 -45 11 l-30
-7 33 -1 c40 -1 34 -21 -7 -21 -32 0 -51 16 -51 45 0 42 54 62 80 30 11 -14
14 -13 25 1 8 12 21 15 43 12 28 -4 32 -2 32 19 0 14 6 23 15 23 10 0 15 -10
15 -30z m-592 -58 l3 -43 -38 3 c-30 2 -38 7 -38 23 0 14 8 21 28 23 32 4 37
24 5 22 -34 -3 -40 -1 -33 11 4 5 21 9 38 7 30 -3 32 -6 35 -46z m46 21 l14
-28 13 28 c7 15 18 27 25 27 10 0 9 -10 -5 -42 -24 -57 -44 -60 -65 -8 -19 47
-19 50 -6 50 5 0 16 -12 24 -27z m144 -5 c3 -25 0 -28 -30 -30 l-33 -1 33 -4
c43 -6 41 -23 -3 -23 -28 0 -38 5 -46 24 -17 37 4 68 44 64 27 -2 33 -8 35
-30z"/>
<path d="M4280 485 c0 -41 2 -45 25 -45 17 0 29 8 36 24 15 32 -4 66 -36 66
-23 0 -25 -4 -25 -45z"/>
<path d="M4410 480 c0 -5 7 -10 15 -10 8 0 15 5 15 10 0 6 -7 10 -15 10 -8 0
-15 -4 -15 -10z"/>
<path d="M4504 475 c-9 -22 4 -35 31 -33 36 3 35 43 0 46 -15 1 -28 -4 -31
-13z"/>
<path d="M4130 480 c0 -5 9 -10 20 -10 11 0 20 5 20 10 0 6 -9 10 -20 10 -11
0 -20 -4 -20 -10z"/>
<path d="M224 475 c0 -143 2 -200 3 -127 2 73 2 190 0 260 -1 70 -3 10 -3
-133z"/>
<path d="M2264 475 c0 -143 2 -200 3 -127 2 73 2 190 0 260 -1 70 -3 10 -3
-133z"/>
<path d="M703 548 c-31 -34 -36 -63 -18 -98 40 -77 155 -47 155 40 0 67 -93
106 -137 58z m67 -22 c0 -7 9 -16 20 -19 11 -3 20 -12 20 -21 0 -9 -8 -16 -20
-16 -13 0 -20 -7 -20 -20 0 -11 -7 -20 -15 -20 -8 0 -15 9 -15 20 0 13 -7 20
-20 20 -12 0 -20 7 -20 16 0 9 9 18 20 21 11 3 20 12 20 19 0 8 7 14 15 14 8
0 15 -6 15 -14z"/>
<path d="M946 495 c-25 -56 -36 -98 -15 -62 6 11 22 17 44 17 22 0 38 -6 44
-17 24 -41 9 15 -18 66 l-28 54 -27 -58z m54 -22 c0 -7 -11 -13 -25 -13 -27 0
-31 10 -14 42 11 21 12 21 25 3 8 -10 14 -25 14 -32z"/>
<path d="M1118 528 c-2 -16 -9 -22 -21 -20 -25 4 -47 -16 -47 -42 0 -30 18
-46 52 -46 28 0 28 0 28 65 0 65 -6 85 -12 43z m-4 -50 c11 -18 -7 -48 -30
-48 -18 0 -28 38 -13 56 14 17 28 14 43 -8z"/>
<path d="M1220 526 c0 -19 -4 -22 -25 -19 -19 4 -27 0 -36 -20 -17 -37 3 -68
41 -65 30 2 30 3 30 65 0 35 -2 63 -5 63 -3 0 -5 -11 -5 -24z m-12 -35 c21
-13 11 -56 -13 -56 -20 0 -31 25 -21 51 6 16 15 17 34 5z"/>
<path d="M1470 530 c-52 -52 9 -140 70 -100 11 7 6 8 -16 4 -59 -11 -89 59
-40 91 20 14 29 14 48 4 21 -11 22 -11 9 4 -18 23 -47 21 -71 -3z"/>
<path d="M1790 526 c0 -19 -4 -22 -25 -19 -19 4 -27 0 -36 -20 -17 -37 3 -68
41 -65 30 2 30 3 30 65 0 35 -2 63 -5 63 -3 0 -5 -11 -5 -24z m-12 -35 c21
-13 11 -56 -13 -56 -20 0 -31 25 -21 51 6 16 15 17 34 5z"/>
<path d="M1315 500 c-4 -7 2 -9 19 -4 20 5 26 2 26 -9 0 -9 -10 -17 -22 -19
-15 -2 -23 -10 -23 -23 0 -15 8 -21 33 -23 30 -3 32 -2 32 30 0 19 -5 39 -12
46 -15 15 -45 16 -53 2z m45 -49 c0 -14 -18 -23 -30 -16 -6 4 -8 11 -5 16 8
12 35 12 35 0z"/>
<path d="M1575 500 c-4 -7 2 -9 19 -4 20 5 26 2 26 -9 0 -9 -10 -17 -22 -19
-15 -2 -23 -10 -23 -23 0 -15 8 -21 33 -23 30 -3 32 -2 32 30 0 19 -5 39 -12
46 -15 15 -45 16 -53 2z m45 -49 c0 -14 -18 -23 -30 -16 -6 4 -8 11 -5 16 8
12 35 12 35 0z"/>
<path d="M1672 460 c1 -36 2 -39 5 -13 3 19 14 39 26 48 22 15 22 15 -6 13
-25 -2 -27 -5 -25 -48z"/>
<path d="M752 173 c267 -2 708 -2 980 0 271 1 52 2 -487 2 -539 0 -761 -1
-493 -2z"/>
</g>
</svg>
